<?xml version="1.0" encoding="UTF-8"?>
<svg id="Layer_2" data-name="Layer 2" xmlns="http://www.w3.org/2000/svg" viewBox="0 0 34 48.5">
  <defs>
    <style>
      .cls-1 {
        fill: #ff5e48;
      }

      .cls-2 {
        fill: none;
        stroke: #ff5e48;
      }
    </style>
  </defs>
  <g id="Layer_1-2" data-name="Layer 1">
    <g>
      <path class="cls-1" d="M33.49,24.89c.03-.23-.05-.45-.23-.62-.17-.17-.42-.27-.68-.27h-3.66c-.39,0-.74,.22-.86,.54l-.34,.87c-.91,3.18-2.48,5.09-4.66,7.75l-.47,.58c-.34,.42-.9,.67-1.49,.67h-.02c.87-.85,1.41-1.97,1.41-3.2,0-2.65-2.46-4.8-5.5-4.8s-5.5,2.15-5.5,4.8c0,1.23,.54,2.35,1.41,3.2-.59,0-1.14-.25-1.49-.67l-.47-.58c-2.17-2.65-3.74-4.57-4.68-7.82l-.32-.8c-.13-.32-.48-.54-.86-.54H1.42c-.26,0-.51,.1-.68,.27-.17,.17-.26,.4-.23,.62,.46,3.6,1.95,7.07,4.3,10.04l4.85,6.12v6.95h1.83v-7.2c0-.16-.06-.32-.16-.46l-5.01-6.33c-1.99-2.51-3.31-5.4-3.85-8.42h1.97l.08,.19c.99,3.47,2.73,5.6,4.94,8.29h0s.47,.58,.47,.58c.69,.84,1.8,1.34,2.98,1.34h8.19c1.18,0,2.29-.5,2.98-1.34l.47-.57h0c2.21-2.69,3.95-4.82,4.92-8.22l.11-.26h1.97c-.54,3.01-1.86,5.91-3.85,8.42l-5.01,6.33c-.11,.13-.16,.29-.16,.46v7.2h1.83v-6.95l4.85-6.12c2.36-2.97,3.84-6.45,4.3-10.04Zm-16.51,3.11c2.02,0,3.66,1.44,3.66,3.2s-1.64,3.2-3.66,3.2-3.66-1.44-3.66-3.2,1.64-3.2,3.66-3.2Z"/>
      <path class="cls-2" d="M33.49,24.89c.03-.23-.05-.45-.23-.62-.17-.17-.42-.27-.68-.27h-3.66c-.39,0-.74,.22-.86,.54l-.34,.87c-.91,3.18-2.48,5.09-4.66,7.75l-.47,.58c-.34,.42-.9,.67-1.49,.67h-.02c.87-.85,1.41-1.97,1.41-3.2,0-2.65-2.46-4.8-5.5-4.8s-5.5,2.15-5.5,4.8c0,1.23,.54,2.35,1.41,3.2-.59,0-1.14-.25-1.49-.67l-.47-.58c-2.17-2.65-3.74-4.57-4.68-7.82l-.32-.8c-.13-.32-.48-.54-.86-.54H1.42c-.26,0-.51,.1-.68,.27-.17,.17-.26,.4-.23,.62,.46,3.6,1.95,7.07,4.3,10.04l4.85,6.12v6.95h1.83v-7.2c0-.16-.06-.32-.16-.46l-5.01-6.33c-1.99-2.51-3.31-5.4-3.85-8.42h1.97l.08,.19c.99,3.47,2.73,5.6,4.94,8.29h0s.47,.58,.47,.58c.69,.84,1.8,1.34,2.98,1.34h8.19c1.18,0,2.29-.5,2.98-1.34l.47-.57h0c2.21-2.69,3.95-4.82,4.92-8.22l.11-.26h1.97c-.54,3.01-1.86,5.91-3.85,8.42l-5.01,6.33c-.11,.13-.16,.29-.16,.46v7.2h1.83v-6.95l4.85-6.12c2.36-2.97,3.84-6.45,4.3-10.04Zm-16.51,3.11c2.02,0,3.66,1.44,3.66,3.2s-1.64,3.2-3.66,3.2-3.66-1.44-3.66-3.2,1.64-3.2,3.66-3.2Z"/>
      <path class="cls-1" d="M16.53,20.66c.15,.09,.31,.14,.48,.14s.33-.05,.48-.14c1.91-1.19,8.12-5.42,8.12-9.91,0-2.17-1.35-3.79-3.51-4.24-1.66-.35-3.75,.11-5.09,1.55-1.34-1.44-3.43-1.9-5.09-1.55-2.17,.45-3.51,2.08-3.51,4.24,0,4.48,6.22,8.71,8.12,9.91Zm-4.24-12.59c.23-.05,.48-.07,.74-.07,1.22,0,2.55,.58,3.2,1.86,.14,.28,.44,.46,.78,.46s.64-.18,.78-.46c.78-1.55,2.58-2.07,3.94-1.78,.65,.14,2.17,.67,2.17,2.68,0,3.42-5.01,7.04-6.88,8.27-1.87-1.23-6.88-4.85-6.88-8.27,0-2.01,1.52-2.55,2.17-2.68Z"/>
      <path class="cls-2" d="M16.53,20.66c.15,.09,.31,.14,.48,.14s.33-.05,.48-.14c1.91-1.19,8.12-5.42,8.12-9.91,0-2.17-1.35-3.79-3.51-4.24-1.66-.35-3.75,.11-5.09,1.55-1.34-1.44-3.43-1.9-5.09-1.55-2.17,.45-3.51,2.08-3.51,4.24,0,4.48,6.22,8.71,8.12,9.91Zm-4.24-12.59c.23-.05,.48-.07,.74-.07,1.22,0,2.55,.58,3.2,1.86,.14,.28,.44,.46,.78,.46s.64-.18,.78-.46c.78-1.55,2.58-2.07,3.94-1.78,.65,.14,2.17,.67,2.17,2.68,0,3.42-5.01,7.04-6.88,8.27-1.87-1.23-6.88-4.85-6.88-8.27,0-2.01,1.52-2.55,2.17-2.68Z"/>
      <path class="cls-1" d="M28.2,11.2h3.44v1.6h-3.44v-1.6Z"/>
      <path class="cls-1" d="M2.39,11.2h3.44v1.6H2.39v-1.6Z"/>
      <path class="cls-1" d="M16.15,0h1.72V3.2h-1.72V0Z"/>
      <path class="cls-1" d="M6.06,3.77l1.22-1.13,2.43,2.26-1.22,1.13-2.43-2.26Z"/>
      <path class="cls-1" d="M24.31,4.9l2.43-2.26,1.22,1.13-2.43,2.26-1.22-1.13Z"/>
    </g>
  </g>
</svg>