<?xml version="1.0" encoding="UTF-8"?>
<svg id="Layer_1" data-name="Layer 1" xmlns="http://www.w3.org/2000/svg" xmlns:xlink="http://www.w3.org/1999/xlink" viewBox="0 0 1696.72 1536.43">
  <defs>
    <style>
      .cls-1 {
        fill: #4e4e4e;
        font-family: OpenSans, 'Open Sans';
        font-size: 117.59px;
      }

      .cls-2 {
        fill: url(#linear-gradient);
      }

      .cls-3 {
        fill: url(#linear-gradient-3);
      }

      .cls-4 {
        fill: url(#linear-gradient-4);
      }

      .cls-5 {
        fill: url(#linear-gradient-2);
      }

      .cls-6 {
        fill: url(#linear-gradient-5);
      }
    </style>
    <linearGradient id="linear-gradient" x1="166.18" y1="696.37" x2="736.52" y2="696.37" gradientUnits="userSpaceOnUse">
      <stop offset="0" stop-color="#ec4824"/>
      <stop offset="1" stop-color="#f16722"/>
    </linearGradient>
    <linearGradient id="linear-gradient-2" x1="724.43" y1="861.26" x2="1110.28" y2="861.26" xlink:href="#linear-gradient"/>
    <linearGradient id="linear-gradient-3" x1="926.17" y1="715.8" x2="1337.2" y2="715.8" gradientUnits="userSpaceOnUse">
      <stop offset="0" stop-color="#ec4824"/>
      <stop offset=".87" stop-color="#f16a22"/>
    </linearGradient>
    <linearGradient id="linear-gradient-4" x1="1105.45" y1="715.8" x2="1516.48" y2="715.8" xlink:href="#linear-gradient"/>
    <linearGradient id="linear-gradient-5" x1="986.26" y1="1168.84" x2="1508.85" y2="1168.84" gradientUnits="userSpaceOnUse">
      <stop offset="0" stop-color="#ee4e24"/>
      <stop offset=".03" stop-color="#ee5123"/>
      <stop offset=".19" stop-color="#ee5d23"/>
      <stop offset=".4" stop-color="#ee6423"/>
      <stop offset="1" stop-color="#ee6623"/>
    </linearGradient>
  </defs>
  <g>
    <path class="cls-2" d="M720.76,526.41c10.44,37.96,15.76,77.74,15.76,118.25,0,46.97-3.72,90.99-11,130.91-7.31,39.88-17.36,67.15-29.9,99.72-12.56,32.64-27.42,61.91-44.12,86.95-16.74,25.13-34.79,46.51-53.62,63.51-18.99,17.17-38.87,30.32-59.04,39.07-20.43,8.84-40.54,13.35-59.79,13.35-24.41,0-45.63-3.95-63.02-11.68-17.75-7.93-32.31-19.71-43.25-35.09-10.67-14.98-18.51-33.55-23.27-55.13-4.63-20.95-6.98-45.11-6.98-71.74v-378.27c0-10.8-.91-15.27-1.47-17-1.57-4.96-2.38-9.76-2.38-14.3,0-8.55,4.44-15.93,12.5-20.72,6.66-3.95,14.49-5.94,23.3-5.94,18.67,0,34.17,5.06,46.05,15.08,12.4,10.41,18.67,23.24,18.67,38.09v387.9c0,25.36,3.82,44.45,11.36,56.82,6.66,10.93,17.89,16.25,34.27,16.25,10.61,0,21.67-3.56,32.9-10.54,11.85-7.44,23.69-18.31,35.18-32.34,11.68-14.3,22.72-31.85,32.77-52.16,10.15-20.43,19.29-43.64,27.12-68.9,7.87-25.23,14.07-53,18.47-82.61,4.41-29.57,6.66-60.87,6.66-93.02s-3.56-62.96-10.58-91.61c-6.92-28.23-17.75-53.17-32.28-74.09-14.3-20.66-32.8-37.21-54.93-49.28-22.06-11.98-48.92-18.08-79.9-18.08-26.21,0-49.61,2.97-69.52,8.78-19.75,5.78-37.01,13.81-51.31,23.89-14.33,10.09-26.5,22.06-36.26,35.58-9.89,13.68-17.92,28.56-23.83,44.22-6,15.8-10.28,32.44-12.73,49.48-2.48,17.27-3.75,34.53-3.75,51.37,0,22.85,2.38,43.38,7.11,61.07,4.8,17.95,10.28,33.36,16.25,45.76,5.91,12.3,11.52,21.83,16.65,28.26,2.77,3.46,4.7,5.87,6.07,7.54,8.49-.49,13.19,3.62,15.44,6.49,3.62,4.67,5.45,10.57,5.45,17.59,0,7.64-1.6,15.57-4.8,23.6-3.07,7.8-7.21,14.98-12.27,21.31-5.16,6.43-11,11.81-17.46,16.06-7.21,4.73-14.79,7.15-22.49,7.15-3.43,0-6.79-.46-10.02-1.31-3.43-.91-6.89-2.64-10.28-5.12-1.5-.95-3.49-2.74-8.91-8.39-4.47-4.63-9.89-11.16-16.15-19.42-6.33-8.29-13.12-18.77-20.24-31.17-7.12-12.44-13.84-26.96-19.94-43.08-6.07-16.12-11.16-34.5-15.14-54.57-3.95-20.14-5.94-42.33-5.94-65.99,0-45.6,7.08-88.16,21.05-126.47,14.03-38.48,34.27-72.03,60.12-99.71,25.88-27.71,57.51-49.58,93.93-64.95,36.39-15.41,77.38-23.21,121.87-23.21,47.32,0,88.81,9.24,123.34,27.42,34.4,18.11,63.09,42.49,85.22,72.46,22,29.73,38.48,73.72,49.06,111.97Z"/>
    <path class="cls-5" d="M1101.25,860.46c-6.59-7.76-14.58-12.95-23.75-15.4-9.66-2.58-19.18-1.4-28.32,3.46-9.56,5.12-15.86,14.75-18.73,28.71-2.77,14.45-6.98,28.94-12.5,43.07-5.38,13.8-12.59,26.39-21.43,37.45-8.55,10.77-19.25,19.54-31.81,26.1-12.33,6.43-27.5,9.72-45.06,9.72-11.75,0-22.15-1.47-30.93-4.34-8.74-2.87-16.48-6.75-23-11.58-6.49-4.8-12.17-10.6-16.83-17.26-2.77-3.95-5.25-8.06-7.41-12.27,20.55-7.18,39.15-16.97,55.4-29.2,18.82-14.19,34.94-30.44,47.8-48.35,12.92-17.94,22.77-37.23,29.3-57.36,6.56-20.16,9.88-40.13,9.88-59.38,0-15.73-2.19-30.37-6.49-43.52-4.44-13.41-11-25.15-19.51-34.94-8.65-9.89-19.28-17.62-31.65-23-12.27-5.32-26.13-8.03-41.24-8.03-20.72,0-41.08,6.07-60.52,18.07-19.02,11.68-36.15,28.06-50.99,48.61-14.65,20.29-26.62,44.63-35.56,72.3-8.94,27.67-13.47,57.94-13.47,89.95s5.19,61.01,15.4,86.29c10.21,25.32,24.05,46.98,41.11,64.34,17.03,17.39,36.9,30.93,59.05,40.23,22.15,9.3,45.38,14.03,69.07,14.03,24.99,0,47.57-3.26,67.11-9.66,19.48-6.36,36.74-14.94,51.32-25.45,14.58-10.47,27.05-22.61,37.03-36.02,9.85-13.18,18.07-26.82,24.4-40.52,6.36-13.7,11.19-27.44,14.39-40.88,3.1-13.05,5.35-23,6.69-33.47,1.27-11.42-1.66-23.33-8.74-31.72Zm-276.3,11.81c-.03-.62-.03-1.24-.03-1.86v-.49c-.33-6.36-.16-14.52,.46-24.18,.62-9.72,1.89-20.16,3.75-30.99,1.86-10.96,4.31-21.89,7.24-32.56,2.84-10.31,6.46-19.71,10.77-27.89,4.08-7.7,8.84-13.96,14.16-18.6,4.47-3.92,9.36-5.81,15.01-5.81,2.15,0,4.44,.55,6.79,4.44,2.74,4.53,4.14,11.42,4.14,20.49,0,13.77-1.83,27.24-5.42,39.97-3.59,12.69-8.74,24.6-15.3,35.37-6.56,10.7-14.55,20.33-23.75,28.65-5.55,4.99-11.48,9.49-17.81,13.47Z"/>
    <path class="cls-3" d="M1336.73,598.66c-.72,7.73-2.12,15.24-4.21,22.35-2.22,7.57-5.35,14.29-9.3,19.97-6.62,9.4-14.19,11.39-19.35,11.39-39.35,.98-74.65,1.53-104.73,1.7-25.77,.13-51.03,.2-75.27,.23v302.83c0,13.38,2.32,23.16,6.75,28.29,4.24,4.93,9.69,7.21,17.16,7.21s13.57-2.58,18.92-7.83c6.39-6.23,12.07-14.26,16.87-23.85,4.99-9.98,9.13-20.95,12.33-32.66,3.3-12.04,6.07-23.59,8.29-34.32,2.28-12.14,6.26-21.11,12.17-27.21,6.39-6.62,13.47-9.98,21.01-9.98,5.58,0,11.29,1.66,16.93,4.93,5.12,2.97,9.76,6.79,13.8,11.45,4.01,4.57,7.31,9.79,9.79,15.53,2.64,6.04,3.95,12.2,3.95,18.34v2.41c0,2.02-.43,4.21-1.34,7.08-4.27,16.67-10.15,34.32-17.42,52.46-7.5,18.66-17.32,36.12-29.2,51.84-12.07,15.95-26.62,29.4-43.29,39.97-17.26,10.9-37.65,16.44-60.62,16.44-14.22,0-27.6-2.22-39.7-6.62-12.56-4.53-23.52-11.91-32.56-21.89-8.94-9.79-15.95-22.41-20.85-37.49-4.8-14.71-7.24-32.59-7.24-53.15v-303.81c-7.24-.03-13.67-.1-19.54-.2-8.55-.16-15.89-.42-21.79-.75-6.59-.29-12.46-.62-17.58-.95-10.54-.1-19.8-4.73-27.57-13.77-6.85-7.93-11.71-16.87-14.52-26.56-2.87-9.98-3.23-19.41-1.05-27.99,2.9-11.26,11.16-17.72,22.74-17.72l.85,.03c7.21,.62,15.3,1.11,24.05,1.4l.49,.03c7.44,.62,16.61,1.01,27.24,1.17,8.19,.13,17.1,.29,26.69,.49v-157.12c0-7.67-.72-12.04-1.34-14.32-1.21-4.5-2.19-6.98-2.81-8.29-1.01-2.15-1.76-3.33-2.22-3.92-2.45-3.1-3.75-6.79-3.75-10.57,0-5.22,2.58-9.82,7.24-12.95,2.81-1.86,6.17-3.36,10.34-4.6,3.65-1.11,7.67-1.96,11.87-2.51,4.11-.52,8.19-.78,12.14-.78,18.76,0,34.03,5.12,45.28,15.27,11.61,10.41,17.49,23.13,17.49,37.85v163.13c27.31-.07,56.05-.36,85.61-.95,32.2-.62,64.79-1.7,96.96-3.2,8.19-7.21,14.84-6.56,19.15-4.53,4.01,1.89,9.1,6.23,10.8,16.38,.95,5.74,1.05,12.36,.33,20.33Z"/>
    <path class="cls-4" d="M1516.01,598.66c-.72,7.73-2.12,15.24-4.21,22.35-2.22,7.57-5.35,14.29-9.3,19.97-6.62,9.4-14.19,11.39-19.35,11.39-39.35,.98-74.65,1.53-104.73,1.7-25.77,.13-51.03,.2-75.27,.23v302.83c0,13.38,2.32,23.16,6.75,28.29,4.24,4.93,9.69,7.21,17.16,7.21s13.57-2.58,18.92-7.83c6.39-6.23,12.07-14.26,16.87-23.85,4.99-9.98,9.13-20.95,12.33-32.66,3.3-12.04,6.07-23.59,8.29-34.32,2.28-12.14,6.26-21.11,12.17-27.21,6.39-6.62,13.47-9.98,21.01-9.98,5.58,0,11.29,1.66,16.93,4.93,5.12,2.97,9.76,6.79,13.8,11.45,4.01,4.57,7.31,9.79,9.79,15.53,2.64,6.04,3.95,12.2,3.95,18.34v2.41c0,2.02-.43,4.21-1.34,7.08-4.27,16.67-10.15,34.32-17.42,52.46-7.5,18.66-17.32,36.12-29.2,51.84-12.07,15.95-26.62,29.4-43.29,39.97-17.26,10.9-37.65,16.44-60.62,16.44-14.22,0-27.6-2.22-39.7-6.62-12.56-4.53-23.52-11.91-32.56-21.89-8.94-9.79-15.95-22.41-20.85-37.49-4.8-14.71-7.24-32.59-7.24-53.15v-303.81c-7.24-.03-13.67-.1-19.54-.2-8.55-.16-15.89-.42-21.79-.75-6.59-.29-12.46-.62-17.58-.95-10.54-.1-19.8-4.73-27.57-13.77-6.85-7.93-11.71-16.87-14.52-26.56-2.87-9.98-3.23-19.41-1.05-27.99,2.9-11.26,11.16-17.72,22.74-17.72l.85,.03c7.21,.62,15.3,1.11,24.05,1.4l.49,.03c7.44,.62,16.61,1.01,27.24,1.17,8.19,.13,17.1,.29,26.69,.49v-157.12c0-7.67-.72-12.04-1.34-14.32-1.21-4.5-2.19-6.98-2.81-8.29-1.01-2.15-1.76-3.33-2.22-3.92-2.45-3.1-3.75-6.79-3.75-10.57,0-5.22,2.58-9.82,7.24-12.95,2.81-1.86,6.17-3.36,10.34-4.6,3.65-1.11,7.67-1.96,11.87-2.51,4.11-.52,8.19-.78,12.14-.78,18.76,0,34.03,5.12,45.28,15.27,11.61,10.41,17.49,23.13,17.49,37.85v163.13c27.31-.07,56.05-.36,85.61-.95,32.2-.62,64.79-1.7,96.96-3.2,8.19-7.21,14.84-6.56,19.15-4.53,4.01,1.89,9.1,6.23,10.8,16.38,.95,5.74,1.05,12.36,.33,20.33Z"/>
  </g>
  <text class="cls-1" transform="translate(564.25 1210.24)"><tspan x="0" y="0">We gift</tspan></text>
  <g>
    <path class="cls-6" d="M1022.54,1210.24l-24.34-70.1h-.46c.65,10.41,.98,20.17,.98,29.28v40.82h-12.46v-83.94h19.35l23.31,66.77h.34l24-66.77h19.41v83.94h-13.21v-41.51c0-4.17,.11-9.61,.32-16.31,.21-6.7,.39-10.75,.54-12.17h-.46l-25.21,69.99h-12.12Z"/>
    <path class="cls-6" d="M1149.66,1178.38c0,10.37-2.66,18.47-7.98,24.29-5.32,5.82-12.73,8.73-22.22,8.73-5.93,0-11.18-1.34-15.73-4.02-4.56-2.68-8.06-6.53-10.51-11.54-2.45-5.01-3.67-10.83-3.67-17.45,0-10.3,2.64-18.33,7.92-24.11,5.28-5.78,12.73-8.67,22.33-8.67s16.46,2.96,21.82,8.87c5.36,5.91,8.04,13.89,8.04,23.91Zm-46.22,0c0,14.66,5.42,21.99,16.25,21.99s16.08-7.33,16.08-21.99-5.4-21.76-16.19-21.76c-5.67,0-9.77,1.88-12.32,5.63-2.55,3.75-3.82,9.13-3.82,16.13Z"/>
    <path class="cls-6" d="M1218.67,1210.24h-13.55v-39.16c0-4.86-.92-8.49-2.76-10.88-1.84-2.39-4.71-3.59-8.61-3.59-5.21,0-9.02,1.69-11.45,5.08-2.43,3.39-3.65,9.02-3.65,16.91v31.64h-13.49v-63.5h10.56l1.89,8.33h.69c1.76-3.02,4.32-5.36,7.67-7,3.35-1.65,7.03-2.47,11.05-2.47,9.76,0,16.23,3.33,19.41,9.99h.92c1.88-3.14,4.52-5.59,7.92-7.35,3.41-1.76,7.31-2.64,11.71-2.64,7.58,0,13.1,1.91,16.56,5.74,3.46,3.83,5.2,9.67,5.2,17.51v41.4h-13.49v-39.16c0-4.86-.93-8.49-2.79-10.88-1.86-2.39-4.74-3.59-8.64-3.59-5.25,0-9.08,1.64-11.51,4.91-2.43,3.27-3.65,8.3-3.65,15.07v33.65Z"/>
    <path class="cls-6" d="M1305.31,1211.39c-9.88,0-17.6-2.88-23.17-8.64-5.57-5.76-8.35-13.69-8.35-23.8s2.58-18.53,7.75-24.46c5.17-5.93,12.27-8.9,21.3-8.9,8.38,0,15,2.55,19.87,7.64,4.86,5.09,7.29,12.1,7.29,21.01v7.29h-42.31c.19,6.16,1.86,10.9,5,14.21,3.14,3.31,7.56,4.97,13.26,4.97,3.75,0,7.24-.35,10.48-1.06,3.23-.71,6.71-1.88,10.42-3.53v10.97c-3.29,1.57-6.62,2.68-9.99,3.33-3.37,.65-7.22,.98-11.54,.98Zm-2.47-55.58c-4.29,0-7.72,1.36-10.31,4.08-2.58,2.72-4.12,6.68-4.62,11.89h28.82c-.08-5.24-1.34-9.22-3.79-11.91-2.45-2.7-5.82-4.05-10.11-4.05Z"/>
    <path class="cls-6" d="M1401.2,1210.24h-13.55v-39.04c0-4.9-.99-8.55-2.96-10.97-1.97-2.41-5.1-3.62-9.39-3.62-5.7,0-9.88,1.68-12.52,5.05-2.64,3.37-3.96,9.01-3.96,16.94v31.64h-13.49v-63.5h10.56l1.89,8.33h.69c1.91-3.02,4.63-5.36,8.15-7,3.52-1.65,7.43-2.47,11.71-2.47,15.23,0,22.85,7.75,22.85,23.25v41.4Z"/>
    <path class="cls-6" d="M1443.63,1200.48c3.29,0,6.58-.52,9.88-1.55v10.16c-1.49,.65-3.42,1.2-5.77,1.64-2.35,.44-4.79,.66-7.32,.66-12.79,0-19.18-6.74-19.18-20.21v-34.22h-8.67v-5.97l9.3-4.94,4.59-13.43h8.33v14.12h18.09v10.22h-18.09v33.99c0,3.25,.81,5.66,2.44,7.21,1.63,1.55,3.76,2.33,6.4,2.33Z"/>
    <path class="cls-6" d="M1508.85,1192.15c0,6.2-2.26,10.96-6.78,14.27-4.52,3.31-10.99,4.97-19.41,4.97s-15.25-1.28-20.38-3.85v-11.66c7.46,3.44,14.41,5.17,20.84,5.17,8.31,0,12.46-2.51,12.46-7.52,0-1.61-.46-2.95-1.38-4.02-.92-1.07-2.43-2.18-4.54-3.33-2.11-1.15-5.03-2.45-8.79-3.9-7.31-2.83-12.26-5.67-14.84-8.5-2.58-2.83-3.88-6.51-3.88-11.02,0-5.43,2.19-9.65,6.57-12.66,4.38-3,10.34-4.51,17.88-4.51s14.53,1.51,21.19,4.54l-4.36,10.16c-6.85-2.83-12.61-4.25-17.28-4.25-7.12,0-10.68,2.03-10.68,6.09,0,1.99,.93,3.67,2.78,5.05s5.9,3.27,12.14,5.68c5.24,2.03,9.05,3.88,11.43,5.57,2.37,1.68,4.13,3.63,5.28,5.83,1.15,2.2,1.72,4.83,1.72,7.89Z"/>
  </g>
</svg>