<svg width="136" height="138" viewBox="0 0 136 138" fill="none" xmlns="http://www.w3.org/2000/svg">
<circle cx="29.7533" cy="29.7542" r="29.2532" fill="#FFD5C5"/>
<circle cx="94.6589" cy="29.7542" r="29.2532" fill="#BFF3FF"/>
<path d="M122.998 65.4065C122.998 73.3298 121.437 81.1755 118.405 88.4957C115.373 95.8158 110.929 102.467 105.326 108.07C99.7236 113.672 93.0724 118.116 85.7522 121.149C78.4321 124.181 70.5864 125.741 62.6631 125.741C54.7399 125.741 46.8942 124.181 39.574 121.149C32.2539 118.116 25.6026 113.672 20 108.07C14.3974 102.467 9.95318 95.8158 6.92108 88.4957C3.88897 81.1755 2.32837 73.3298 2.32837 65.4065L62.6631 65.4065H122.998Z" fill="#D99CFF"/>
</svg>
