<svg width="136" height="138" viewBox="0 0 136 138" fill="none" xmlns="http://www.w3.org/2000/svg">
<circle cx="29.7533" cy="29.7532" r="29.2532" fill="#99D4FF"/>
<circle cx="94.6588" cy="29.7532" r="29.2532" fill="#CEF495"/>
<path d="M122.998 65.4056C122.998 73.3288 121.437 81.1745 118.405 88.4947C115.373 95.8148 110.929 102.466 105.326 108.069C99.7236 113.671 93.0724 118.116 85.7522 121.148C78.4321 124.18 70.5864 125.74 62.6631 125.74C54.7399 125.74 46.8942 124.18 39.574 121.148C32.2539 118.116 25.6026 113.671 20 108.069C14.3974 102.466 9.95318 95.8148 6.92108 88.4947C3.88897 81.1745 2.32837 73.3288 2.32837 65.4056L62.6631 65.4056H122.998Z" fill="#77E9F0"/>
</svg>
