<svg width="124" height="126" viewBox="0 0 124 126" fill="none" xmlns="http://www.w3.org/2000/svg">
<circle cx="29.5473" cy="29.6331" r="29.2532" fill="#FF99D0"/>
<circle cx="94.4529" cy="29.6331" r="29.2532" fill="#E5F0D5"/>
<path d="M122.792 65.2854C122.792 73.2087 121.231 81.0544 118.199 88.3746C115.167 95.6947 110.723 102.346 105.12 107.949C99.5177 113.551 92.8664 117.995 85.5462 121.027C78.2261 124.06 70.3804 125.62 62.4571 125.62C54.5339 125.62 46.6882 124.06 39.368 121.027C32.0479 117.995 25.3966 113.551 19.794 107.949C14.1914 102.346 9.74719 95.6947 6.71508 88.3746C3.68298 81.0544 2.12237 73.2087 2.12238 65.2854L62.4571 65.2854H122.792Z" fill="#FFBE18"/>
</svg>
