<svg width="56" height="57" viewBox="0 0 56 57" fill="none" xmlns="http://www.w3.org/2000/svg">
<rect y="0.5" width="56" height="56" rx="14" fill="white"/>
<path d="M28.0065 8.5C19.6567 8.5 17.2147 8.50862 16.74 8.548C15.0265 8.69047 13.9603 8.96035 12.7986 9.53884C11.9034 9.98351 11.1974 10.4989 10.5006 11.2215C9.2316 12.5391 8.46251 14.1602 8.1841 16.0871C8.04874 17.0226 8.00936 17.2133 8.00136 21.9916C7.9983 23.5844 8.00136 25.6805 8.00136 28.4921C8.00136 36.8375 8.01059 39.2777 8.05059 39.7516C8.18903 41.4194 8.45051 42.4687 9.00425 43.6165C10.0625 45.8136 12.0837 47.463 14.4648 48.0784C15.2892 48.2907 16.1998 48.4077 17.3688 48.4631C17.8641 48.4846 22.9124 48.5 27.9638 48.5C33.0151 48.5 38.0665 48.4938 38.5495 48.4692C39.9031 48.4055 40.6891 48.3 41.5581 48.0753C43.9546 47.4568 45.9389 45.8321 47.0186 43.6042C47.5616 42.4841 47.837 41.3948 47.9616 39.814C47.9886 39.4694 48 33.9745 48 28.4869C48 22.9985 47.9877 17.5137 47.9606 17.169C47.8345 15.5627 47.5592 14.4827 46.9987 13.341C46.5387 12.4065 46.0281 11.7086 45.2867 10.995C43.9635 9.73087 42.3454 8.96157 40.4171 8.6834C39.4828 8.5483 39.2967 8.5083 34.5161 8.5H28.0065Z" fill="url(#paint0_radial_1064_10705)"/>
<path d="M28.0065 8.5C19.6567 8.5 17.2147 8.50862 16.74 8.548C15.0265 8.69047 13.9603 8.96035 12.7986 9.53884C11.9034 9.98351 11.1974 10.4989 10.5006 11.2215C9.2316 12.5391 8.46251 14.1602 8.1841 16.0871C8.04874 17.0226 8.00936 17.2133 8.00136 21.9916C7.9983 23.5844 8.00136 25.6805 8.00136 28.4921C8.00136 36.8375 8.01059 39.2777 8.05059 39.7516C8.18903 41.4194 8.45051 42.4687 9.00425 43.6165C10.0625 45.8136 12.0837 47.463 14.4648 48.0784C15.2892 48.2907 16.1998 48.4077 17.3688 48.4631C17.8641 48.4846 22.9124 48.5 27.9638 48.5C33.0151 48.5 38.0665 48.4938 38.5495 48.4692C39.9031 48.4055 40.6891 48.3 41.5581 48.0753C43.9546 47.4568 45.9389 45.8321 47.0186 43.6042C47.5616 42.4841 47.837 41.3948 47.9616 39.814C47.9886 39.4694 48 33.9745 48 28.4869C48 22.9985 47.9877 17.5137 47.9606 17.169C47.8345 15.5627 47.5592 14.4827 46.9987 13.341C46.5387 12.4065 46.0281 11.7086 45.2867 10.995C43.9635 9.73087 42.3454 8.96157 40.4171 8.6834C39.4828 8.5483 39.2967 8.5083 34.5161 8.5H28.0065Z" fill="url(#paint1_radial_1064_10705)"/>
<path d="M28.0065 8.5C19.6567 8.5 17.2147 8.50862 16.74 8.548C15.0265 8.69047 13.9603 8.96035 12.7986 9.53884C11.9034 9.98351 11.1974 10.4989 10.5006 11.2215C9.2316 12.5391 8.46251 14.1602 8.1841 16.0871C8.04874 17.0226 8.00936 17.2133 8.00136 21.9916C7.9983 23.5844 8.00136 25.6805 8.00136 28.4921C8.00136 36.8375 8.01059 39.2777 8.05059 39.7516C8.18903 41.4194 8.45051 42.4687 9.00425 43.6165C10.0625 45.8136 12.0837 47.463 14.4648 48.0784C15.2892 48.2907 16.1998 48.4077 17.3688 48.4631C17.8641 48.4846 22.9124 48.5 27.9638 48.5C33.0151 48.5 38.0665 48.4938 38.5495 48.4692C39.9031 48.4055 40.6891 48.3 41.5581 48.0753C43.9546 47.4568 45.9389 45.8321 47.0186 43.6042C47.5616 42.4841 47.837 41.3948 47.9616 39.814C47.9886 39.4694 48 33.9745 48 28.4869C48 22.9985 47.9877 17.5137 47.9606 17.169C47.8345 15.5627 47.5592 14.4827 46.9987 13.341C46.5387 12.4065 46.0281 11.7086 45.2867 10.995C43.9635 9.73087 42.3454 8.96157 40.4171 8.6834C39.4828 8.5483 39.2967 8.5083 34.5161 8.5H28.0065Z" fill="url(#paint2_radial_1064_10705)"/>
<path d="M28.0065 8.5C19.6567 8.5 17.2147 8.50862 16.74 8.548C15.0265 8.69047 13.9603 8.96035 12.7986 9.53884C11.9034 9.98351 11.1974 10.4989 10.5006 11.2215C9.2316 12.5391 8.46251 14.1602 8.1841 16.0871C8.04874 17.0226 8.00936 17.2133 8.00136 21.9916C7.9983 23.5844 8.00136 25.6805 8.00136 28.4921C8.00136 36.8375 8.01059 39.2777 8.05059 39.7516C8.18903 41.4194 8.45051 42.4687 9.00425 43.6165C10.0625 45.8136 12.0837 47.463 14.4648 48.0784C15.2892 48.2907 16.1998 48.4077 17.3688 48.4631C17.8641 48.4846 22.9124 48.5 27.9638 48.5C33.0151 48.5 38.0665 48.4938 38.5495 48.4692C39.9031 48.4055 40.6891 48.3 41.5581 48.0753C43.9546 47.4568 45.9389 45.8321 47.0186 43.6042C47.5616 42.4841 47.837 41.3948 47.9616 39.814C47.9886 39.4694 48 33.9745 48 28.4869C48 22.9985 47.9877 17.5137 47.9606 17.169C47.8345 15.5627 47.5592 14.4827 46.9987 13.341C46.5387 12.4065 46.0281 11.7086 45.2867 10.995C43.9635 9.73087 42.3454 8.96157 40.4171 8.6834C39.4828 8.5483 39.2967 8.5083 34.5161 8.5H28.0065Z" fill="url(#paint3_radial_1064_10705)"/>
<path d="M28.0083 13.6367C23.9692 13.6367 23.4623 13.6544 21.876 13.7265C20.2927 13.799 19.212 14.0494 18.2663 14.4169C17.2882 14.7965 16.4584 15.3043 15.6318 16.1306C14.8045 16.9567 14.2964 17.7858 13.9153 18.7629C13.5465 19.7082 13.2956 20.7884 13.2243 22.3699C13.1534 23.9551 13.1348 24.4619 13.1348 28.498C13.1348 32.5341 13.1527 33.039 13.2246 34.6242C13.2974 36.2063 13.5481 37.2862 13.9156 38.2312C14.2957 39.2086 14.8039 40.0377 15.6308 40.8638C16.4572 41.6904 17.2869 42.1994 18.2645 42.579C19.2107 42.9465 20.2918 43.197 21.8747 43.2695C23.4611 43.3416 23.9677 43.3592 28.0064 43.3592C32.0458 43.3592 32.5512 43.3416 34.1375 43.2694C35.7208 43.197 36.8028 42.9465 37.749 42.579C38.7269 42.1994 39.5554 41.6904 40.3817 40.8638C41.209 40.0377 41.7172 39.2086 42.0983 38.2315C42.4639 37.2862 42.7148 36.206 42.7892 34.6245C42.8604 33.0393 42.879 32.534 42.879 28.498C42.879 24.4619 42.8604 23.9554 42.7892 22.3702C42.7148 20.7881 42.4639 19.7082 42.0983 18.7632C41.7172 17.7858 41.209 16.9567 40.3817 16.1306C39.5545 15.304 38.7272 14.7962 37.7481 14.4169C36.8 14.0494 35.7187 13.799 34.1354 13.7265C32.549 13.6544 32.044 13.6367 28.0037 13.6367H28.0083ZM26.6741 16.3148C27.0701 16.3142 27.5119 16.3148 28.0083 16.3148C31.9792 16.3148 32.4498 16.3291 34.0179 16.4003C35.468 16.4666 36.255 16.7087 36.7792 16.9121C37.4733 17.1814 37.9681 17.5034 38.4883 18.0236C39.0088 18.5437 39.3311 19.0391 39.6013 19.7326C39.8048 20.2559 40.0474 21.0423 40.1134 22.4912C40.1847 24.0579 40.2002 24.5285 40.2002 28.4946C40.2002 32.4607 40.1847 32.9313 40.1134 34.4979C40.0471 35.9469 39.8048 36.7333 39.6013 37.2565C39.3317 37.9501 39.0088 38.4439 38.4883 38.9637C37.9678 39.4839 37.4736 39.8058 36.7792 40.0752C36.2556 40.2796 35.468 40.521 34.0179 40.5873C32.4502 40.6585 31.9792 40.674 28.0083 40.674C24.0371 40.674 23.5664 40.6585 21.9986 40.5873C20.5486 40.5204 19.7616 40.2783 19.2371 40.0749C18.543 39.8055 18.0473 39.4835 17.5267 38.9634C17.0062 38.4433 16.684 37.9491 16.4138 37.2553C16.2102 36.732 15.9676 35.9456 15.9016 34.4967C15.8304 32.93 15.8161 32.4594 15.8161 28.4909C15.8161 24.5223 15.8304 24.0541 15.9016 22.4875C15.9679 21.0385 16.2102 20.2521 16.4138 19.7283C16.6833 19.0348 17.0062 18.5394 17.5267 18.0192C18.0473 17.4991 18.543 17.1771 19.2371 16.9071C19.7613 16.7028 20.5486 16.4613 21.9986 16.3947C23.3706 16.3328 23.9023 16.3142 26.6741 16.3111L26.6741 16.3148ZM35.947 18.7824C34.9617 18.7824 34.1623 19.5803 34.1623 20.5652C34.1623 21.5497 34.9617 22.3485 35.947 22.3485C36.9323 22.3485 37.7317 21.5497 37.7317 20.5652C37.7317 19.5806 36.9323 18.7818 35.947 18.7818L35.947 18.7824ZM28.0083 20.8661C23.7904 20.8661 20.3708 24.2833 20.3708 28.498C20.3708 32.7127 23.7904 36.1283 28.0083 36.1283C32.2261 36.1283 35.6446 32.7127 35.6446 28.498C35.6446 24.2833 32.2258 20.8661 28.008 20.8661H28.0083ZM28.0083 23.5442C30.746 23.5442 32.9657 25.762 32.9657 28.498C32.9657 31.2337 30.746 33.4517 28.0083 33.4517C25.2703 33.4517 23.0509 31.2337 23.0509 28.498C23.0509 25.762 25.2703 23.5442 28.0083 23.5442Z" fill="white"/>
<defs>
<radialGradient id="paint0_radial_1064_10705" cx="0" cy="0" r="1" gradientUnits="userSpaceOnUse" gradientTransform="translate(46.7084 27.2485) rotate(164.25) scale(25.5577 18.4131)">
<stop stop-color="#FF005F"/>
<stop offset="1" stop-color="#FC01D8"/>
</radialGradient>
<radialGradient id="paint1_radial_1064_10705" cx="0" cy="0" r="1" gradientUnits="userSpaceOnUse" gradientTransform="translate(18.6247 51.5808) rotate(-90) scale(31.9288 33.8757)">
<stop stop-color="#FFCC00"/>
<stop offset="0.1242" stop-color="#FFCC00"/>
<stop offset="0.5672" stop-color="#FE4A05"/>
<stop offset="0.6942" stop-color="#FF0F3F"/>
<stop offset="1" stop-color="#FE0657" stop-opacity="0"/>
</radialGradient>
<radialGradient id="paint2_radial_1064_10705" cx="0" cy="0" r="1" gradientUnits="userSpaceOnUse" gradientTransform="translate(29.0108 47.9359) rotate(-59.8703) scale(13.2028 17.1886)">
<stop stop-color="#FFCC00"/>
<stop offset="1" stop-color="#FFCC00" stop-opacity="0"/>
</radialGradient>
<radialGradient id="paint3_radial_1064_10705" cx="0" cy="0" r="1" gradientUnits="userSpaceOnUse" gradientTransform="translate(13.4271 10.1288) rotate(164.274) scale(25.2742 8.61091)">
<stop stop-color="#780CFF"/>
<stop offset="1" stop-color="#820BFF" stop-opacity="0"/>
</radialGradient>
</defs>
</svg>
