<svg width="36" height="36" viewBox="0 0 36 36" fill="none" xmlns="http://www.w3.org/2000/svg">
<rect width="36" height="36" rx="18" fill="#0077B5"/>
<path d="M27.9937 26.4952C26.8124 26.467 25.6593 26.467 24.478 26.4952C24.2249 26.4952 24.1687 26.4389 24.1687 26.1858C24.1687 24.1045 24.1687 21.9952 24.1687 19.9139C24.1687 19.4358 24.1405 18.9577 23.9999 18.5077C23.578 17.0452 21.8905 16.5108 20.6812 17.4952C20.0343 18.0014 19.7812 18.7045 19.7812 19.5483C19.7812 21.517 19.7812 23.4858 19.7812 25.4545C19.7812 25.7077 19.753 25.9608 19.7812 26.242C19.8093 26.467 19.6968 26.5233 19.4999 26.4952C18.2905 26.4952 17.1093 26.4952 15.8999 26.4952C15.6749 26.4952 15.6187 26.4389 15.6187 26.2139C15.6468 24.442 15.6468 22.6702 15.6468 20.8702C15.6468 18.6764 15.6468 16.4827 15.6187 14.317C15.6187 14.0639 15.6749 14.0077 15.8999 14.0077C17.1093 14.0077 18.2905 14.0077 19.4999 14.0077C19.7249 14.0077 19.7812 14.0639 19.7812 14.2889C19.7812 14.7389 19.7812 15.1889 19.7812 15.7233C19.8655 15.6389 19.8937 15.6108 19.9218 15.5827C21.0187 13.9795 22.5655 13.5295 24.3937 13.8108C26.503 14.1483 27.853 15.6108 28.1905 17.8608C28.2749 18.3952 28.303 18.9295 28.303 19.4639C28.303 21.7139 28.303 23.9358 28.303 26.1858C28.303 26.4108 28.2468 26.4952 27.9937 26.4952Z" fill="white"/>
<path d="M13.3686 20.2516C13.3686 22.2203 13.3686 24.1891 13.3686 26.1578C13.3686 26.4109 13.3124 26.4953 13.0593 26.4953C11.878 26.4672 10.6968 26.4953 9.5155 26.4953C9.2905 26.4953 9.23425 26.4391 9.23425 26.2141C9.23425 22.2484 9.23425 18.2547 9.23425 14.2891C9.23425 14.0922 9.2905 14.0078 9.5155 14.0078C10.7249 14.0078 11.9343 14.0078 13.1436 14.0078C13.3968 14.0078 13.4249 14.0922 13.4249 14.3172C13.3686 16.2859 13.3686 18.2547 13.3686 20.2516Z" fill="white"/>
<path d="M13.5656 10.7449C13.2843 11.8699 12.1312 12.5167 10.8093 12.2917C9.40308 12.0667 8.61558 10.6886 9.12183 9.33861C9.45933 8.49486 10.275 7.98861 11.3156 8.01674C12.8906 7.98861 13.9312 9.25424 13.5656 10.7449Z" fill="white"/>
</svg>
