<svg width="25" height="24" viewBox="0 0 25 24" fill="none" xmlns="http://www.w3.org/2000/svg">
<g clip-path="url(#clip0_4234_11323)">
<path d="M5.66669 0H1.66669C1.11469 0 0.666687 0.448 0.666687 1V5C0.666687 5.552 1.11469 6 1.66669 6H5.66669C6.21869 6 6.66669 5.552 6.66669 5V1C6.66669 0.448 6.21869 0 5.66669 0Z" fill="#FF5E48"/>
<path d="M5.66669 9H1.66669C1.11469 9 0.666687 9.448 0.666687 10V14C0.666687 14.552 1.11469 15 1.66669 15H5.66669C6.21869 15 6.66669 14.552 6.66669 14V10C6.66669 9.448 6.21869 9 5.66669 9Z" fill="#FF5E48"/>
<path d="M5.66669 18H1.66669C1.11469 18 0.666687 18.448 0.666687 19V23C0.666687 23.552 1.11469 24 1.66669 24H5.66669C6.21869 24 6.66669 23.552 6.66669 23V19C6.66669 18.448 6.21869 18 5.66669 18Z" fill="#FF5E48"/>
<path d="M14.6667 0H10.6667C10.1147 0 9.66669 0.448 9.66669 1V5C9.66669 5.552 10.1147 6 10.6667 6H14.6667C15.2187 6 15.6667 5.552 15.6667 5V1C15.6667 0.448 15.2187 0 14.6667 0Z" fill="#FF5E48"/>
<path d="M14.6667 9H10.6667C10.1147 9 9.66669 9.448 9.66669 10V14C9.66669 14.552 10.1147 15 10.6667 15H14.6667C15.2187 15 15.6667 14.552 15.6667 14V10C15.6667 9.448 15.2187 9 14.6667 9Z" fill="#FF5E48"/>
<path d="M14.6667 18H10.6667C10.1147 18 9.66669 18.448 9.66669 19V23C9.66669 23.552 10.1147 24 10.6667 24H14.6667C15.2187 24 15.6667 23.552 15.6667 23V19C15.6667 18.448 15.2187 18 14.6667 18Z" fill="#FF5E48"/>
<path d="M23.6667 0H19.6667C19.1147 0 18.6667 0.448 18.6667 1V5C18.6667 5.552 19.1147 6 19.6667 6H23.6667C24.2187 6 24.6667 5.552 24.6667 5V1C24.6667 0.448 24.2187 0 23.6667 0Z" fill="#FF5E48"/>
<path d="M23.6667 9H19.6667C19.1147 9 18.6667 9.448 18.6667 10V14C18.6667 14.552 19.1147 15 19.6667 15H23.6667C24.2187 15 24.6667 14.552 24.6667 14V10C24.6667 9.448 24.2187 9 23.6667 9Z" fill="#FF5E48"/>
<path d="M23.6667 18H19.6667C19.1147 18 18.6667 18.448 18.6667 19V23C18.6667 23.552 19.1147 24 19.6667 24H23.6667C24.2187 24 24.6667 23.552 24.6667 23V19C24.6667 18.448 24.2187 18 23.6667 18Z" fill="#FF5E48"/>
</g>
<defs>
<clipPath id="clip0_4234_11323">
<rect width="24" height="24" fill="white" transform="translate(0.666687)"/>
</clipPath>
</defs>
</svg>
