<svg width="42" height="38" viewBox="0 0 42 38" fill="none" xmlns="http://www.w3.org/2000/svg">
<path d="M32.9067 0H9.09345C4.50691 0 0.775482 3.73143 0.775482 8.31797C0.775482 12.9045 4.50691 16.6359 9.09345 16.6359H15.15V23.3561L14.8543 23.108C13.3925 21.8814 11.1051 21.9811 9.75565 23.3307C8.34151 24.7448 8.4341 26.9923 9.97188 28.2826L15.1499 32.6275V36.815C15.1499 37.4694 15.6805 38 16.3349 38H30.5553C31.2098 38 31.7403 37.4694 31.7403 36.815V23.4987C31.7403 21.7088 30.4009 20.1921 28.6247 19.9709L22.2601 19.1779V16.6358H32.9067C37.4932 16.6358 41.2245 12.9044 41.2245 8.31781C41.2245 3.73127 37.4932 0 32.9067 0V0ZM17.52 35.6299V33.2599H29.3703V35.6299H17.52ZM28.3318 22.3227C28.9238 22.3965 29.3704 22.9021 29.3704 23.4987V30.8898H16.7663L11.4953 26.467C11.0274 26.0744 10.9991 25.439 11.4315 25.0064C11.9172 24.5208 12.8047 24.4821 13.3309 24.9236L15.5733 26.8052C16.3424 27.4505 17.5201 26.9031 17.5201 25.8974V10.7443C17.5201 10.0909 18.0517 9.55925 18.7051 9.55925C19.3585 9.55925 19.8901 10.0909 19.8901 10.7443V20.2245C19.8901 20.8223 20.3354 21.3265 20.9287 21.4005L28.3318 22.3227ZM32.9067 14.2658H22.2601V10.7443C22.2601 8.784 20.6653 7.18919 18.705 7.18919C16.7447 7.18919 15.1499 8.784 15.1499 10.7443V14.2658H9.09337C5.81376 14.2658 3.14554 11.5976 3.14554 8.31797C3.14554 5.03836 5.81376 2.37006 9.09345 2.37006H32.9067C36.1863 2.37006 38.8545 5.03828 38.8545 8.31797C38.8545 11.5977 36.1863 14.2658 32.9067 14.2658V14.2658Z" fill="#FF5E48"/>
<path d="M32.0045 5.08739L28.1023 8.98954L26.5701 7.45745C26.1074 6.99466 25.357 6.99466 24.8942 7.45745C24.4315 7.92025 24.4315 8.67053 24.8942 9.13332L27.2643 11.5034C27.727 11.9662 28.4774 11.9663 28.9402 11.5034L33.6803 6.76326C34.1431 6.30047 34.1431 5.55018 33.6803 5.08739C33.2176 4.62452 32.4672 4.62452 32.0045 5.08739Z" fill="#FF5E48"/>
</svg>
