<svg width="24" height="24" viewBox="0 0 24 24" fill="none" xmlns="http://www.w3.org/2000/svg">
<path d="M-0.0143433 8.72705V18.5452C-0.0138228 19.9917 0.561018 21.3788 1.58383 22.4016C2.60664 23.4244 3.99373 23.9993 5.4402 23.9998H18.5311C19.9776 23.9993 21.3647 23.4244 22.3875 22.4016C23.4103 21.3788 23.9851 19.9917 23.9857 18.5452V8.72705H-0.0143433ZM15.7929 16.2216L9.24747 19.9089C9.08549 20.0038 8.90069 20.0529 8.71293 20.0507C8.42488 20.0466 8.14977 19.9304 7.94606 19.7266C7.74236 19.5229 7.62611 19.2478 7.62202 18.9598V11.5852C7.6236 11.3954 7.67447 11.2093 7.76964 11.0451C7.86482 10.8809 8.00103 10.7443 8.16493 10.6486C8.32883 10.5529 8.51478 10.5014 8.70456 10.4992C8.89433 10.4971 9.08142 10.5442 9.24747 10.6361L15.7929 14.3234C15.9616 14.4179 16.1021 14.5556 16.1999 14.7224C16.2977 14.8893 16.3492 15.0791 16.3492 15.2725C16.3492 15.4659 16.2977 15.6557 16.1999 15.8226C16.1021 15.9894 15.9616 16.1271 15.7929 16.2216Z" fill="#282C3F"/>
<path d="M6.65112 6.54536H-0.0143393V5.45445C-0.0154319 4.5465 0.210559 3.65268 0.643065 2.85435C1.07557 2.05603 1.70086 1.37854 2.46202 0.883545L3.76021 2.65082L6.65112 6.54536Z" fill="#282C3F"/>
<path d="M16.4802 6.54533H9.36747L6.13838 2.1817L4.56747 0.0762438C4.85532 0.0233062 5.14753 -0.00226241 5.4402 -0.000119881H11.6802L13.2729 2.1817L16.4802 6.54533Z" fill="#282C3F"/>
<path d="M23.9856 5.45455V6.54545H19.1856L15.9675 2.18182L14.3638 0H18.5311C19.9776 0.00052045 21.3647 0.575361 22.3875 1.59817C23.4103 2.62099 23.9851 4.00807 23.9856 5.45455Z" fill="#282C3F"/>
</svg>
