<svg width="38" height="38" viewBox="0 0 38 38" fill="none" xmlns="http://www.w3.org/2000/svg">
<path d="M34.6602 8.90625H30.1298C30.8302 7.97525 31.2461 6.81855 31.2461 5.56641C31.2461 2.49709 28.749 0 25.6797 0C23.8308 0 22.4675 0.662402 21.3892 2.08458C20.487 3.27446 19.8274 4.93577 19 7.03482C18.1726 4.9357 17.513 3.27446 16.6108 2.08458C15.5325 0.662402 14.1692 0 12.3203 0C9.251 0 6.75391 2.49709 6.75391 5.56641C6.75391 6.81855 7.16975 7.97525 7.87023 8.90625H3.33984C1.49825 8.90625 0 10.4045 0 12.2461V14.4727C0 15.924 0.930777 17.1615 2.22656 17.621V34.6602C2.22656 36.5017 3.72482 38 5.56641 38H32.4336C34.2752 38 35.7734 36.5017 35.7734 34.6602V17.621C37.0692 17.1615 38 15.924 38 14.4727V12.2461C38 10.4045 36.5017 8.90625 34.6602 8.90625ZM21.0435 7.92211C22.749 3.5953 23.3974 2.22656 25.6797 2.22656C27.5213 2.22656 29.0195 3.72482 29.0195 5.56641C29.0195 7.408 27.5213 8.90625 25.6797 8.90625H20.6541C20.7905 8.56373 20.9206 8.23398 21.0435 7.92211ZM12.3203 2.22656C14.6026 2.22656 15.251 3.5953 16.9565 7.92211C17.0794 8.23398 17.2095 8.56373 17.3459 8.90625H12.3203C10.4787 8.90625 8.98047 7.408 8.98047 5.56641C8.98047 3.72482 10.4787 2.22656 12.3203 2.22656ZM14.5469 35.7734H5.56641C4.95254 35.7734 4.45312 35.274 4.45312 34.6602V17.8125H14.5469V35.7734ZM14.5469 15.5859H3.33984C2.72598 15.5859 2.22656 15.0865 2.22656 14.4727V12.2461C2.22656 11.6322 2.72598 11.1328 3.33984 11.1328H14.5469V15.5859ZM21.2266 35.7734H16.7734V11.1328C17.0067 11.1328 19.947 11.1328 21.2266 11.1328V35.7734ZM33.5469 34.6602C33.5469 35.274 33.0475 35.7734 32.4336 35.7734H23.4531V17.8125H33.5469V34.6602ZM35.7734 14.4727C35.7734 15.0865 35.274 15.5859 34.6602 15.5859H23.4531V11.1328H34.6602C35.274 11.1328 35.7734 11.6322 35.7734 12.2461V14.4727Z" fill="#FF5E48"/>
</svg>
