<svg width="36" height="36" viewBox="0 0 36 36" fill="none" xmlns="http://www.w3.org/2000/svg">
<rect width="36" height="36" rx="18" fill="#1DA1F2"/>
<path d="M26.822 14.1094C26.822 14.3062 26.822 14.5031 26.822 14.6719C26.822 20.4937 22.3782 27.2156 14.2782 27.2156C11.7751 27.2156 9.46887 26.4844 7.50012 25.2469C7.83762 25.275 8.20325 25.3031 8.54075 25.3031C10.5939 25.3031 12.5064 24.6 14.0251 23.4187C12.0845 23.3906 10.4532 22.0969 9.91887 20.3531C10.2001 20.4094 10.4532 20.4375 10.7626 20.4375C11.1564 20.4375 11.5501 20.3812 11.9157 20.2687C9.89075 19.875 8.372 18.1031 8.372 15.9656C8.372 15.9375 8.372 15.9375 8.372 15.9094C8.96262 16.2469 9.63762 16.4437 10.3689 16.4719C9.18762 15.6844 8.40012 14.3344 8.40012 12.7875C8.40012 11.9719 8.62512 11.2125 8.99075 10.5656C11.1564 13.2375 14.4189 14.9812 18.0751 15.1781C17.9907 14.8687 17.9626 14.5031 17.9626 14.1656C17.9626 11.7187 19.9314 9.75 22.3782 9.75C23.6439 9.75 24.797 10.2844 25.5845 11.1281C26.597 10.9312 27.5251 10.5656 28.397 10.0594C28.0595 11.1 27.3564 11.9437 26.4564 12.5062C27.3564 12.3937 28.2001 12.1687 28.9876 11.8031C28.4251 12.7031 27.6939 13.4906 26.822 14.1094Z" fill="white"/>
</svg>
