<svg width="109" height="72" viewBox="0 0 109 72" fill="none" xmlns="http://www.w3.org/2000/svg">
<path d="M44.6304 17.2918C45.4379 20.2287 45.8493 23.3064 45.8493 26.4407C45.8493 30.0747 45.5616 33.4805 44.9985 36.5691C44.4331 39.6546 43.6558 41.7644 42.6859 44.2844C41.7144 46.8097 40.565 49.0743 39.2734 51.0116C37.9786 52.9559 36.5825 54.6101 35.126 55.9253C33.6572 57.2538 32.1196 58.2712 30.5595 58.9482C28.9793 59.6321 27.4239 59.981 25.935 59.981C24.047 59.981 22.4057 59.6754 21.0606 59.0774C19.6877 58.4638 18.5616 57.5524 17.7154 56.3625C16.8901 55.2035 16.2837 53.7667 15.9155 52.0971C15.5574 50.4762 15.3757 48.607 15.3757 46.5466V17.2802C15.3757 16.4446 15.3053 16.0987 15.262 15.9649C15.1405 15.5811 15.0779 15.2098 15.0779 14.8585C15.0779 14.197 15.4213 13.626 16.0447 13.2554C16.5598 12.9498 17.1655 12.7958 17.8469 12.7958C19.2909 12.7958 20.4898 13.1873 21.4087 13.9626C22.3678 14.768 22.8527 15.7606 22.8527 16.9096V46.9211C22.8527 48.8832 23.1482 50.3602 23.7314 51.3172C24.2465 52.1629 25.1151 52.5745 26.382 52.5745C27.2027 52.5745 28.0581 52.299 28.9267 51.759C29.8433 51.1834 30.7591 50.3424 31.6478 49.2569C32.5512 48.1505 33.4051 46.7927 34.1824 45.2213C34.9675 43.6406 35.6744 41.8449 36.28 39.8906C36.8888 37.9385 37.3683 35.79 37.7086 33.4991C38.0497 31.2113 38.2238 28.7896 38.2238 26.3022C38.2238 23.8148 37.9484 21.431 37.4054 19.2144C36.8702 17.0303 36.0325 15.1007 34.9087 13.4821C33.8026 11.8837 32.3717 10.6032 30.6601 9.66934C28.9538 8.74246 26.8763 8.2705 24.4801 8.2705C22.4528 8.2705 20.6429 8.50029 19.103 8.94981C17.5754 9.397 16.2404 10.0183 15.1343 10.7982C14.026 11.5788 13.0847 12.5049 12.3298 13.551C11.5648 14.6094 10.9437 15.7606 10.4866 16.9722C10.0225 18.1947 9.69148 19.4821 9.50198 20.8005C9.31016 22.1366 9.21193 23.472 9.21193 24.7749C9.21193 26.5428 9.39602 28.1312 9.76187 29.4999C10.1331 30.8886 10.557 32.0809 11.0187 33.0403C11.4759 33.9919 11.9098 34.7292 12.3066 35.2267C12.5208 35.4944 12.6701 35.6809 12.7761 35.8101C13.4327 35.7722 13.7962 36.0902 13.9703 36.3122C14.2503 36.6735 14.3918 37.13 14.3918 37.6732C14.3918 38.2643 14.2681 38.8778 14.0206 39.4991C13.7831 40.1025 13.4629 40.6581 13.0715 41.1478C12.6724 41.6453 12.2207 42.0615 11.721 42.3904C11.1634 42.7563 10.5771 42.9436 9.98153 42.9436C9.71623 42.9436 9.45635 42.908 9.20652 42.8422C8.94122 42.7718 8.6736 42.6379 8.4114 42.4461C8.29538 42.3726 8.14146 42.2341 7.72224 41.7969C7.3765 41.4387 6.95729 40.9335 6.4731 40.2944C5.9835 39.653 5.45832 38.8422 4.90761 37.8828C4.3569 36.9203 3.83714 35.7969 3.36532 34.5498C2.89583 33.3026 2.50214 31.8805 2.1943 30.3277C1.88878 28.7695 1.73486 27.0527 1.73486 25.2221C1.73486 21.6941 2.28248 18.4012 3.363 15.4372C4.44817 12.4601 6.01366 9.86431 8.01306 7.72273C10.0148 5.57883 12.4613 3.88676 15.2782 2.6976C18.0928 1.50534 21.2633 0.901855 24.7044 0.901855C28.3644 0.901855 31.5735 1.61675 34.2443 3.02332C36.905 4.42448 39.1241 6.31074 40.8358 8.6295C42.5374 10.9297 43.812 14.3332 44.6304 17.2925V17.2918Z" fill="url(#paint0_linear_5632_39058)"/>
<path d="M74.0597 43.1369C73.55 42.5366 72.932 42.135 72.2227 41.9455C71.4756 41.7458 70.7392 41.8371 70.0323 42.2132C69.2929 42.6093 68.8056 43.3543 68.5836 44.4344C68.3693 45.5524 68.0437 46.6735 67.6168 47.7667C67.2006 48.8344 66.643 49.8085 65.9592 50.6642C65.2979 51.4975 64.4703 52.176 63.4988 52.6835C62.5452 53.181 61.3718 53.4356 60.0136 53.4356C59.1048 53.4356 58.3004 53.3218 57.6213 53.0998C56.9453 52.8777 56.3466 52.5775 55.8423 52.2038C55.3403 51.8325 54.901 51.3837 54.5406 50.8685C54.3263 50.5628 54.1345 50.2449 53.9674 49.9191C55.5569 49.3636 56.9956 48.6062 58.2524 47.6599C59.7081 46.5621 60.9549 45.3048 61.9496 43.9191C62.9489 42.5311 63.7108 41.0387 64.2158 39.4812C64.7232 37.9215 64.98 36.3764 64.98 34.8871C64.98 33.67 64.8106 32.5373 64.478 31.5199C64.1346 30.4824 63.6272 29.5741 62.969 28.8167C62.3 28.0515 61.4778 27.4534 60.521 27.0372C59.572 26.6256 58.4999 26.4159 57.3312 26.4159C55.7286 26.4159 54.1539 26.8855 52.6502 27.814C51.1791 28.7176 49.8542 29.9849 48.7064 31.5749C47.5732 33.1447 46.6474 35.0279 45.9559 37.1687C45.2644 39.3095 44.9141 41.6515 44.9141 44.128C44.9141 46.6046 45.3155 48.8483 46.1052 50.8042C46.8949 52.7632 47.9654 54.439 49.2849 55.7822C50.6021 57.1276 52.139 58.1752 53.8522 58.8947C55.5654 59.6143 57.3622 59.9802 59.1945 59.9802C61.1274 59.9802 62.8739 59.728 64.3852 59.2328C65.8919 58.7408 67.2269 58.077 68.3546 57.2638C69.4823 56.4537 70.4469 55.5145 71.2188 54.477C71.9806 53.4572 72.6164 52.4019 73.106 51.342C73.5979 50.282 73.9715 49.2189 74.219 48.1791C74.4588 47.1694 74.6328 46.3996 74.7365 45.5895C74.8347 44.706 74.6081 43.7845 74.0605 43.1354L74.0597 43.1369ZM52.6889 44.0507C52.6866 44.0027 52.6866 43.9547 52.6866 43.9068V43.8689C52.6611 43.3768 52.6742 42.7455 52.7222 41.9981C52.7701 41.246 52.8684 40.4383 53.0122 39.6004C53.1561 38.7524 53.3456 37.9068 53.5722 37.0812C53.7919 36.2836 54.0719 35.5563 54.4052 34.9234C54.7208 34.3277 55.089 33.8433 55.5005 33.4843C55.8462 33.1811 56.2244 33.0348 56.6614 33.0348C56.8277 33.0348 57.0048 33.0774 57.1866 33.3784C57.3985 33.7288 57.5068 34.2619 57.5068 34.9636C57.5068 36.029 57.3653 37.0712 57.0876 38.0561C56.8099 39.0379 56.4116 39.9594 55.9042 40.7926C55.3968 41.6205 54.7788 42.3656 54.0672 43.0093C53.638 43.3954 53.1793 43.7435 52.6897 44.0514L52.6889 44.0507Z" fill="url(#paint1_linear_5632_39058)"/>
<path d="M92.2733 22.8817C92.2176 23.4797 92.1093 24.0608 91.9477 24.6109C91.776 25.1965 91.5339 25.7165 91.2284 26.1559C90.7163 26.8832 90.1308 27.0372 89.7317 27.0372C86.6881 27.113 83.9578 27.1555 81.6312 27.1687C79.638 27.1787 77.6843 27.1842 75.8094 27.1865V50.6162C75.8094 51.6514 75.9888 52.4081 76.3315 52.805C76.6594 53.1864 77.081 53.3628 77.6587 53.3628C78.2365 53.3628 78.7083 53.1632 79.1221 52.757C79.6164 52.275 80.0557 51.6537 80.427 50.9118C80.8129 50.1396 81.1331 49.2909 81.3806 48.3849C81.6359 47.4534 81.8501 46.5597 82.0218 45.7296C82.1982 44.7903 82.506 44.0963 82.9631 43.6244C83.4574 43.1122 84.005 42.8522 84.5882 42.8522C85.0198 42.8522 85.4614 42.9807 85.8977 43.2337C86.2937 43.4634 86.6526 43.759 86.965 44.1195C87.2752 44.4731 87.5304 44.877 87.7223 45.3211C87.9265 45.7884 88.0278 46.265 88.0278 46.74V46.9265C88.0278 47.0828 87.9945 47.2522 87.9241 47.4743C87.5939 48.764 87.1391 50.1296 86.5768 51.5331C85.9967 52.9768 85.2371 54.3276 84.3182 55.5439C83.3847 56.7779 82.2593 57.8185 80.9699 58.6363C79.6349 59.4797 78.0578 59.9083 76.2812 59.9083C75.1813 59.9083 74.1464 59.7365 73.2105 59.3961C72.2391 59.0456 71.3914 58.4746 70.6921 57.7025C70.0007 56.945 69.4585 55.9686 69.0795 54.8019C68.7082 53.6638 68.5195 52.2804 68.5195 50.6897V27.1842C67.9595 27.1818 67.4622 27.1764 67.0081 27.1687C66.3468 27.1563 65.7791 27.1362 65.3228 27.1107C64.8131 27.0882 64.359 27.0627 63.963 27.0372C63.1478 27.0294 62.4316 26.6712 61.8306 25.9718C61.3008 25.3582 60.9249 24.6666 60.7075 23.9169C60.4855 23.1447 60.4577 22.4151 60.6263 21.7513C60.8506 20.8801 61.4895 20.3803 62.3852 20.3803L62.4509 20.3826C63.0086 20.4306 63.6343 20.4685 64.3111 20.4909L64.349 20.4933C64.9244 20.5412 65.6337 20.5714 66.4559 20.5838C67.0894 20.5939 67.7785 20.6062 68.5203 20.6217V8.46544C68.5203 7.87202 68.4646 7.53392 68.4166 7.35751C68.323 7.00935 68.2472 6.81748 68.1993 6.71612C68.1212 6.54978 68.0631 6.45848 68.0276 6.41283C67.8381 6.17299 67.7375 5.8875 67.7375 5.59504C67.7375 5.19117 67.9371 4.83527 68.2975 4.59311C68.5149 4.4492 68.7747 4.33315 69.0973 4.23721C69.3796 4.15133 69.6905 4.08557 70.0154 4.04301C70.3333 4.00278 70.6488 3.98267 70.9544 3.98267C72.4054 3.98267 73.5864 4.3788 74.4566 5.16409C75.3546 5.96951 75.8094 6.95365 75.8094 8.09252V20.7138C77.9217 20.7084 80.1446 20.6859 82.431 20.6403C84.9215 20.5923 87.4423 20.5087 89.9305 20.3927C90.564 19.8349 91.0783 19.8851 91.4117 20.0422C91.7218 20.1884 92.1155 20.5242 92.247 21.3095C92.3205 21.7536 92.3282 22.2658 92.2725 22.8824L92.2733 22.8817Z" fill="url(#paint2_linear_5632_39058)"/>
<path d="M106.14 22.8817C106.084 23.4797 105.976 24.0608 105.814 24.6109C105.643 25.1965 105.401 25.7165 105.095 26.1559C104.583 26.8832 103.998 27.0372 103.598 27.0372C100.555 27.113 97.8245 27.1555 95.4979 27.1687C93.5047 27.1787 91.551 27.1842 89.6761 27.1865V50.6162C89.6761 51.6514 89.8555 52.4081 90.1982 52.805C90.5261 53.1864 90.9477 53.3628 91.5254 53.3628C92.1032 53.3628 92.575 53.1632 92.9888 52.757C93.4831 52.275 93.9224 51.6537 94.2937 50.9118C94.6796 50.1396 94.9998 49.2909 95.2473 48.3849C95.5026 47.4534 95.7168 46.5597 95.8885 45.7296C96.0649 44.7903 96.3727 44.0963 96.8298 43.6244C97.3241 43.1122 97.8717 42.8522 98.4549 42.8522C98.8865 42.8522 99.3281 42.9807 99.7644 43.2337C100.16 43.4634 100.519 43.759 100.832 44.1195C101.142 44.4731 101.397 44.877 101.589 45.3211C101.793 45.7884 101.894 46.265 101.894 46.74V46.9265C101.894 47.0828 101.861 47.2522 101.791 47.4743C101.461 48.764 101.006 50.1296 100.443 51.5331C99.8634 52.9768 99.1038 54.3276 98.185 55.5439C97.2514 56.7779 96.126 57.8185 94.8366 58.6363C93.5016 59.4797 91.9245 59.9083 90.1479 59.9083C89.048 59.9083 88.0131 59.7365 87.0772 59.3961C86.1058 59.0456 85.2581 58.4746 84.5588 57.7025C83.8674 56.945 83.3252 55.9686 82.9462 54.8019C82.5749 53.6638 82.3862 52.2804 82.3862 50.6897V27.1842C81.8262 27.1818 81.3289 27.1764 80.8748 27.1687C80.2135 27.1563 79.6458 27.1362 79.1895 27.1107C78.6798 27.0882 78.2257 27.0627 77.8297 27.0372C77.0145 27.0294 76.2983 26.6712 75.6973 25.9718C75.1675 25.3582 74.7916 24.6666 74.5742 23.9169C74.3522 23.1447 74.3244 22.4151 74.493 21.7513C74.7173 20.8801 75.3562 20.3803 76.2519 20.3803L76.3176 20.3826C76.8753 20.4306 77.501 20.4685 78.1778 20.4909L78.2157 20.4933C78.7911 20.5412 79.5004 20.5714 80.3226 20.5838C80.9561 20.5939 81.6452 20.6062 82.387 20.6217V8.46544C82.387 7.87202 82.3313 7.53392 82.2833 7.35751C82.1897 7.00935 82.1139 6.81748 82.066 6.71612C81.9879 6.54978 81.9299 6.45848 81.8943 6.41283C81.7048 6.17299 81.6042 5.8875 81.6042 5.59504C81.6042 5.19117 81.8038 4.83527 82.1642 4.59311C82.3816 4.4492 82.6414 4.33315 82.964 4.23721C83.2463 4.15133 83.5572 4.08557 83.8821 4.04301C84.2 4.00278 84.5155 3.98267 84.8211 3.98267C86.2721 3.98267 87.4531 4.3788 88.3233 5.16409C89.2213 5.96951 89.6761 6.95365 89.6761 8.09252V20.7138C91.7884 20.7084 94.0113 20.6859 96.2977 20.6403C98.7882 20.5923 101.309 20.5087 103.797 20.3927C104.431 19.8349 104.945 19.8851 105.278 20.0422C105.589 20.1884 105.982 20.5242 106.114 21.3095C106.187 21.7536 106.195 22.2658 106.139 22.8824L106.14 22.8817Z" fill="url(#paint3_linear_5632_39058)"/>
<path d="M35.7614 70L34.1705 64.1818H34.8864L36.1023 68.9205H36.1591L37.3977 64.1818H38.1932L39.4318 68.9205H39.4886L40.7045 64.1818H41.4205L39.8295 70H39.1023L37.8182 65.3636H37.7727L36.4886 70H35.7614ZM43.6307 70.0909C43.2102 70.0909 42.8475 69.9981 42.5426 69.8125C42.2396 69.625 42.0057 69.3636 41.8409 69.0284C41.678 68.6913 41.5966 68.2992 41.5966 67.8523C41.5966 67.4053 41.678 67.0114 41.8409 66.6705C42.0057 66.3277 42.2348 66.0606 42.5284 65.8693C42.8239 65.6761 43.1686 65.5795 43.5625 65.5795C43.7898 65.5795 44.0142 65.6174 44.2358 65.6932C44.4574 65.7689 44.6591 65.892 44.8409 66.0625C45.0227 66.2311 45.1676 66.4545 45.2756 66.733C45.3835 67.0114 45.4375 67.3542 45.4375 67.7614V68.0455H42.0739V67.4659H44.7557C44.7557 67.2197 44.7064 67 44.608 66.8068C44.5114 66.6136 44.3731 66.4612 44.1932 66.3494C44.0152 66.2377 43.8049 66.1818 43.5625 66.1818C43.2955 66.1818 43.0644 66.2481 42.8693 66.3807C42.6761 66.5114 42.5275 66.6818 42.4233 66.892C42.3191 67.1023 42.267 67.3277 42.267 67.5682V67.9545C42.267 68.2841 42.3239 68.5634 42.4375 68.7926C42.553 69.0199 42.7131 69.1932 42.9176 69.3125C43.1222 69.4299 43.3598 69.4886 43.6307 69.4886C43.8068 69.4886 43.9659 69.464 44.108 69.4148C44.2519 69.3636 44.3759 69.2879 44.4801 69.1875C44.5843 69.0852 44.6648 68.9583 44.7216 68.8068L45.3693 68.9886C45.3011 69.2083 45.1866 69.4015 45.0256 69.5682C44.8646 69.733 44.6657 69.8617 44.429 69.9545C44.1922 70.0455 43.9261 70.0909 43.6307 70.0909ZM50.4688 71.7273C50.1449 71.7273 49.8665 71.6856 49.6335 71.6023C49.4006 71.5208 49.2064 71.4129 49.0511 71.2784C48.8977 71.1458 48.7756 71.0038 48.6847 70.8523L49.2188 70.4773C49.2794 70.5568 49.3561 70.6477 49.4489 70.75C49.5417 70.8542 49.6686 70.9441 49.8295 71.0199C49.9924 71.0975 50.2055 71.1364 50.4688 71.1364C50.821 71.1364 51.1117 71.0511 51.3409 70.8807C51.5701 70.7102 51.6847 70.4432 51.6847 70.0795V69.1932H51.6278C51.5786 69.2727 51.5085 69.3712 51.4176 69.4886C51.3286 69.6042 51.1998 69.7074 51.0312 69.7983C50.8646 69.8873 50.6392 69.9318 50.3551 69.9318C50.0028 69.9318 49.6866 69.8485 49.4062 69.6818C49.1278 69.5152 48.9072 69.2727 48.7443 68.9545C48.5833 68.6364 48.5028 68.25 48.5028 67.7955C48.5028 67.3485 48.5814 66.9593 48.7386 66.6278C48.8958 66.2945 49.1146 66.0369 49.3949 65.8551C49.6752 65.6714 49.9991 65.5795 50.3665 65.5795C50.6506 65.5795 50.8759 65.6269 51.0426 65.7216C51.2112 65.8144 51.34 65.9205 51.429 66.0398C51.5199 66.1572 51.59 66.2538 51.6392 66.3295H51.7074V65.6364H52.3551V70.125C52.3551 70.5 52.2699 70.8049 52.0994 71.0398C51.9309 71.2765 51.7036 71.4498 51.4176 71.5597C51.1335 71.6714 50.8172 71.7273 50.4688 71.7273ZM50.446 69.3295C50.715 69.3295 50.9422 69.268 51.1278 69.1449C51.3134 69.0218 51.4545 68.8447 51.5511 68.6136C51.6477 68.3826 51.696 68.1061 51.696 67.7841C51.696 67.4697 51.6487 67.1922 51.554 66.9517C51.4593 66.7112 51.3191 66.5227 51.1335 66.3864C50.9479 66.25 50.7188 66.1818 50.446 66.1818C50.1619 66.1818 49.9252 66.2538 49.7358 66.3977C49.5483 66.5417 49.4072 66.7348 49.3125 66.9773C49.2197 67.2197 49.1733 67.4886 49.1733 67.7841C49.1733 68.0871 49.2206 68.3551 49.3153 68.5881C49.4119 68.8191 49.554 69.0009 49.7415 69.1335C49.9309 69.2642 50.1657 69.3295 50.446 69.3295ZM53.5824 70V65.6364H54.2528V70H53.5824ZM53.9233 64.9091C53.7926 64.9091 53.6799 64.8646 53.5852 64.7756C53.4924 64.6866 53.446 64.5795 53.446 64.4545C53.446 64.3295 53.4924 64.2225 53.5852 64.1335C53.6799 64.0445 53.7926 64 53.9233 64C54.054 64 54.1657 64.0445 54.2585 64.1335C54.3532 64.2225 54.4006 64.3295 54.4006 64.4545C54.4006 64.5795 54.3532 64.6866 54.2585 64.7756C54.1657 64.8646 54.054 64.9091 53.9233 64.9091ZM57.424 65.6364V66.2045H55.0717V65.6364H57.424ZM55.7763 70V65.0341C55.7763 64.7841 55.835 64.5758 55.9524 64.4091C56.0698 64.2424 56.2223 64.1174 56.4098 64.0341C56.5973 63.9508 56.7952 63.9091 57.0036 63.9091C57.1683 63.9091 57.3028 63.9223 57.407 63.9489C57.5111 63.9754 57.5888 64 57.6399 64.0227L57.4467 64.6023C57.4126 64.5909 57.3653 64.5767 57.3047 64.5597C57.246 64.5426 57.1683 64.5341 57.0717 64.5341C56.8501 64.5341 56.6901 64.59 56.5916 64.7017C56.495 64.8134 56.4467 64.9773 56.4467 65.1932V70H55.7763ZM60.2614 65.6364V66.2045H58V65.6364H60.2614ZM58.6591 64.5909H59.3295V68.75C59.3295 68.9394 59.357 69.0814 59.4119 69.1761C59.4688 69.2689 59.5407 69.3314 59.6278 69.3636C59.7169 69.3939 59.8106 69.4091 59.9091 69.4091C59.983 69.4091 60.0436 69.4053 60.0909 69.3977C60.1383 69.3883 60.1761 69.3807 60.2045 69.375L60.3409 69.9773C60.2955 69.9943 60.232 70.0114 60.1506 70.0284C60.0691 70.0473 59.9659 70.0568 59.8409 70.0568C59.6515 70.0568 59.4659 70.0161 59.2841 69.9347C59.1042 69.8532 58.9545 69.7292 58.8352 69.5625C58.7178 69.3958 58.6591 69.1856 58.6591 68.9318V64.5909Z" fill="#4E4E4E"/>
<path d="M67.9721 70.1992L66.0895 64.7756H66.0539C66.1042 65.581 66.1297 66.3362 66.1297 67.041V70.1992H65.166V63.7048H66.6627L68.4656 68.8708H68.4919L70.3482 63.7048H71.8495V70.1992H70.8278V66.9876C70.8278 66.665 70.8363 66.2441 70.8525 65.7257C70.8688 65.2073 70.8827 64.894 70.8943 64.7841H70.8587L68.9088 70.1992H67.9714H67.9721Z" fill="url(#paint4_linear_5632_39058)"/>
<path d="M77.8046 67.7342C77.8046 68.5366 77.5988 69.1633 77.1873 69.6135C76.7759 70.0638 76.2027 70.289 75.4687 70.289C75.01 70.289 74.604 70.1853 74.252 69.978C73.8993 69.7706 73.6286 69.4727 73.4391 69.0851C73.2496 68.6975 73.1553 68.2472 73.1553 67.735C73.1553 66.9381 73.3595 66.3168 73.7679 65.8696C74.1762 65.4225 74.7525 65.1989 75.495 65.1989C76.2375 65.1989 76.7681 65.4279 77.1827 65.8851C77.5973 66.3424 77.8046 66.9598 77.8046 67.735V67.7342ZM74.2296 67.7342C74.2296 68.8685 74.6488 69.4356 75.4865 69.4356C76.3241 69.4356 76.7302 68.8685 76.7302 67.7342C76.7302 66.6 76.3125 66.0507 75.478 66.0507C75.0394 66.0507 74.7223 66.1961 74.5251 66.4863C74.3278 66.7764 74.2296 67.1927 74.2296 67.7342Z" fill="url(#paint5_linear_5632_39058)"/>
<path d="M83.1422 70.1991H82.0942V67.1694C82.0942 66.7934 82.023 66.5125 81.8807 66.3276C81.7384 66.1427 81.5164 66.0498 81.2147 66.0498C80.8118 66.0498 80.5171 66.1806 80.3291 66.4429C80.1412 66.7051 80.0468 67.1407 80.0468 67.7512V70.1991H79.0034V65.2862H79.8202L79.9664 65.9307H80.0197C80.1559 65.697 80.3539 65.516 80.613 65.3891C80.8721 65.2614 81.1567 65.198 81.4677 65.198C82.2226 65.198 82.723 65.4556 82.969 65.9709H83.0401C83.1855 65.728 83.3897 65.5384 83.6527 65.4023C83.9165 65.2661 84.2181 65.198 84.5584 65.198C85.1447 65.198 85.5717 65.3458 85.8393 65.6421C86.1069 65.9384 86.2415 66.3903 86.2415 66.9968V70.1999H85.1981V67.1701C85.1981 66.7941 85.1261 66.5133 84.9823 66.3284C84.8384 66.1434 84.6157 66.0506 84.314 66.0506C83.9079 66.0506 83.6117 66.1775 83.4238 66.4305C83.2358 66.6835 83.1414 67.0727 83.1414 67.5964V70.1999L83.1422 70.1991Z" fill="url(#paint6_linear_5632_39058)"/>
<path d="M89.8432 70.2882C89.079 70.2882 88.4819 70.0653 88.0511 69.6197C87.6203 69.174 87.4053 68.5605 87.4053 67.7783C87.4053 66.9961 87.6048 66.3447 88.0047 65.8859C88.4046 65.4271 88.9537 65.1973 89.6522 65.1973C90.3003 65.1973 90.8124 65.3946 91.189 65.7884C91.565 66.1822 91.7529 66.7245 91.7529 67.4139V67.9779H88.4804C88.4951 68.4545 88.6242 68.8212 88.8671 69.0773C89.11 69.3334 89.4518 69.4619 89.8927 69.4619C90.1828 69.4619 90.4527 69.4348 90.7033 69.3799C90.9531 69.3249 91.2223 69.2344 91.5093 69.1067V69.9555C91.2548 70.0769 90.9972 70.1628 90.7366 70.2131C90.4759 70.2634 90.1781 70.2889 89.844 70.2889L89.8432 70.2882ZM89.6522 65.988C89.3204 65.988 89.0551 66.0932 88.8547 66.3037C88.6552 66.5141 88.5361 66.8205 88.4974 67.2236H90.7265C90.7203 66.8182 90.6229 66.5102 90.4334 66.3021C90.2439 66.0932 89.9832 65.9888 89.6514 65.9888L89.6522 65.988Z" fill="url(#paint7_linear_5632_39058)"/>
<path d="M97.2603 70.1991H96.2123V67.1786C96.2123 66.7995 96.1357 66.5171 95.9833 66.3299C95.8309 66.1435 95.5889 66.0498 95.257 66.0498C94.8162 66.0498 94.4929 66.1798 94.2887 66.4406C94.0845 66.7013 93.9824 67.1376 93.9824 67.7512V70.1991H92.939V65.2862H93.7557L93.9019 65.9307H93.9553C94.103 65.697 94.3134 65.516 94.5857 65.3891C94.8579 65.2614 95.1604 65.198 95.4914 65.198C96.6694 65.198 97.2588 65.7976 97.2588 66.9968V70.1999L97.2603 70.1991Z" fill="url(#paint8_linear_5632_39058)"/>
<path d="M100.542 69.4441C100.796 69.4441 101.051 69.4039 101.306 69.3242V70.1103C101.191 70.1606 101.042 70.2031 100.86 70.2372C100.678 70.2712 100.489 70.2882 100.294 70.2882C99.3045 70.2882 98.8102 69.7668 98.8102 68.7246V66.077H98.1396V65.6151L98.859 65.2329L99.214 64.1938H99.8583V65.2863H101.257V66.077H99.8583V68.7068C99.8583 68.9582 99.9209 69.1447 100.047 69.2646C100.173 69.3846 100.338 69.4449 100.542 69.4449V69.4441Z" fill="url(#paint9_linear_5632_39058)"/>
<path d="M105.586 68.7996C105.586 69.2793 105.411 69.6476 105.062 69.9036C104.712 70.1597 104.212 70.2882 103.56 70.2882C102.909 70.2882 102.381 70.1891 101.984 69.9903V69.0882C102.561 69.3543 103.099 69.4882 103.596 69.4882C104.239 69.4882 104.56 69.294 104.56 68.9064C104.56 68.7818 104.524 68.6781 104.453 68.5953C104.382 68.5125 104.265 68.4267 104.102 68.3377C103.939 68.2487 103.713 68.1481 103.422 68.0359C102.857 67.817 102.474 67.5973 102.274 67.3783C102.075 67.1594 101.974 66.8746 101.974 66.5257C101.974 66.1056 102.144 65.7791 102.482 65.5462C102.821 65.3141 103.282 65.1973 103.865 65.1973C104.448 65.1973 104.989 65.3141 105.504 65.5485L105.167 66.3346C104.637 66.1156 104.192 66.0058 103.83 66.0058C103.28 66.0058 103.004 66.1628 103.004 66.477C103.004 66.6309 103.076 66.7609 103.219 66.8677C103.362 66.9744 103.676 67.1207 104.158 67.3071C104.564 67.4642 104.858 67.6073 105.042 67.7381C105.226 67.8681 105.362 68.0189 105.451 68.1891C105.54 68.3594 105.584 68.5628 105.584 68.7996H105.586Z" fill="url(#paint10_linear_5632_39058)"/>
<defs>
<linearGradient id="paint0_linear_5632_39058" x1="1.73564" y1="30.4414" x2="45.8493" y2="30.4414" gradientUnits="userSpaceOnUse">
<stop stop-color="#EC4824"/>
<stop offset="1" stop-color="#F16722"/>
</linearGradient>
<linearGradient id="paint1_linear_5632_39058" x1="44.9141" y1="43.1988" x2="74.7581" y2="43.1988" gradientUnits="userSpaceOnUse">
<stop stop-color="#EC4824"/>
<stop offset="1" stop-color="#F16722"/>
</linearGradient>
<linearGradient id="paint2_linear_5632_39058" x1="60.518" y1="31.9447" x2="92.3097" y2="31.9447" gradientUnits="userSpaceOnUse">
<stop stop-color="#EC4824"/>
<stop offset="0.87" stop-color="#F16A22"/>
</linearGradient>
<linearGradient id="paint3_linear_5632_39058" x1="74.3847" y1="31.9447" x2="106.176" y2="31.9447" gradientUnits="userSpaceOnUse">
<stop stop-color="#EC4824"/>
<stop offset="1" stop-color="#F16722"/>
</linearGradient>
<linearGradient id="paint4_linear_5632_39058" x1="65.166" y1="66.9961" x2="105.586" y2="66.9961" gradientUnits="userSpaceOnUse">
<stop stop-color="#EE4E24"/>
<stop offset="0.03" stop-color="#EE5123"/>
<stop offset="0.19" stop-color="#EE5D23"/>
<stop offset="0.4" stop-color="#EE6423"/>
<stop offset="1" stop-color="#EE6623"/>
</linearGradient>
<linearGradient id="paint5_linear_5632_39058" x1="65.1662" y1="66.9961" x2="105.587" y2="66.9961" gradientUnits="userSpaceOnUse">
<stop stop-color="#EE4E24"/>
<stop offset="0.03" stop-color="#EE5123"/>
<stop offset="0.19" stop-color="#EE5D23"/>
<stop offset="0.4" stop-color="#EE6423"/>
<stop offset="1" stop-color="#EE6623"/>
</linearGradient>
<linearGradient id="paint6_linear_5632_39058" x1="65.1662" y1="66.9961" x2="105.587" y2="66.9961" gradientUnits="userSpaceOnUse">
<stop stop-color="#EE4E24"/>
<stop offset="0.03" stop-color="#EE5123"/>
<stop offset="0.19" stop-color="#EE5D23"/>
<stop offset="0.4" stop-color="#EE6423"/>
<stop offset="1" stop-color="#EE6623"/>
</linearGradient>
<linearGradient id="paint7_linear_5632_39058" x1="65.1659" y1="66.9961" x2="105.586" y2="66.9961" gradientUnits="userSpaceOnUse">
<stop stop-color="#EE4E24"/>
<stop offset="0.03" stop-color="#EE5123"/>
<stop offset="0.19" stop-color="#EE5D23"/>
<stop offset="0.4" stop-color="#EE6423"/>
<stop offset="1" stop-color="#EE6623"/>
</linearGradient>
<linearGradient id="paint8_linear_5632_39058" x1="65.1662" y1="66.9961" x2="105.587" y2="66.9961" gradientUnits="userSpaceOnUse">
<stop stop-color="#EE4E24"/>
<stop offset="0.03" stop-color="#EE5123"/>
<stop offset="0.19" stop-color="#EE5D23"/>
<stop offset="0.4" stop-color="#EE6423"/>
<stop offset="1" stop-color="#EE6623"/>
</linearGradient>
<linearGradient id="paint9_linear_5632_39058" x1="65.1661" y1="66.9962" x2="105.587" y2="66.9962" gradientUnits="userSpaceOnUse">
<stop stop-color="#EE4E24"/>
<stop offset="0.03" stop-color="#EE5123"/>
<stop offset="0.19" stop-color="#EE5D23"/>
<stop offset="0.4" stop-color="#EE6423"/>
<stop offset="1" stop-color="#EE6623"/>
</linearGradient>
<linearGradient id="paint10_linear_5632_39058" x1="65.1658" y1="66.9961" x2="105.586" y2="66.9961" gradientUnits="userSpaceOnUse">
<stop stop-color="#EE4E24"/>
<stop offset="0.03" stop-color="#EE5123"/>
<stop offset="0.19" stop-color="#EE5D23"/>
<stop offset="0.4" stop-color="#EE6423"/>
<stop offset="1" stop-color="#EE6623"/>
</linearGradient>
</defs>
</svg>
