<svg width="191" height="68" viewBox="0 0 191 68" fill="none" xmlns="http://www.w3.org/2000/svg">
<path d="M2.66842 36.9637H8.78709L10.0051 39.8693H11.2518L6.40841 28.4939H5.07577L0.232422 39.8693H1.43609L2.66842 36.9637ZM3.11264 35.8741L5.72059 29.7288L8.32855 35.8741H3.11264Z" fill="#414042"/>
<path d="M19.1959 39.8693V35.0751C19.1959 33.2155 18.1355 31.9661 16.3013 31.9661C15.1406 31.9661 14.2665 32.4891 13.6647 33.5351V32.1114H12.5613V39.8693H13.679V35.4528C13.679 34.7554 13.894 34.1743 14.3238 33.7094C14.7537 33.23 15.2982 32.9976 15.9574 32.9976C17.333 32.9976 18.0782 33.9128 18.0782 35.3511V39.8693H19.1959Z" fill="#414042"/>
<path d="M25.3451 29.3366C25.3451 29.8015 25.7176 30.1792 26.1762 30.1792C26.6491 30.1792 27.0216 29.8015 27.0216 29.3366C27.0216 28.8571 26.6491 28.4794 26.1762 28.4794C25.7176 28.4794 25.3451 28.8571 25.3451 29.3366ZM26.7494 32.1114H25.6173V39.8693H26.7494V32.1114Z" fill="#414042"/>
<path d="M35.9042 39.8693V35.0751C35.9042 33.2155 34.8438 31.9661 33.0096 31.9661C31.849 31.9661 30.9749 32.4891 30.373 33.5351V32.1114H29.2697V39.8693H30.3874V35.4528C30.3874 34.7554 30.6023 34.1743 31.0322 33.7094C31.4621 33.23 32.0066 32.9976 32.6657 32.9976C34.0414 32.9976 34.7865 33.9128 34.7865 35.3511V39.8693H35.9042Z" fill="#414042"/>
<path d="M38.0513 29.3366C38.0513 29.8015 38.4238 30.1792 38.8824 30.1792C39.3552 30.1792 39.7278 29.8015 39.7278 29.3366C39.7278 28.8571 39.3552 28.4794 38.8824 28.4794C38.4238 28.4794 38.0513 28.8571 38.0513 29.3366ZM39.4555 32.1114H38.3235V39.8693H39.4555V32.1114Z" fill="#414042"/>
<path d="M44.6554 39.9274C44.985 39.9274 45.2859 39.8838 45.5295 39.8111V38.8668C45.3719 38.9104 45.1426 38.9249 44.8417 38.9249C44.0106 38.9249 43.5951 38.5617 43.5951 37.8354V33.1138H45.5295V32.1114H43.5951V29.8741H42.4917V32.1114H41.0731V33.1138H42.4917V37.8644C42.4917 39.2446 43.2082 39.9274 44.6554 39.9274Z" fill="#414042"/>
<path d="M47.1471 29.3366C47.1471 29.8015 47.5196 30.1792 47.9782 30.1792C48.4511 30.1792 48.8236 29.8015 48.8236 29.3366C48.8236 28.8571 48.4511 28.4794 47.9782 28.4794C47.5196 28.4794 47.1471 28.8571 47.1471 29.3366ZM48.5514 32.1114H47.4193V39.8693H48.5514V32.1114Z" fill="#414042"/>
<path d="M53.565 35.3947C52.7625 35.3947 52.0604 35.5835 51.4442 35.9467C50.8424 36.3099 50.5415 36.862 50.5415 37.632V37.7191C50.5415 38.3729 50.7707 38.9249 51.2436 39.3608C51.7165 39.7821 52.347 40 53.1064 40C54.1955 40 55.0552 39.5061 55.6857 38.5036H55.7001V39.8693H56.7891V34.8571C56.7891 34.3777 56.7175 33.9564 56.5598 33.5787C56.1013 32.5182 55.1699 31.9806 53.7656 31.9806C52.2467 31.9806 51.2006 32.6489 50.6275 33.9855L51.5445 34.5085C52.0174 33.4915 52.7482 32.9831 53.7369 32.9831C55.0409 32.9831 55.6857 33.6077 55.6857 34.8717V35.3947H53.565ZM55.6857 36.6005C55.6857 37.3123 55.4565 37.8789 55.0123 38.3293C54.568 38.7797 53.9949 38.9976 53.3071 38.9976C52.347 38.9976 51.6592 38.4891 51.6592 37.632C51.7022 36.615 52.6766 36.3099 53.5507 36.3245H55.6857V36.6005Z" fill="#414042"/>
<path d="M61.8256 39.9274C62.1551 39.9274 62.4561 39.8838 62.6997 39.8111V38.8668C62.542 38.9104 62.3128 38.9249 62.0118 38.9249C61.1807 38.9249 60.7652 38.5617 60.7652 37.8354V33.1138H62.6997V32.1114H60.7652V29.8741H59.6618V32.1114H58.2432V33.1138H59.6618V37.8644C59.6618 39.2446 60.3783 39.9274 61.8256 39.9274Z" fill="#414042"/>
<path d="M64.3172 29.3366C64.3172 29.8015 64.6898 30.1792 65.1483 30.1792C65.6212 30.1792 65.9937 29.8015 65.9937 29.3366C65.9937 28.8571 65.6212 28.4794 65.1483 28.4794C64.6898 28.4794 64.3172 28.8571 64.3172 29.3366ZM65.7215 32.1114H64.5895V39.8693H65.7215V32.1114Z" fill="#414042"/>
<path d="M67.3104 32.1114L70.5632 39.8693H71.7525L75.0196 32.1114H73.8303L71.165 38.6199L68.5427 32.1114H67.3104Z" fill="#414042"/>
<path d="M83.1076 36.339C83.1219 36.2663 83.1219 36.1356 83.1219 35.9613C83.1219 34.7845 82.8066 33.8402 82.1761 33.0993C81.5457 32.3584 80.6572 31.9806 79.5109 31.9806C78.4648 31.9806 77.5764 32.3729 76.8599 33.1719C76.1435 33.9709 75.7852 34.9007 75.7852 35.9758C75.7852 37.0944 76.1578 38.0533 76.9029 38.8378C77.648 39.6077 78.5651 40 79.6685 40C81.0441 40 82.2621 39.2736 82.907 37.9952L82.0758 37.4431C81.6316 38.3729 80.7289 38.9976 79.6542 38.9976C78.909 38.9976 78.2785 38.7506 77.7627 38.2421C77.2468 37.7337 76.9602 37.0944 76.9173 36.339H83.1076ZM76.9316 35.3801C77.0319 34.7119 77.3185 34.1453 77.8057 33.6804C78.2929 33.201 78.866 32.9685 79.5109 32.9685C80.9438 32.9685 81.8322 33.9274 81.9899 35.3801H76.9316Z" fill="#414042"/>
<path d="M91.9591 29.0024C92.2887 29.0024 92.561 29.0315 92.7616 29.1041V28.1453C92.475 28.0436 92.1884 28 91.9161 28C90.4975 28 89.5661 28.9298 89.5661 30.6731V32.1114H88.1475V33.0993H89.5661V39.8693H90.6838V33.0993H92.6899V32.1114H90.6838V30.6441C90.6838 29.4383 91.2713 29.0024 91.9591 29.0024Z" fill="#414042"/>
<path d="M94.1999 32.1114V39.8693H95.3176V36.0775C95.3176 35.2785 95.5039 34.6102 95.8907 34.0436C96.2776 33.477 96.8795 33.1864 97.7106 33.1864C97.8109 33.1864 97.9542 33.201 98.1405 33.2155V32.0097C98.0832 31.9952 97.9542 31.9952 97.7679 31.9952C96.7935 31.9952 95.8334 32.5327 95.3032 33.6513V32.1114H94.1999Z" fill="#414042"/>
<path d="M102.759 40C103.877 40 104.823 39.6077 105.582 38.8378C106.342 38.0678 106.729 37.109 106.729 35.9613C106.729 34.8426 106.342 33.9128 105.582 33.1429C104.823 32.3729 103.891 31.9806 102.788 31.9806C101.656 31.9806 100.71 32.3729 99.9507 33.1429C99.1912 33.9128 98.8186 34.8717 98.8186 36.0194C98.8186 37.1235 99.1912 38.0678 99.9507 38.8378C100.71 39.6077 101.656 40 102.759 40ZM102.788 38.9976C101.971 38.9976 101.283 38.707 100.753 38.1114C100.223 37.5157 99.965 36.7893 99.965 35.9613C99.965 35.1332 100.223 34.4213 100.753 33.8402C101.283 33.2591 101.942 32.9685 102.759 32.9685C103.576 32.9685 104.25 33.2736 104.78 33.8692C105.31 34.4649 105.582 35.1913 105.582 36.0194C105.582 36.8475 105.31 37.5448 104.78 38.1259C104.25 38.707 103.59 38.9976 102.788 38.9976Z" fill="#414042"/>
<path d="M115.017 39.8693V35.4092C115.017 34.7264 115.203 34.1598 115.59 33.7094C115.977 33.2446 116.492 33.0121 117.137 33.0121C118.47 33.0121 119.115 33.9564 119.115 35.3511V39.8693H120.232V35.0751C120.232 33.2155 119.201 31.9806 117.41 31.9806C116.277 31.9806 115.375 32.4891 114.716 33.5206C114.243 32.4891 113.426 31.9661 112.265 31.9661C111.176 31.9661 110.445 32.46 109.801 33.4625V32.1114H108.697V39.8693H109.815V35.4528C109.815 34.7845 110.001 34.2034 110.388 33.724C110.775 33.2446 111.291 32.9976 111.936 32.9976C113.254 32.9976 113.913 33.9709 113.913 35.322V39.8693H115.017Z" fill="#414042"/>
<path d="M189.99 26.4494H185.391C185.099 14.3744 175.226 4.6746 163.094 4.6746C150.962 4.6746 141.089 14.3744 140.796 26.4494H136.232C136.507 11.933 148.459 0.0713263 163.114 0.0713263C170.155 0.0595939 176.919 2.8185 181.947 7.75305C186.975 12.6876 189.864 19.4024 189.99 26.4494Z" fill="#18484C"/>
<path d="M161.227 49.1034V53.8252C147.518 52.8771 136.64 41.634 136.25 27.7686H140.868C141.121 35.2475 145.196 42.0619 151.305 45.8758C150.939 44.748 150.679 43.4854 150.679 42.2416V12.1533H155.293V30.8472H159.906V35.4674H155.293V42.2416C155.293 45.0862 157.081 47.5428 159.493 48.6778C160.038 48.9292 160.627 49.0737 161.227 49.1034" fill="#96CA4C"/>
<path d="M190.005 27.5495C189.806 37.6273 184.075 46.346 175.729 50.7956V43.1656C175.729 42.9457 175.713 42.7521 175.713 42.5344C175.713 38.6128 172.479 35.4673 168.563 35.4673H161.226V30.8487H167.277C171.193 30.8487 174.38 27.7299 174.38 23.8106C174.38 19.8914 171.193 16.7723 167.277 16.7723H156.611V12.1533H167.277C173.747 12.1533 179.012 17.3572 179.012 23.8346C179.012 27.4109 177.405 30.5715 174.878 32.7204C177.597 34.4581 179.684 36.7872 179.904 41.626C183.859 37.227 185.398 31.2885 185.398 27.5495H190.005Z" fill="#96CA4C"/>
<path d="M138.969 59.9315H137.101C137.071 59.9315 137.042 59.9218 137.019 59.9039C136.995 59.886 136.978 59.8608 136.969 59.8323L136.376 57.7495C136.37 57.7291 136.369 57.7077 136.373 57.6869C136.377 57.6661 136.385 57.6464 136.398 57.6295C136.411 57.6127 136.427 57.599 136.446 57.5895C136.465 57.5801 136.486 57.5752 136.507 57.5752H143.642C143.672 57.5752 143.701 57.585 143.725 57.6032C143.749 57.6213 143.766 57.6468 143.774 57.6757L144.347 59.7585C144.353 59.7788 144.354 59.8002 144.35 59.8209C144.346 59.8416 144.337 59.8611 144.324 59.8778C144.312 59.8946 144.295 59.9082 144.276 59.9175C144.257 59.9269 144.237 59.9317 144.216 59.9317H141.93C141.893 59.9317 141.859 59.9462 141.833 59.9718C141.807 59.9975 141.793 60.0323 141.793 60.0687V67.7911C141.793 67.8274 141.778 67.8622 141.753 67.8879C141.727 67.9135 141.692 67.928 141.656 67.928H139.243C139.225 67.928 139.207 67.9245 139.19 67.9176C139.174 67.9107 139.159 67.9006 139.146 67.8879C139.133 67.8752 139.123 67.8601 139.116 67.8435C139.11 67.8269 139.106 67.8091 139.106 67.7911V60.0685C139.106 60.0322 139.092 59.9973 139.066 59.9717C139.04 59.946 139.006 59.9315 138.969 59.9315" fill="#333333"/>
<path d="M150.184 66.09H145.963C145.939 66.09 145.915 66.0962 145.895 66.1081C145.874 66.12 145.857 66.1371 145.845 66.1578L144.85 67.8608C144.838 67.8814 144.821 67.8985 144.8 67.9104C144.78 67.9223 144.756 67.9286 144.732 67.9285H142.275C142.251 67.9285 142.228 67.9222 142.207 67.9102C142.186 67.8983 142.169 67.881 142.157 67.8602C142.145 67.8394 142.138 67.8159 142.138 67.7919C142.138 67.7679 142.145 67.7443 142.157 67.7235L147.958 57.6359C147.97 57.6151 147.988 57.5978 148.008 57.5858C148.029 57.5737 148.053 57.5674 148.077 57.5674C148.101 57.5674 148.125 57.5737 148.145 57.5858C148.166 57.5978 148.183 57.6151 148.195 57.6359L153.99 67.7237C154.002 67.7445 154.008 67.7681 154.008 67.7921C154.008 67.8161 154.002 67.8397 153.99 67.8605C153.978 67.8812 153.96 67.8985 153.94 67.9105C153.919 67.9225 153.895 67.9288 153.871 67.9288H151.414C151.39 67.9288 151.367 67.9226 151.346 67.9107C151.325 67.8988 151.308 67.8817 151.296 67.861L150.302 66.1578C150.29 66.1371 150.272 66.12 150.252 66.1082C150.231 66.0963 150.208 66.09 150.184 66.09H150.184ZM149.03 63.9723L148.195 62.5412C148.183 62.5206 148.165 62.5035 148.145 62.4916C148.124 62.4797 148.101 62.4734 148.077 62.4734C148.053 62.4734 148.03 62.4796 148.009 62.4914C147.988 62.5033 147.971 62.5203 147.959 62.5409L147.117 63.9721C147.105 63.9928 147.099 64.0165 147.098 64.0406C147.098 64.0647 147.105 64.0884 147.116 64.1094C147.128 64.1303 147.146 64.1477 147.167 64.1598C147.187 64.1719 147.211 64.1783 147.235 64.1783H148.912C148.936 64.1783 148.96 64.1719 148.981 64.1599C149.001 64.1478 149.019 64.1304 149.031 64.1095C149.043 64.0886 149.049 64.065 149.049 64.0409C149.049 64.0168 149.042 63.9931 149.03 63.9723Z" fill="#333333"/>
<path d="M160.677 67.9279H154.614C154.578 67.9279 154.543 67.9135 154.517 67.8878C154.492 67.8622 154.477 67.8273 154.477 67.791V57.7186C154.477 57.6823 154.492 57.6476 154.517 57.6219C154.543 57.5963 154.578 57.5818 154.614 57.5818L157.027 57.5752C157.045 57.5752 157.063 57.5787 157.08 57.5855C157.096 57.5924 157.112 57.6025 157.124 57.6152C157.137 57.6279 157.147 57.643 157.154 57.6596C157.161 57.6763 157.165 57.6941 157.165 57.7121V65.4271C157.165 65.4634 157.179 65.4982 157.205 65.5239C157.23 65.5496 157.265 65.564 157.301 65.564H161.312C161.333 65.564 161.354 65.569 161.373 65.5786C161.392 65.5883 161.409 65.6022 161.422 65.6194C161.434 65.6365 161.443 65.6565 161.447 65.6775C161.45 65.6986 161.449 65.7202 161.443 65.7407L160.808 67.8309C160.799 67.8589 160.782 67.8835 160.758 67.901C160.735 67.9185 160.706 67.9279 160.677 67.9279Z" fill="#333333"/>
<path d="M162.207 67.7695V57.7121C162.207 57.6758 162.222 57.641 162.247 57.6153C162.273 57.5896 162.308 57.5752 162.344 57.5752H165.257C166.122 57.5752 166.887 57.6822 167.551 57.8962C168.204 58.1054 168.717 58.4484 169.088 58.925C169.453 59.4018 169.636 60.0171 169.636 60.7709C169.632 61.3361 169.466 61.8884 169.157 62.3613C168.894 62.7966 168.501 63.1383 168.033 63.3387C168.015 63.346 167.998 63.3573 167.985 63.3717C167.971 63.386 167.961 63.4032 167.954 63.4219C167.948 63.4406 167.946 63.4605 167.948 63.4802C167.95 63.4999 167.956 63.5189 167.966 63.536L170.477 67.7138C170.489 67.7346 170.496 67.7583 170.496 67.7825C170.496 67.8068 170.49 67.8307 170.478 67.8517C170.466 67.8728 170.449 67.8904 170.428 67.9026C170.407 67.9148 170.384 67.9212 170.359 67.9212H167.539C167.515 67.9212 167.491 67.9146 167.469 67.9021C167.448 67.8896 167.431 67.8716 167.419 67.85L164.926 63.2806H164.895V67.7695C164.895 67.8058 164.88 67.8407 164.854 67.8663C164.829 67.892 164.794 67.9064 164.758 67.9064H162.344C162.308 67.9064 162.273 67.892 162.247 67.8663C162.222 67.8407 162.207 67.8058 162.207 67.7695H162.207ZM164.895 62.5282C164.895 62.5465 164.898 62.5647 164.906 62.5815C164.913 62.5984 164.923 62.6137 164.936 62.6265C164.949 62.6394 164.965 62.6494 164.982 62.6562C164.999 62.663 165.017 62.6663 165.035 62.666C165.426 62.6564 165.755 62.6059 166.022 62.5146C166.298 62.4308 166.539 62.2592 166.709 62.0258C166.869 61.802 166.948 61.5125 166.949 61.1575C166.949 60.6225 166.779 60.2577 166.439 60.063C166.118 59.8821 165.65 59.7853 165.035 59.7726C165.017 59.7723 164.999 59.7757 164.982 59.7825C164.965 59.7893 164.949 59.7994 164.936 59.8122C164.923 59.825 164.913 59.8403 164.906 59.8571C164.899 59.874 164.895 59.892 164.895 59.9103L164.895 62.5282Z" fill="#333333"/>
<path d="M178.477 58.3014C179.259 58.7487 179.909 59.3939 180.362 60.1722C180.824 60.9571 181.065 61.8528 181.059 62.7638C181.067 63.6729 180.826 64.5668 180.362 65.3485C179.905 66.1296 179.252 66.7769 178.467 67.2256C177.682 67.6743 176.793 67.9088 175.888 67.9054C174.984 67.9077 174.094 67.6729 173.308 67.2243C172.522 66.7758 171.867 66.129 171.408 65.3485C170.944 64.5668 170.703 63.6729 170.711 62.7637C170.705 61.8526 170.946 60.9569 171.409 60.1721C171.866 59.3945 172.518 58.7496 173.3 58.3013C174.089 57.8517 174.981 57.6152 175.889 57.6152C176.796 57.6152 177.688 57.8517 178.477 58.3013V58.3014ZM174.501 60.2691C174.081 60.5367 173.734 60.9049 173.491 61.3404C173.249 61.776 173.119 62.2652 173.113 62.7637C173.114 63.26 173.245 63.7475 173.493 64.1771C173.732 64.6191 174.079 64.9933 174.501 65.265C174.913 65.5317 175.394 65.6736 175.885 65.6736C176.376 65.6736 176.857 65.5317 177.269 65.265C177.692 64.9922 178.041 64.6184 178.284 64.1771C178.528 63.7461 178.657 63.259 178.657 62.7635C178.657 62.268 178.528 61.7809 178.284 61.3499C178.044 60.9109 177.697 60.5393 177.276 60.2693C176.863 60.0023 176.381 59.8603 175.889 59.8604C175.396 59.8577 174.914 59.9999 174.501 60.2693" fill="#333333"/>
<path d="M182.133 67.7913V57.7121C182.133 57.6758 182.147 57.641 182.173 57.6153C182.198 57.5896 182.233 57.5752 182.269 57.5752H185.407C186.138 57.5752 186.76 57.6287 187.275 57.7358C187.759 57.8261 188.22 58.0094 188.634 58.2756C189.017 58.5306 189.322 58.8867 189.515 59.3044C189.72 59.7373 189.823 60.265 189.823 60.8877C189.831 61.363 189.726 61.8334 189.515 62.2593C189.308 62.6634 189.016 63.017 188.657 63.2952C188.268 63.5967 187.825 63.8219 187.353 63.9591C186.839 64.1152 186.306 64.1939 185.77 64.1925H184.964C184.946 64.1925 184.929 64.1961 184.912 64.203C184.895 64.2099 184.88 64.22 184.867 64.2328C184.855 64.2455 184.845 64.2606 184.838 64.2773C184.831 64.294 184.827 64.3118 184.828 64.3298V67.7916C184.828 67.8279 184.813 67.8627 184.787 67.8884C184.762 67.914 184.727 67.9284 184.691 67.9284H182.269C182.233 67.9284 182.198 67.914 182.173 67.8884C182.147 67.8627 182.133 67.8279 182.133 67.7916L182.133 67.7913ZM184.828 59.9081V61.8596C184.828 61.8959 184.842 61.9307 184.868 61.9564C184.893 61.982 184.928 61.9965 184.964 61.9965H185.6C186.094 61.9965 186.475 61.8992 186.742 61.7046C187.005 61.5149 187.136 61.2377 187.136 60.873C187.136 60.518 187.005 60.2456 186.742 60.0558C186.475 59.866 186.094 59.7711 185.6 59.7711H184.964C184.928 59.7711 184.893 59.7856 184.868 59.8112C184.842 59.8369 184.828 59.8717 184.828 59.9081" fill="#333333"/>
</svg>
