<svg width="202" height="67" viewBox="0 0 202 67" fill="none" xmlns="http://www.w3.org/2000/svg">
<g clip-path="url(#clip0_557_7811)">
<path d="M185.264 8.73327e-05H16.8425C16.2286 8.73327e-05 15.6221 8.73328e-05 15.0098 0.00342629C14.4972 0.00676525 13.9888 0.0164649 13.4713 0.0246287C12.3471 0.0378206 11.2256 0.136444 10.1164 0.319642C9.00884 0.506829 7.93595 0.859729 6.93404 1.36641C5.93335 1.87737 5.019 2.54132 4.22415 3.33416C3.42512 4.12477 2.75907 5.0386 2.25161 6.04053C1.74275 7.04047 1.3899 8.11199 1.20526 9.21809C1.01886 10.3228 0.918553 11.4402 0.905246 12.5604C0.88971 13.0722 0.888069 13.5858 0.879883 14.0977V52.6865C0.888069 53.2049 0.88971 53.7071 0.905246 54.2256C0.918557 55.3457 1.01886 56.4631 1.20526 57.5678C1.38939 58.6745 1.74226 59.7466 2.25161 60.7469C2.75884 61.7456 3.42499 62.6558 4.22415 63.442C5.01599 64.2384 5.93093 64.9027 6.93404 65.4098C7.93594 65.9178 9.00871 66.2728 10.1164 66.4629C11.2258 66.6446 12.3472 66.7433 13.4713 66.7581C13.9888 66.7694 14.4972 66.7759 15.0098 66.7759C15.622 66.7793 16.2286 66.7793 16.8425 66.7793H185.264C185.866 66.7793 186.477 66.7793 187.079 66.7759C187.589 66.7759 188.112 66.7694 188.622 66.7581C189.744 66.7441 190.863 66.6454 191.97 66.4629C193.082 66.2715 194.158 65.9166 195.165 65.4098C196.167 64.9025 197.081 64.2381 197.872 63.442C198.67 62.6527 199.337 61.7432 199.851 60.7469C200.356 59.7459 200.706 58.6739 200.887 57.5678C201.074 56.463 201.178 55.3458 201.198 54.2256C201.204 53.7071 201.204 53.2049 201.204 52.6865C201.217 52.08 201.217 51.4768 201.217 50.8605V15.9205C201.217 15.3091 201.217 14.7026 201.204 14.0977C201.204 13.5858 201.204 13.0722 201.198 12.5603C201.178 11.4401 201.074 10.3229 200.887 9.21802C200.705 8.11256 200.356 7.04112 199.851 6.04047C198.817 4.03221 197.179 2.3975 195.165 1.36626C194.158 0.860817 193.082 0.508011 191.97 0.319492C190.864 0.135487 189.744 0.0368289 188.622 0.024395C188.112 0.0162479 187.589 0.00646475 187.079 0.00320926C186.477 -0.0001297 185.866 -0.0001297 185.264 -0.0001297V8.73327e-05Z" fill="#A6A6A6"/>
<path d="M15.0183 65.3184C14.5082 65.3184 14.0104 65.3119 13.5044 65.3006C12.456 65.2869 11.41 65.1959 10.3751 65.0283C9.41009 64.8625 8.47526 64.5542 7.60144 64.1136C6.73563 63.6765 5.94595 63.1035 5.26263 62.4164C4.56943 61.7374 3.9923 60.9498 3.55413 60.0849C3.11113 59.2145 2.80454 58.2814 2.64506 57.3183C2.47282 56.2834 2.37964 55.237 2.36631 54.188C2.35569 53.8359 2.3418 52.6636 2.3418 52.6636V14.0977C2.3418 14.0977 2.3566 12.9434 2.36639 12.6043C2.37916 11.557 2.4718 10.5122 2.64352 9.47887C2.8033 8.51311 3.11012 7.57736 3.55336 6.70403C3.98992 5.83976 4.56384 5.05163 5.25287 4.37018C5.94113 3.68225 6.73334 3.10625 7.60062 2.66318C8.47244 2.22392 9.4055 1.9178 10.3686 1.75509C11.4069 1.58575 12.4564 1.49419 13.5085 1.48119L15.0191 1.46081H187.071L188.599 1.48201C189.642 1.49436 190.682 1.5851 191.711 1.75345C192.684 1.9182 193.626 2.22646 194.508 2.66808C196.246 3.56099 197.659 4.97367 198.551 6.7081C198.987 7.57541 199.289 8.50352 199.447 9.46094C199.621 10.5027 199.718 11.5557 199.738 12.6116C199.743 13.0844 199.743 13.5923 199.743 14.0977C199.756 14.7237 199.756 15.3196 199.756 15.9204V50.8604C199.756 51.4669 199.756 52.0587 199.743 52.6554C199.743 53.1983 199.743 53.6957 199.737 54.2075C199.717 55.2446 199.621 56.2788 199.45 57.3019C199.294 58.272 198.989 59.2123 198.546 60.0899C198.105 60.9454 197.531 61.7261 196.846 62.4033C196.162 63.0942 195.371 63.6706 194.503 64.1104C193.624 64.5545 192.683 64.8639 191.711 65.0283C190.676 65.1968 189.63 65.2878 188.581 65.3006C188.091 65.3119 187.578 65.3184 187.079 65.3184L185.264 65.3218L15.0183 65.3184Z" fill="black"/>
<path d="M42.3474 33.8878C42.3654 32.4944 42.7366 31.1281 43.4264 29.9161C44.1162 28.7042 45.1022 27.6859 46.2927 26.956C45.5364 25.8789 44.5387 24.9925 43.3788 24.3672C42.2189 23.7419 40.9287 23.3949 39.6108 23.3538C36.7995 23.0596 34.074 25.0314 32.6414 25.0314C31.1811 25.0314 28.9754 23.383 26.6002 23.4318C25.0638 23.4813 23.5666 23.9268 22.2542 24.7249C20.9419 25.523 19.8592 26.6465 19.1118 27.9859C15.8739 33.576 18.2891 41.7916 21.3906 46.3102C22.9424 48.5229 24.756 50.9945 27.1291 50.9068C29.4512 50.8108 30.3185 49.4302 33.1216 49.4302C35.8986 49.4302 36.7123 50.9068 39.1335 50.8511C41.6253 50.8108 43.1953 48.6286 44.6926 46.395C45.8076 44.8184 46.6655 43.0759 47.2347 41.2321C45.787 40.6216 44.5516 39.5995 43.6825 38.2935C42.8134 36.9875 42.3491 35.4552 42.3474 33.8878Z" fill="white"/>
<path d="M37.7741 20.3827C39.1328 18.7562 39.8021 16.6657 39.64 14.5551C37.5643 14.7725 35.647 15.7618 34.27 17.3258C33.5968 18.0899 33.0811 18.9788 32.7526 19.9417C32.424 20.9046 32.289 21.9226 32.3553 22.9376C33.3935 22.9483 34.4206 22.7239 35.3592 22.2813C36.2979 21.8387 37.1236 21.1896 37.7741 20.3827Z" fill="white"/>
<path d="M71.7012 45.3075H63.7767L61.8736 50.911H58.5171L66.0231 30.1794H69.5103L77.0163 50.911H73.6026L71.7012 45.3075ZM64.5974 42.7217H70.8789L67.7823 33.6276H67.6956L64.5974 42.7217Z" fill="white"/>
<path d="M93.2266 43.3537C93.2266 48.0508 90.7055 51.0686 86.9011 51.0686C85.9373 51.1188 84.9789 50.8975 84.1354 50.4298C83.292 49.9621 82.5977 49.267 82.132 48.4241H82.06V55.9107H78.9487V35.7954H81.9603V38.3094H82.0175C82.5046 37.4706 83.2107 36.7791 84.0606 36.3086C84.9104 35.838 85.8723 35.606 86.8439 35.6373C90.6908 35.6373 93.2266 38.6697 93.2266 43.3537ZM90.0287 43.3537C90.0287 40.2936 88.4428 38.2817 86.0231 38.2817C83.6459 38.2817 82.047 40.336 82.047 43.3537C82.047 46.3992 83.6459 48.4388 86.0231 48.4388C88.4428 48.4388 90.0287 46.4416 90.0287 43.3537Z" fill="white"/>
<path d="M109.91 43.3537C109.91 48.0508 107.389 51.0685 103.584 51.0685C102.62 51.1188 101.662 50.8974 100.819 50.4298C99.9751 49.9621 99.2808 49.267 98.8151 48.4241H98.7431V55.9107H95.6318V35.7954H98.6434V38.3094H98.7006C99.1877 37.4706 99.8937 36.7791 100.744 36.3085C101.593 35.838 102.555 35.606 103.527 35.6373C107.374 35.6373 109.91 38.6697 109.91 43.3537ZM106.712 43.3537C106.712 40.2936 105.126 38.2817 102.706 38.2817C100.329 38.2817 98.7301 40.3359 98.7301 43.3537C98.7301 46.3992 100.329 48.4388 102.706 48.4388C105.126 48.4388 106.712 46.4416 106.712 43.3537H106.712Z" fill="white"/>
<path d="M120.935 45.1347C121.166 47.1906 123.169 48.5404 125.906 48.5404C128.528 48.5404 130.415 47.1905 130.415 45.3368C130.415 43.7276 129.277 42.7641 126.582 42.1038L123.888 41.4565C120.071 40.537 118.298 38.7567 118.298 35.8677C118.298 32.2907 121.424 29.8337 125.863 29.8337C130.256 29.8337 133.268 32.2907 133.369 35.8677H130.228C130.04 33.7988 128.325 32.5499 125.819 32.5499C123.313 32.5499 121.597 33.8134 121.597 35.6525C121.597 37.1182 122.693 37.9806 125.373 38.6408L127.663 39.2017C131.929 40.2076 133.701 41.9163 133.701 44.9487C133.701 48.8273 130.603 51.2565 125.675 51.2565C121.064 51.2565 117.952 48.8843 117.75 45.1345L120.935 45.1347Z" fill="white"/>
<path d="M140.416 32.2194V35.7964H143.298V38.2534H140.416V46.5861C140.416 47.8806 140.993 48.4838 142.26 48.4838C142.602 48.4779 142.944 48.4539 143.283 48.412V50.8543C142.714 50.9604 142.135 51.0085 141.555 50.9978C138.487 50.9978 137.29 49.8484 137.29 46.917V38.2534H135.086V35.7964H137.29V32.2194H140.416Z" fill="white"/>
<path d="M144.967 43.3542C144.967 38.5985 147.776 35.61 152.156 35.61C156.551 35.61 159.346 38.5984 159.346 43.3542C159.346 48.123 156.565 51.0983 152.156 51.0983C147.748 51.0983 144.967 48.123 144.967 43.3542ZM156.176 43.3542C156.176 40.0919 154.677 38.1664 152.156 38.1664C149.635 38.1664 148.137 40.1065 148.137 43.3542C148.137 46.6296 149.635 48.5403 152.156 48.5403C154.677 48.5403 156.176 46.6296 156.176 43.3542H156.176Z" fill="white"/>
<path d="M161.912 35.7972H164.879V38.3699H164.951C165.152 37.5664 165.624 36.8563 166.288 36.359C166.952 35.8617 167.767 35.6075 168.597 35.6391C168.955 35.6378 169.313 35.6766 169.663 35.7548V38.6568C169.21 38.5189 168.738 38.4556 168.265 38.4694C167.813 38.4511 167.362 38.5305 166.944 38.7023C166.526 38.8741 166.15 39.1341 165.842 39.4644C165.534 39.7948 165.301 40.1877 165.16 40.6163C165.018 41.0448 164.972 41.4987 165.023 41.9469V50.9122H161.912L161.912 35.7972Z" fill="white"/>
<path d="M184.008 46.4714C183.589 49.2153 180.91 51.0984 177.481 51.0984C173.072 51.0984 170.335 48.1523 170.335 43.4259C170.335 38.6849 173.087 35.61 177.35 35.61C181.544 35.61 184.181 38.4827 184.181 43.0656V44.1286H173.476V44.3161C173.426 44.8724 173.496 45.4327 173.681 45.96C173.865 46.4873 174.16 46.9694 174.546 47.3744C174.931 47.7793 175.399 48.0978 175.917 48.3086C176.436 48.5195 176.994 48.6179 177.553 48.5974C178.288 48.6661 179.026 48.4963 179.657 48.1132C180.288 47.7302 180.777 47.1544 181.054 46.4714L184.008 46.4714ZM173.49 41.9602H181.068C181.096 41.4601 181.02 40.9595 180.845 40.4901C180.67 40.0206 180.399 39.5923 180.05 39.2321C179.701 38.8719 179.281 38.5875 178.816 38.3968C178.352 38.2061 177.853 38.1133 177.35 38.124C176.844 38.121 176.342 38.2181 175.873 38.4096C175.404 38.6012 174.978 38.8834 174.619 39.2401C174.26 39.5968 173.975 40.0208 173.782 40.4876C173.588 40.9545 173.489 41.455 173.49 41.9602V41.9602Z" fill="white"/>
<path d="M64.2074 14.5788C64.8597 14.5321 65.5142 14.6304 66.1238 14.8665C66.7334 15.1026 67.2828 15.4707 67.7325 15.9442C68.1821 16.4177 68.5208 16.9848 68.7241 17.6047C68.9273 18.2245 68.9901 18.8816 68.9078 19.5285C68.9078 22.711 67.183 24.5403 64.2074 24.5403H60.5991V14.5788H64.2074ZM62.1507 23.1315H64.0341C64.5002 23.1593 64.9666 23.0831 65.3995 22.9085C65.8323 22.7338 66.2206 22.4651 66.5362 22.1219C66.8518 21.7787 67.0866 21.3697 67.2237 20.9246C67.3607 20.4795 67.3965 20.0095 67.3285 19.5488C67.3916 19.09 67.3522 18.6229 67.213 18.1811C67.0739 17.7392 66.8384 17.3335 66.5236 16.9931C66.2087 16.6526 65.8223 16.3858 65.3919 16.2118C64.9615 16.0378 64.4978 15.9609 64.0341 15.9865H62.1507V23.1315Z" fill="white"/>
<path d="M70.6609 20.7778C70.6135 20.2838 70.6701 19.7853 70.8272 19.3144C70.9844 18.8435 71.2384 18.4106 71.5732 18.0433C71.9079 17.6761 72.3159 17.3826 72.771 17.1818C73.2262 16.981 73.7183 16.8773 74.216 16.8773C74.7137 16.8773 75.2059 16.981 75.661 17.1818C76.1161 17.3826 76.5241 17.6761 76.8589 18.0433C77.1936 18.4106 77.4477 18.8435 77.6048 19.3144C77.7619 19.7853 77.8186 20.2838 77.7712 20.7778C77.8195 21.2724 77.7635 21.7715 77.6068 22.2432C77.4501 22.7149 77.1962 23.1486 76.8614 23.5166C76.5265 23.8846 76.1182 24.1786 75.6626 24.3799C75.2071 24.5811 74.7143 24.685 74.216 24.685C73.7177 24.685 73.225 24.5811 72.7694 24.3799C72.3138 24.1786 71.9055 23.8846 71.5707 23.5166C71.2359 23.1486 70.9819 22.7149 70.8253 22.2432C70.6686 21.7715 70.6126 21.2724 70.6609 20.7778ZM76.2409 20.7778C76.2409 19.1483 75.5068 18.1954 74.2185 18.1954C72.9252 18.1954 72.1977 19.1483 72.1977 20.7779C72.1977 22.4204 72.9253 23.366 74.2185 23.366C75.5068 23.366 76.2409 22.4139 76.2409 20.7778H76.2409Z" fill="white"/>
<path d="M87.2226 24.54H85.6792L84.1211 19.0033H84.0034L82.4519 24.54H80.9232L78.8452 17.0224H80.3543L81.7047 22.7587H81.8159L83.3658 17.0224H84.7931L86.343 22.7587H86.4607L87.8046 17.0224H89.2924L87.2226 24.54Z" fill="white"/>
<path d="M91.0396 17.0218H92.4717V18.216H92.5829C92.7715 17.7871 93.0896 17.4275 93.4929 17.1874C93.8961 16.9474 94.3645 16.8387 94.8326 16.8767C95.1994 16.8492 95.5677 16.9043 95.9102 17.038C96.2528 17.1717 96.5607 17.3806 96.8113 17.6491C97.0619 17.9177 97.2487 18.239 97.3579 18.5893C97.467 18.9395 97.4958 19.3098 97.4419 19.6727V24.5392H95.9542V20.0453C95.9542 18.8372 95.4277 18.2364 94.3274 18.2364C94.0784 18.2248 93.8297 18.2671 93.5986 18.3603C93.3675 18.4535 93.1593 18.5954 92.9883 18.7764C92.8173 18.9573 92.6876 19.173 92.6081 19.4086C92.5285 19.6442 92.501 19.8942 92.5273 20.1414V24.5393H91.0396L91.0396 17.0218Z" fill="white"/>
<path d="M99.813 14.087H101.301V24.5392H99.813V14.087Z" fill="white"/>
<path d="M103.369 20.778C103.321 20.2839 103.378 19.7854 103.535 19.3145C103.692 18.8436 103.947 18.4106 104.281 18.0433C104.616 17.6761 105.024 17.3826 105.479 17.1818C105.934 16.981 106.427 16.8773 106.924 16.8773C107.422 16.8773 107.914 16.981 108.369 17.1818C108.825 17.3826 109.233 17.6761 109.567 18.0433C109.902 18.4106 110.156 18.8436 110.313 19.3145C110.471 19.7854 110.527 20.2839 110.48 20.778C110.528 21.2725 110.472 21.7717 110.315 22.2433C110.159 22.715 109.905 23.1488 109.57 23.5167C109.235 23.8847 108.827 24.1787 108.371 24.38C107.915 24.5812 107.423 24.6851 106.924 24.6851C106.426 24.6851 105.933 24.5812 105.478 24.38C105.022 24.1787 104.614 23.8847 104.279 23.5167C103.944 23.1488 103.69 22.715 103.533 22.2433C103.377 21.7717 103.321 21.2725 103.369 20.778ZM108.949 20.778C108.949 19.1484 108.215 18.1955 106.926 18.1955C105.633 18.1955 104.906 19.1484 104.906 20.778C104.906 22.4206 105.633 23.3662 106.926 23.3662C108.215 23.3662 108.949 22.414 108.949 20.778H108.949Z" fill="white"/>
<path d="M112.046 22.414C112.046 21.0608 113.056 20.2806 114.85 20.1698L116.892 20.0524V19.4035C116.892 18.6095 116.365 18.1612 115.348 18.1612C114.518 18.1612 113.942 18.4653 113.777 18.9968H112.337C112.489 17.7055 113.707 16.8773 115.417 16.8773C117.307 16.8773 118.373 17.8155 118.373 19.4035V24.5399H116.941V23.4835H116.823C116.584 23.8624 116.249 24.1714 115.851 24.3787C115.453 24.5861 115.007 24.6845 114.559 24.6638C114.242 24.6966 113.922 24.663 113.62 24.565C113.317 24.467 113.039 24.3068 112.802 24.0948C112.565 23.8829 112.375 23.6238 112.245 23.3343C112.115 23.0448 112.047 22.7312 112.046 22.414ZM116.892 21.7716V21.1431L115.051 21.2605C114.013 21.3298 113.542 21.6819 113.542 22.3447C113.542 23.0212 114.13 23.415 114.94 23.415C115.177 23.4389 115.416 23.415 115.644 23.3448C115.872 23.2745 116.083 23.1593 116.265 23.0059C116.447 22.8526 116.597 22.6643 116.704 22.4523C116.812 22.2402 116.876 22.0087 116.892 21.7716Z" fill="white"/>
<path d="M120.329 20.7772C120.329 18.4018 121.553 16.897 123.458 16.897C123.929 16.8753 124.397 16.9878 124.806 17.2214C125.215 17.4549 125.55 17.7999 125.77 18.2159H125.881V14.087H127.369V24.5392H125.943V23.3515H125.825C125.588 23.7647 125.242 24.1053 124.825 24.3365C124.408 24.5677 123.935 24.6806 123.458 24.6631C121.54 24.6632 120.329 23.1583 120.329 20.7772ZM121.865 20.7772C121.865 22.3717 122.619 23.3312 123.88 23.3312C125.134 23.3312 125.909 22.3578 125.909 20.7837C125.909 19.217 125.126 18.2298 123.88 18.2298C122.627 18.2298 121.865 19.1958 121.865 20.7772H121.865Z" fill="white"/>
<path d="M133.524 20.7778C133.477 20.2838 133.533 19.7853 133.691 19.3144C133.848 18.8435 134.102 18.4106 134.436 18.0433C134.771 17.6761 135.179 17.3826 135.634 17.1818C136.089 16.981 136.582 16.8773 137.079 16.8773C137.577 16.8773 138.069 16.981 138.524 17.1818C138.979 17.3826 139.387 17.6761 139.722 18.0433C140.057 18.4106 140.311 18.8435 140.468 19.3144C140.625 19.7853 140.682 20.2838 140.634 20.7778C140.683 21.2724 140.627 21.7715 140.47 22.2432C140.313 22.7149 140.059 23.1486 139.725 23.5166C139.39 23.8846 138.981 24.1786 138.526 24.3799C138.07 24.5811 137.578 24.685 137.079 24.685C136.581 24.685 136.088 24.5811 135.633 24.3799C135.177 24.1786 134.769 23.8846 134.434 23.5166C134.099 23.1486 133.845 22.7149 133.689 22.2432C133.532 21.7715 133.476 21.2724 133.524 20.7778ZM139.104 20.7778C139.104 19.1483 138.37 18.1954 137.082 18.1954C135.789 18.1954 135.061 19.1483 135.061 20.7779C135.061 22.4204 135.789 23.366 137.082 23.366C138.37 23.366 139.104 22.4139 139.104 20.7778Z" fill="white"/>
<path d="M142.631 17.0218H144.063V18.216H144.174C144.363 17.7871 144.681 17.4275 145.084 17.1874C145.487 16.9474 145.956 16.8387 146.424 16.8767C146.791 16.8492 147.159 16.9043 147.502 17.038C147.844 17.1717 148.152 17.3806 148.403 17.6491C148.653 17.9177 148.84 18.239 148.949 18.5893C149.058 18.9395 149.087 19.3098 149.033 19.6727V24.5392H147.545V20.0453C147.545 18.8372 147.019 18.2364 145.919 18.2364C145.67 18.2248 145.421 18.2671 145.19 18.3603C144.959 18.4535 144.751 18.5954 144.58 18.7764C144.409 18.9573 144.279 19.173 144.199 19.4086C144.12 19.6442 144.092 19.8942 144.119 20.1414V24.5393H142.631V17.0218Z" fill="white"/>
<path d="M157.44 15.1493V17.0552H159.073V18.3049H157.44V22.1704C157.44 22.9579 157.765 23.3027 158.506 23.3027C158.696 23.3021 158.885 23.2907 159.073 23.2685V24.5043C158.806 24.5519 158.536 24.5773 158.264 24.5801C156.61 24.5801 155.951 23.9997 155.951 22.5503V18.3048H154.754V17.0551H155.951V15.1493H157.44Z" fill="white"/>
<path d="M161.105 14.087H162.58V18.2298H162.698C162.896 17.7968 163.222 17.4352 163.634 17.1942C164.045 16.9533 164.521 16.8446 164.997 16.8831C165.361 16.8633 165.726 16.924 166.065 17.061C166.403 17.198 166.708 17.4078 166.956 17.6755C167.204 17.9431 167.389 18.2621 167.499 18.6096C167.61 18.9571 167.641 19.3245 167.593 19.6857V24.5392H166.104V20.0517C166.104 18.8509 165.543 18.2428 164.491 18.2428C164.236 18.2219 163.979 18.2569 163.738 18.3455C163.497 18.4341 163.279 18.574 163.098 18.7556C162.917 18.9371 162.778 19.1558 162.691 19.3965C162.604 19.6371 162.571 19.8938 162.593 20.1487V24.5392H161.106L161.105 14.087Z" fill="white"/>
<path d="M176.268 22.5103C176.066 23.1973 175.628 23.7916 175.031 24.1892C174.434 24.5868 173.715 24.7624 173.001 24.6852C172.505 24.6982 172.011 24.6034 171.555 24.4072C171.099 24.211 170.691 23.9181 170.359 23.5489C170.028 23.1797 169.781 22.7431 169.636 22.2692C169.491 21.7954 169.451 21.2957 169.519 20.8049C169.453 20.3126 169.494 19.8119 169.638 19.3366C169.783 18.8614 170.029 18.4227 170.358 18.0503C170.688 17.6779 171.094 17.3804 171.549 17.1781C172.004 16.9757 172.497 16.8732 172.995 16.8774C175.092 16.8774 176.358 18.3065 176.358 20.6671V21.1848H171.035V21.268C171.011 21.5438 171.046 21.8215 171.137 22.0832C171.227 22.3449 171.372 22.5848 171.561 22.7876C171.75 22.9904 171.979 23.1515 172.234 23.2607C172.489 23.3699 172.765 23.4247 173.042 23.4216C173.398 23.4642 173.759 23.4003 174.078 23.238C174.397 23.0757 174.661 22.8224 174.836 22.5102L176.268 22.5103ZM171.034 20.0876H174.842C174.861 19.8353 174.827 19.5819 174.741 19.3436C174.656 19.1053 174.522 18.8875 174.347 18.7041C174.172 18.5207 173.961 18.3758 173.727 18.2786C173.492 18.1815 173.24 18.1343 172.987 18.1401C172.729 18.1369 172.474 18.1851 172.236 18.2818C171.997 18.3786 171.781 18.5219 171.599 18.7034C171.417 18.8849 171.273 19.1009 171.176 19.3386C171.079 19.5763 171.031 19.831 171.035 20.0876H171.034Z" fill="white"/>
</g>
<defs>
<clipPath id="clip0_557_7811">
<rect width="200.338" height="66.7792" fill="white" transform="translate(0.879883)"/>
</clipPath>
</defs>
</svg>
