<svg width="364" height="454" viewBox="0 0 364 454" fill="none" xmlns="http://www.w3.org/2000/svg">
<rect x="41.8838" y="265.113" width="29.7826" height="29.7826" rx="14.8913" fill="#00674C"/>
<path d="M52.3958 280.006C52.3958 277.573 54.3672 275.602 56.7994 275.602C59.2317 275.602 61.2027 277.573 61.2027 280.006C61.2027 282.438 59.2317 284.409 56.7994 284.409C54.3672 284.409 52.3958 282.438 52.3958 280.006Z" fill="white"/>
<path d="M59.8533 274.428C59.8533 273.034 60.9833 271.904 62.377 271.904C63.7711 271.904 64.9016 273.034 64.9016 274.428C64.9016 275.822 63.7711 276.952 62.377 276.952C60.9833 276.952 59.8533 275.822 59.8533 274.428ZM46.8479 280.006C46.8479 274.527 51.2864 270.085 56.7634 270.078V273.666C53.2671 273.672 50.4352 276.508 50.4352 280.006C50.4352 283.508 53.2739 286.346 56.775 286.346C60.2557 286.346 63.1153 283.535 63.1153 279.982L66.7026 279.984C66.7026 285.489 62.2583 289.933 56.775 289.933C51.2922 289.933 46.8479 285.489 46.8479 280.006" fill="white"/>
<rect x="110.383" y="245.258" width="65.5217" height="65.5217" rx="32.7609" fill="#2A8BEC"/>
<path d="M138.691 260.202C138.691 261.312 138.241 262.318 137.513 263.046C136.785 263.774 135.78 264.224 134.669 264.224C133.559 264.224 132.553 263.774 131.825 263.046C131.097 262.318 130.647 261.312 130.647 260.202C130.647 259.091 131.097 258.086 131.825 257.358C132.553 256.63 133.559 256.18 134.669 256.18C135.78 256.18 136.785 256.63 137.513 257.358C138.241 258.086 138.691 259.091 138.691 260.202Z" fill="#FFFFFE"/>
<path d="M155.641 260.202C155.641 261.312 155.191 262.318 154.463 263.046C153.735 263.774 152.73 264.224 151.619 264.224C150.508 264.224 149.503 263.774 148.775 263.046C148.047 262.318 147.597 261.312 147.597 260.202C147.597 259.091 148.047 258.086 148.775 257.358C149.503 256.63 150.508 256.18 151.619 256.18C152.73 256.18 153.735 256.63 154.463 257.358C155.191 258.086 155.641 259.091 155.641 260.202Z" fill="#FFFFFE"/>
<path d="M132.025 266.883C132.055 266.919 142.227 279.45 154.002 266.863L154.802 267.166C154.804 267.235 155.501 291.06 154.802 299.164L154.771 299.532L154.405 299.585C154.392 299.587 150.02 300.232 148.501 299.549L148.231 299.428L148.226 299.133C148.226 299.099 148.027 287.545 148.342 276.993C146.74 277.676 142.613 278.98 137.795 276.965C137.845 280.154 138.027 293.034 137.783 299.074L137.767 299.459L137.387 299.515C137.376 299.517 133.601 300.087 131.557 299.576L131.211 299.49L131.207 299.131C131.206 299.068 130.928 277.077 131.207 267.166L132.025 266.883L132.025 266.883Z" fill="#FFFFFE"/>
<rect x="201.221" y="212.992" width="58.5724" height="58.5724" rx="29.2862" fill="#005BE2"/>
<path d="M216.401 229.832V235.64H209.762V249.747H220.549V229.832H216.401ZM216.401 246.428H213.911V238.96H216.401V246.428Z" fill="white"/>
<path d="M226.358 235.641H222.209V249.747H226.358V235.641Z" fill="white"/>
<path d="M226.358 229.832H222.209V233.981H226.358V229.832Z" fill="white"/>
<path d="M228.017 235.641V249.747H234.656V251.406H228.017V254.725H238.804V235.641H228.017ZM234.656 246.428H232.166V238.96H234.656V246.428Z" fill="white"/>
<path d="M240.464 235.641V249.747H247.102V251.406H240.464V254.725H251.251V235.641H240.464ZM247.102 246.428H244.613V238.96H247.102V246.428Z" fill="white"/>
<rect x="252.347" y="41.7422" width="50.6304" height="50.6304" rx="25.3152" fill="#2A96FF"/>
<path d="M289.547 53.3438H277.662H265.778H263.95V55.1721V67.0562V78.9402V80.7686H265.778H277.662H289.547H291.375V78.9402V67.0562V55.1721V53.3438H289.547ZM289.547 78.9402H277.662V67.0562H265.778V55.1721H277.662V67.0562H289.547V78.9402Z" fill="white"/>
<rect x="205.688" y="128.113" width="42.6884" height="42.6884" rx="21.3442" fill="#E60D2E"/>
<path d="M236.214 152.375C236.294 151.951 236.349 151.525 236.351 151.098C236.372 145.749 233.451 143.663 230.358 141.88C231.255 146.566 228.357 149.458 224.759 148.444C230.019 139.879 222.365 139.858 224.704 133.672C221.106 136.215 217.497 143.335 217.509 148.533C217.511 149.906 217.65 151.181 217.907 152.35C215.318 153.383 213.692 154.845 213.692 156.467C213.692 159.587 219.684 162.131 227.032 162.131C234.382 162.131 240.372 159.587 240.372 156.467C240.372 154.858 238.768 153.406 236.214 152.375ZM221.927 145.577C220.933 150.043 223.599 153.371 226.169 153.403C229.067 153.424 230.785 150.729 231.603 147.195C233.144 148.366 233.939 149.997 234.04 151.66C234.037 151.658 234.033 151.658 234.028 151.656C234.145 153.54 232.325 158.609 226.488 158.609C221.278 158.609 219.782 154.909 219.875 151.697C219.869 151.699 219.868 151.699 219.862 151.701C219.914 149.911 220.531 147.844 221.927 145.577Z" fill="white"/>
<rect x="7.63354" y="105.281" width="73.4637" height="73.4637" rx="36.7319" fill="#273951"/>
<path d="M44.3654 117.523C30.8074 117.523 19.8774 128.513 19.8774 142.011C19.8774 155.51 30.8671 166.499 44.3654 166.499C47.8892 166.499 51.2339 165.723 54.28 164.409L65.5464 159.402C66.5404 158.96 67.1809 157.974 67.1809 156.886C67.1809 154.892 65.1267 153.56 63.3061 154.373L52.0701 159.392C49.7407 160.407 47.1128 161.004 44.3654 161.004C38.8737 161.004 33.9723 158.681 30.5017 154.99C28.9912 153.383 29.7775 150.895 31.7917 149.998C33.4032 149.28 35.2626 149.864 36.5991 151.016C38.6839 152.812 41.397 153.897 44.3654 153.897C46.0974 153.897 47.7698 153.539 49.2629 152.822L58.8742 148.529C63.9272 146.272 67.1809 141.255 67.1809 135.721C67.1809 133.958 66.8898 132.188 66.0676 130.628C61.9661 122.847 53.8066 117.523 44.3654 117.523ZM41.7836 144.879C39.6867 143 40.2243 139.583 42.797 138.439L45.5708 137.205C49.2301 135.577 49.8892 130.744 45.9177 130.226C45.409 130.16 44.8907 130.126 44.3654 130.126C37.7954 130.126 32.4798 135.441 32.4798 142.011C32.4798 143.646 31.7393 145.308 30.2458 145.973L30.0215 146.073C28.0307 146.96 25.6649 145.893 25.4539 143.724C25.4008 143.179 25.3723 142.627 25.3723 142.071C25.3723 131.619 33.8535 123.078 44.3654 123.078C51.6772 123.021 58.0208 127.16 61.2011 133.198C61.5395 133.84 61.6861 134.563 61.6861 135.289C61.6861 137.305 60.495 139.132 58.6495 139.944L45.9406 145.541C44.5451 146.156 42.9191 145.897 41.7836 144.879Z" fill="white"/>
<rect x="123.289" y="119.613" width="32.7609" height="32.7609" rx="16.3804" fill="#0078D7"/>
<path d="M135.507 137.911C135.507 138.404 135.58 138.852 135.731 139.255C135.891 139.652 136.099 140.007 136.364 140.317C136.63 140.627 136.94 140.893 137.305 141.117C137.657 141.341 138.041 141.526 138.45 141.67C138.857 141.818 139.282 141.926 139.714 141.997C140.152 142.067 140.578 142.102 141.01 142.102C141.554 142.102 142.059 142.061 142.539 141.974C143.019 141.885 143.486 141.766 143.947 141.616C144.407 141.466 144.852 141.287 145.297 141.082C145.745 140.877 146.199 140.653 146.666 140.404V144.742C146.145 144.998 145.633 145.212 145.121 145.398C144.609 145.577 144.097 145.734 143.576 145.858C143.054 145.986 142.526 146.082 141.985 146.14C141.445 146.197 140.891 146.229 140.315 146.229C139.548 146.229 138.805 146.14 138.092 145.964C137.378 145.788 136.71 145.535 136.083 145.202C135.456 144.87 134.883 144.467 134.362 143.993C133.837 143.52 133.392 142.985 133.018 142.393C132.644 141.802 132.356 141.152 132.148 140.455C131.946 139.757 131.844 139.015 131.844 138.228C131.844 137.387 131.959 136.587 132.189 135.822C132.423 135.054 132.752 134.357 133.187 133.717C133.619 133.077 134.147 132.508 134.771 132.012C135.395 131.516 136.096 131.11 136.876 130.796C136.451 131.222 136.118 131.724 135.884 132.309C135.644 132.892 135.494 133.477 135.427 134.062H142.715C142.715 133.327 142.641 132.687 142.491 132.137C142.341 131.586 142.101 131.129 141.765 130.767C141.432 130.402 141.003 130.127 140.475 129.948C139.948 129.766 139.311 129.673 138.565 129.673C137.686 129.673 136.806 129.801 135.926 130.067C135.046 130.323 134.211 130.69 133.418 131.154C132.624 131.625 131.895 132.178 131.229 132.812C130.564 133.451 130.004 134.139 129.55 134.885C129.646 134.021 129.838 133.189 130.103 132.399C130.369 131.609 130.721 130.873 131.143 130.191C131.565 129.519 132.061 128.905 132.628 128.355C133.194 127.805 133.821 127.331 134.515 126.947C135.209 126.563 135.945 126.253 136.745 126.045C137.545 125.863 138.396 125.754 139.292 125.754C139.816 125.754 140.338 125.802 140.859 125.895C141.381 125.991 141.89 126.119 142.385 126.285C143.371 126.624 144.251 127.098 145.025 127.699C145.799 128.307 146.449 128.998 146.976 129.788C147.504 130.578 147.904 131.452 148.179 132.402C148.454 133.352 148.595 134.341 148.595 135.368V137.911H135.507Z" fill="white"/>
<rect x="80.6011" y="0.046875" width="71.4782" height="71.4782" rx="35.7391" fill="#0063D1"/>
<path d="M96.468 30.0859C92.6868 30.0859 89.5359 31.5956 89.5359 36.1507C89.5359 39.7593 91.6547 42.0316 96.5655 42.0316C102.346 42.0316 102.716 38.4479 102.716 38.4479H99.9155C99.9155 38.4479 99.3151 40.3776 96.3947 40.3776C94.0161 40.3776 92.3054 38.8653 92.3054 36.7458H103.009V35.4156C103.009 33.3186 101.595 30.0859 96.468 30.0859ZM96.3702 31.7859C98.6343 31.7859 100.178 33.0914 100.178 35.048H92.3672C92.3672 32.9707 94.3821 31.7859 96.3702 31.7859Z" fill="white"/>
<path d="M103.007 25.6758V39.7449C103.007 40.5435 102.947 41.6648 102.947 41.6648H105.618C105.618 41.6648 105.714 40.8595 105.714 40.1234C105.714 40.1234 107.034 42.0669 110.623 42.0669C114.402 42.0669 116.969 39.5973 116.969 36.0595C116.969 32.7682 114.611 30.121 110.629 30.121C106.9 30.121 105.741 32.0162 105.741 32.0162V25.6758H103.007ZM109.939 31.8612C112.506 31.8612 114.138 33.6539 114.138 36.0595C114.138 38.6392 112.253 40.3267 109.958 40.3267C107.219 40.3267 105.741 38.3137 105.741 36.0824C105.741 34.0033 107.067 31.8612 109.939 31.8612Z" fill="white"/>
<path d="M123.608 30.0859C117.919 30.0859 117.555 33.0173 117.555 33.4859H120.386C120.386 33.4859 120.534 31.7745 123.413 31.7745C125.283 31.7745 126.732 32.5803 126.732 34.1291V34.6804H123.413C119.006 34.6804 116.676 35.8939 116.676 38.3562C116.676 40.7793 118.829 42.0978 121.738 42.0978C125.702 42.0978 126.979 40.036 126.979 40.036C126.979 40.8561 127.046 41.6642 127.046 41.6642H129.563C129.563 41.6642 129.466 40.6625 129.466 40.0217V34.4823C129.466 30.8502 126.353 30.0859 123.608 30.0859ZM126.732 36.3345V37.0696C126.732 38.0284 126.103 40.4121 122.403 40.4121C120.376 40.4121 119.507 39.4602 119.507 38.356C119.507 36.3474 122.433 36.3345 126.732 36.3345Z" fill="white"/>
<path d="M127.941 30.5469H131.127L135.698 39.1667L140.259 30.5469H143.144L134.837 45.8928H131.81L134.207 41.6149L127.941 30.5469Z" fill="white"/>
<rect x="0.684326" y="358.926" width="57.5797" height="57.5797" rx="28.7898" fill="#D3392C"/>
<path d="M32.7381 393.124C30.9882 391.821 29.0583 390.779 27.0089 390.03C25.4666 389.407 23.9958 388.62 22.622 387.681C19.3482 385.401 17.7113 382.572 17.7113 379.194C17.6296 377.16 18.2639 375.161 19.5037 373.547C19.722 373.276 19.9571 373.019 20.2076 372.777L13.2097 374.414C12.2331 374.64 11.3862 375.245 10.8551 376.095C10.3241 376.945 10.1524 377.972 10.3779 378.949L16.1726 403.985C16.3987 404.96 17.002 405.806 17.8504 406.336C18.6988 406.867 19.723 407.04 20.6986 406.817L23.5632 406.13L23.3423 406.072C21.4104 405.478 19.5495 404.674 17.7931 403.674L20.8132 396.996C23.2165 398.952 26.226 400.012 29.3252 399.991C32.599 399.991 34.2359 398.821 34.2359 396.496C34.2518 395.858 34.1256 395.225 33.8666 394.642C33.6076 394.058 33.2221 393.54 32.7381 393.124Z" fill="white"/>
<path d="M48.5673 396.487L42.7726 371.45C42.5465 370.475 41.9432 369.63 41.0948 369.099C40.2464 368.568 39.2222 368.396 38.2466 368.619L34.0315 369.592C34.5171 369.669 34.9973 369.759 35.472 369.863C37.3612 370.283 39.1899 370.94 40.9147 371.819L38.4594 378.366C36.626 376.795 34.0642 376.009 30.7904 376.009C27.8549 376.009 26.3844 377.177 26.3789 379.512C26.411 380.006 26.5589 380.486 26.8105 380.913C27.0622 381.339 27.4106 381.7 27.8276 381.968C29.7691 383.199 31.8451 384.204 34.0151 384.963C35.8985 385.655 37.6629 386.635 39.2451 387.869C39.85 388.352 40.3991 388.901 40.882 389.506C42.2939 391.344 43.0308 393.613 42.9691 395.93C43.0366 398.168 42.3281 400.36 40.9638 402.134L45.7354 401.029C46.2204 400.919 46.6787 400.713 47.0839 400.424C47.4891 400.136 47.8332 399.77 48.0964 399.347C48.3596 398.925 48.5367 398.455 48.6175 397.964C48.6983 397.473 48.6813 396.971 48.5673 396.487Z" fill="white"/>
<rect x="159.028" y="399.133" width="54.6014" height="54.6014" rx="27.3007" fill="#FF8901"/>
<path d="M196.999 430.086C195.623 429.505 194.476 428.326 193.621 427.131C192.64 425.759 191.635 424.411 190.535 423.133C189.502 421.932 188.402 420.781 187.208 419.741C186.016 418.703 184.719 417.715 183.291 417.029C182.333 416.567 181.347 416.22 180.326 415.928C180.21 415.895 179.899 415.754 179.807 415.896C179.75 415.984 179.793 416.149 179.805 416.246C179.83 416.458 179.855 416.669 179.881 416.88C180.187 419.413 180.302 422.087 179.516 424.547C179.094 425.873 178.324 427.084 177.298 428.023C176.447 428.801 175.233 429.588 174.027 429.532C173.805 429.522 173.581 429.484 173.36 429.411C172.068 428.975 171.994 427.581 171.987 426.434C171.976 425.202 172.126 423.971 172.432 422.776C172.524 422.408 172.639 422.048 172.762 421.687C174.173 417.596 177.437 414.264 181.539 412.811C183.075 412.267 184.701 411.992 186.329 411.992C191.125 411.992 195.686 414.457 198.322 418.462C198.982 419.466 199.511 420.554 199.9 421.687H199.895C200.019 422.048 200.135 422.408 200.229 422.776C200.532 423.971 200.682 425.202 200.674 426.434C200.655 428.754 199.911 431.314 196.999 430.086ZM203.812 421.378C201.621 413.788 194.626 408.235 186.329 408.235C178.033 408.235 171.037 413.788 168.846 421.378C168.382 422.985 168.129 424.679 168.129 426.434C168.129 427.561 168.237 428.664 168.434 429.734C169.987 438.211 177.405 444.633 186.329 444.633C195.254 444.633 202.672 438.211 204.227 429.734C204.423 428.664 204.529 427.561 204.529 426.434C204.529 424.679 204.274 422.985 203.812 421.378Z" fill="white"/>
<rect x="256.318" y="308.297" width="62.5434" height="62.5434" rx="31.2717" fill="#70AB69"/>
<path d="M294.06 330.665C294.511 330.937 295.032 331.098 295.596 331.098C297.224 331.098 298.548 329.777 298.548 328.146C298.548 326.516 297.224 325.191 295.596 325.191C293.964 325.191 292.641 326.516 292.641 328.146C292.641 328.283 292.652 328.421 292.673 328.553L289.028 331.195V318.723H286.151V325.306L282.487 322.653C282.52 322.476 282.539 322.296 282.539 322.108C282.539 320.478 281.214 319.155 279.583 319.155C277.954 319.155 276.632 320.478 276.632 322.108C276.632 323.738 277.954 325.062 279.583 325.062C280.099 325.062 280.583 324.929 281.005 324.699L286.151 328.423V336.642L282.493 333.993C282.521 333.832 282.539 333.665 282.539 333.497C282.539 331.862 281.214 330.541 279.583 330.541C277.954 330.541 276.632 331.862 276.632 333.497C276.632 335.126 277.954 336.449 279.583 336.449C280.115 336.449 280.613 336.307 281.043 336.063L286.151 339.76V348.524L282.497 345.876C282.522 345.716 282.539 345.555 282.539 345.39C282.539 343.76 281.214 342.436 279.584 342.436C277.954 342.436 276.632 343.76 276.632 345.39C276.632 347.02 277.954 348.343 279.584 348.343C280.12 348.343 280.621 348.197 281.053 347.95L286.152 351.64V360.418H286.39H288.916H289.028V357.526L294.013 353.918C294.47 354.207 295.011 354.379 295.596 354.379C297.224 354.379 298.548 353.056 298.548 351.426C298.548 349.795 297.224 348.474 295.596 348.474C293.964 348.474 292.641 349.795 292.641 351.426C292.641 351.545 292.652 351.661 292.662 351.776L289.028 354.411V345.647L294.022 342.027C294.48 342.316 295.016 342.486 295.596 342.486C297.224 342.486 298.548 341.164 298.548 339.53C298.548 337.9 297.224 336.577 295.596 336.577C293.964 336.577 292.641 337.9 292.641 339.53C292.641 339.653 292.652 339.773 292.664 339.896L289.028 342.53V334.312L294.06 330.665Z" fill="white"/>
<rect x="116.34" y="343.539" width="30.7753" height="30.7753" rx="15.3877" fill="#E19126"/>
<path fill-rule="evenodd" clip-rule="evenodd" d="M131.674 354.683C131.567 354.688 131.485 354.693 131.397 354.703C131.217 354.732 131.037 354.776 130.862 354.829C130.687 354.883 130.512 354.951 130.347 355.029C130.118 355.131 129.89 355.233 129.666 355.34C129.652 355.345 129.637 355.354 129.623 355.364C129.399 355.51 129.185 355.675 128.986 355.855C128.747 356.069 128.529 356.302 128.329 356.55C128.203 356.711 128.086 356.876 127.984 357.051C127.974 357.066 127.965 357.085 127.955 357.1C127.945 357.114 127.955 357.124 127.969 357.124C127.974 357.124 127.979 357.124 127.984 357.124C128.057 357.109 128.125 357.1 128.198 357.085C128.276 357.07 128.349 357.061 128.427 357.046C128.48 357.036 128.538 357.027 128.592 357.017C128.645 357.007 128.699 356.998 128.752 356.988C128.84 356.973 128.927 356.964 129.01 356.949C129.039 356.944 129.068 356.939 129.097 356.934C129.161 356.925 129.224 356.915 129.287 356.905C129.35 356.895 129.409 356.886 129.472 356.876C129.535 356.866 129.598 356.857 129.661 356.847C129.725 356.837 129.793 356.832 129.856 356.823C129.885 356.818 129.919 356.813 129.948 356.808C129.987 356.803 130.021 356.798 130.06 356.793C130.109 356.789 130.157 356.779 130.211 356.774C130.25 356.769 130.293 356.764 130.332 356.759C130.371 356.754 130.415 356.75 130.454 356.745C130.488 356.74 130.522 356.735 130.551 356.73C130.59 356.725 130.624 356.72 130.663 356.716C130.702 356.711 130.741 356.706 130.78 356.701C130.843 356.691 130.906 356.682 130.969 356.672C130.998 356.667 131.028 356.662 131.057 356.662C131.096 356.657 131.139 356.652 131.178 356.648C131.242 356.638 131.305 356.633 131.368 356.628C131.412 356.623 131.455 356.618 131.504 356.618C131.509 356.618 131.514 356.618 131.519 356.618C131.582 356.609 131.645 356.599 131.708 356.589C131.737 356.584 131.762 356.579 131.791 356.579C131.83 356.575 131.869 356.57 131.908 356.565C131.966 356.56 132.024 356.55 132.078 356.545C132.087 356.545 132.097 356.541 132.107 356.541C132.151 356.536 132.19 356.531 132.233 356.526C132.262 356.521 132.297 356.516 132.326 356.516C132.374 356.511 132.423 356.507 132.472 356.502C132.535 356.492 132.603 356.487 132.666 356.482C132.715 356.477 132.758 356.472 132.807 356.472C132.812 356.472 132.817 356.472 132.822 356.472C132.846 356.472 132.865 356.468 132.89 356.468C132.904 356.468 132.914 356.468 132.929 356.463C132.963 356.458 133.001 356.458 133.036 356.453C133.045 356.453 133.06 356.453 133.07 356.448C133.104 356.443 133.138 356.443 133.172 356.438C133.201 356.438 133.235 356.438 133.264 356.434C133.322 356.429 133.381 356.429 133.439 356.429C133.493 356.429 133.541 356.419 133.595 356.414C133.653 356.404 133.711 356.395 133.77 356.375C133.789 356.37 133.804 356.366 133.823 356.366C133.872 356.366 133.92 356.361 133.969 356.356C134.037 356.346 134.1 356.336 134.168 356.327C134.227 356.317 134.28 356.307 134.338 356.297C134.392 356.288 134.441 356.283 134.494 356.278C134.528 356.273 134.567 356.268 134.601 356.268C134.659 356.268 134.713 356.254 134.766 356.254C134.781 356.254 134.791 356.249 134.805 356.249C134.82 356.249 134.834 356.244 134.849 356.244C134.902 356.239 134.951 356.234 135.005 356.229C135.009 356.229 135.014 356.229 135.019 356.225C135.024 356.225 135.024 356.22 135.029 356.22C135.034 356.22 135.034 356.215 135.034 356.21C135.034 356.2 135.024 356.19 135.014 356.181C134.927 356.074 134.83 355.977 134.723 355.884C134.65 355.821 134.577 355.758 134.499 355.695C134.407 355.617 134.309 355.544 134.212 355.471C134.178 355.442 134.139 355.417 134.1 355.398C134.047 355.369 133.988 355.335 133.935 355.306C133.891 355.281 133.852 355.252 133.813 355.218C133.789 355.199 133.765 355.179 133.74 355.16C133.692 355.126 133.638 355.097 133.58 355.087C133.556 355.082 133.536 355.072 133.517 355.063C133.449 355.029 133.381 354.994 133.318 354.965C133.269 354.941 133.215 354.922 133.157 354.912C132.87 354.839 132.579 354.776 132.292 354.717C132.262 354.713 132.233 354.708 132.204 354.708C132.121 354.708 132.044 354.708 131.966 354.717C131.922 354.722 131.878 354.722 131.83 354.717C131.771 354.688 131.713 354.688 131.674 354.683ZM131.601 363.23C131.679 363.226 131.752 363.23 131.825 363.235C131.912 363.24 131.995 363.235 132.083 363.216C132.17 363.196 132.248 363.172 132.326 363.138C132.481 363.075 132.637 363.012 132.792 362.953C133.006 362.871 133.22 362.773 133.42 362.662C133.867 362.418 134.266 362.107 134.606 361.728C134.674 361.65 134.742 361.573 134.8 361.49C134.883 361.373 134.951 361.252 135.005 361.116C135.024 361.062 135.048 361.004 135.077 360.95C135.116 360.868 135.155 360.79 135.194 360.712C135.223 360.659 135.248 360.6 135.277 360.547C135.282 360.532 135.277 360.522 135.257 360.522C135.243 360.522 135.223 360.527 135.209 360.527C135.16 360.537 135.107 360.547 135.053 360.547C135.005 360.547 134.956 360.552 134.907 360.556C134.902 360.556 134.898 360.556 134.893 360.556C134.839 360.561 134.786 360.571 134.732 360.576C134.689 360.581 134.645 360.586 134.601 360.59C134.582 360.595 134.562 360.595 134.548 360.595C134.533 360.595 134.518 360.595 134.504 360.6C134.475 360.605 134.45 360.605 134.421 360.61C134.363 360.615 134.304 360.615 134.241 360.624C134.163 360.634 134.086 360.644 134.008 360.663C133.954 360.673 133.896 360.683 133.843 360.693C133.789 360.702 133.736 360.707 133.682 360.712C133.638 360.717 133.595 360.722 133.556 360.727C133.507 360.731 133.458 360.736 133.41 360.741C133.342 360.751 133.279 360.756 133.211 360.761C133.162 360.765 133.108 360.77 133.06 360.775C133.026 360.78 132.992 360.785 132.958 360.785C132.948 360.785 132.938 360.79 132.929 360.79C132.904 360.795 132.885 360.795 132.86 360.795C132.841 360.795 132.822 360.8 132.807 360.8C132.792 360.8 132.778 360.804 132.763 360.804C132.681 360.804 132.603 360.809 132.525 360.809C132.51 360.809 132.491 360.809 132.476 360.809C132.403 360.814 132.331 360.824 132.258 360.829C132.253 360.829 132.253 360.829 132.248 360.829C132.199 360.834 132.151 360.838 132.102 360.843C132.049 360.848 132 360.853 131.946 360.858C131.883 360.868 131.82 360.872 131.757 360.877C131.718 360.882 131.674 360.887 131.635 360.892C131.606 360.897 131.577 360.897 131.548 360.902C131.509 360.906 131.465 360.911 131.426 360.916C131.378 360.921 131.329 360.931 131.28 360.931C131.217 360.936 131.159 360.941 131.096 360.941C131.032 360.945 130.964 360.941 130.901 360.95C130.857 360.95 130.814 360.955 130.775 360.965C130.687 360.984 130.6 360.984 130.512 360.994C130.444 360.999 130.381 361.004 130.313 361.013C130.274 361.018 130.23 361.023 130.191 361.028C130.133 361.033 130.075 361.043 130.011 361.043C130.007 361.043 129.997 361.047 129.987 361.047C129.973 361.047 129.953 361.052 129.939 361.052C129.875 361.057 129.812 361.062 129.749 361.067C129.739 361.067 129.729 361.072 129.72 361.072C129.71 361.072 129.695 361.077 129.686 361.077C129.632 361.081 129.584 361.086 129.53 361.091C129.472 361.101 129.413 361.106 129.35 361.111C129.345 361.111 129.336 361.111 129.326 361.116C129.302 361.12 129.282 361.12 129.258 361.12C129.243 361.12 129.234 361.125 129.219 361.125C129.195 361.13 129.175 361.13 129.151 361.13C129.136 361.13 129.127 361.135 129.112 361.135C129.063 361.14 129.01 361.145 128.961 361.15C128.913 361.154 128.859 361.159 128.811 361.164C128.747 361.174 128.689 361.179 128.626 361.184C128.587 361.188 128.548 361.193 128.509 361.198C128.465 361.203 128.427 361.208 128.383 361.213C128.31 361.222 128.242 361.227 128.174 361.237C128.169 361.237 128.164 361.242 128.159 361.242C128.149 361.247 128.145 361.257 128.149 361.266C128.154 361.276 128.159 361.286 128.169 361.295C128.242 361.393 128.315 361.49 128.388 361.587C128.456 361.679 128.529 361.767 128.606 361.85C128.723 361.976 128.854 362.093 129 362.19C129.049 362.224 129.093 362.258 129.136 362.297C129.161 362.321 129.19 362.346 129.214 362.37C129.316 362.448 129.418 362.521 129.53 362.584C129.584 362.613 129.632 362.642 129.686 362.671C129.832 362.754 129.977 362.832 130.118 362.919C130.167 362.948 130.216 362.968 130.274 362.987C130.357 363.012 130.444 363.036 130.527 363.065C130.682 363.114 130.843 363.157 131.003 363.187C131.13 363.211 131.256 363.226 131.387 363.226C131.455 363.23 131.533 363.23 131.601 363.23ZM127.099 361.393C127.085 361.388 127.075 361.388 127.065 361.388C127.021 361.393 126.978 361.398 126.934 361.402C126.866 361.412 126.803 361.422 126.735 361.427C126.73 361.427 126.725 361.427 126.725 361.427C126.701 361.432 126.676 361.432 126.652 361.436C126.637 361.436 126.623 361.441 126.608 361.441C126.594 361.441 126.574 361.446 126.56 361.446C126.506 361.451 126.448 361.461 126.394 361.461C126.389 361.461 126.385 361.461 126.385 361.461C126.336 361.466 126.287 361.47 126.239 361.48C126.214 361.485 126.19 361.49 126.161 361.49C126.122 361.495 126.083 361.5 126.044 361.504C125.986 361.514 125.928 361.524 125.869 361.534C125.835 361.539 125.796 361.543 125.762 361.548C125.738 361.553 125.714 361.558 125.684 361.563C125.68 361.563 125.67 361.573 125.675 361.577C125.68 361.592 125.684 361.607 125.694 361.626C125.855 361.991 126.054 362.331 126.297 362.642C126.394 362.769 126.496 362.885 126.603 363.002C126.739 363.153 126.88 363.308 127.017 363.459C127.172 363.634 127.323 363.814 127.459 364.008C127.527 364.106 127.615 364.193 127.707 364.266C127.785 364.329 127.863 364.378 127.95 364.431C128.179 364.563 128.407 364.699 128.636 364.835C128.82 364.947 129.01 365.054 129.195 365.165C129.389 365.277 129.593 365.36 129.812 365.409C130.031 365.457 130.25 365.496 130.473 365.53C130.605 365.55 130.741 365.569 130.872 365.584C130.911 365.588 130.955 365.593 130.994 365.598C131.047 365.603 131.096 365.608 131.149 365.613C131.207 365.618 131.266 365.622 131.319 365.627C131.421 365.637 131.519 365.642 131.621 365.642C131.723 365.647 131.825 365.642 131.927 365.637C131.985 365.632 132.044 365.627 132.107 365.618C132.18 365.608 132.258 365.598 132.335 365.584C132.452 365.569 132.574 365.554 132.69 365.55C132.734 365.55 132.778 365.545 132.817 365.545C132.919 365.54 133.016 365.525 133.113 365.501C133.215 365.481 133.313 365.447 133.41 365.413C133.624 365.34 133.838 365.277 134.057 365.233C134.173 365.209 134.285 365.185 134.397 365.146C134.567 365.092 134.732 365.02 134.888 364.927C135.029 364.84 135.175 364.757 135.325 364.674C135.379 364.645 135.432 364.616 135.486 364.582C135.685 364.465 135.87 364.329 136.035 364.169C136.084 364.12 136.137 364.072 136.186 364.018C136.337 363.872 136.487 363.726 136.643 363.59C136.731 363.512 136.808 363.425 136.871 363.333C136.949 363.221 137.017 363.104 137.071 362.978C137.163 362.764 137.256 362.555 137.348 362.341C137.431 362.156 137.508 361.971 137.581 361.782C137.693 361.49 137.79 361.188 137.863 360.887C137.907 360.707 137.946 360.527 137.98 360.347C137.985 360.318 137.99 360.289 137.995 360.26C137.999 360.236 137.995 360.231 137.97 360.231C137.902 360.231 137.834 360.236 137.766 360.236C137.751 360.236 137.742 360.236 137.727 360.24C137.703 360.24 137.674 360.245 137.649 360.245C137.591 360.245 137.533 360.25 137.479 360.255C137.416 360.26 137.358 360.26 137.294 360.27C137.246 360.274 137.222 360.274 137.192 360.279C137.144 360.284 137.1 360.289 137.056 360.294C137.042 360.294 137.022 360.299 137.008 360.304C136.998 360.304 136.993 360.308 136.993 360.318C136.988 360.323 136.988 360.328 136.988 360.333C136.935 360.469 136.867 360.6 136.794 360.731C136.546 361.174 136.288 361.611 136.021 362.039C135.957 362.141 135.889 362.234 135.816 362.326C135.724 362.438 135.622 362.545 135.51 362.647C135.316 362.827 135.112 362.997 134.902 363.157C134.679 363.328 134.45 363.483 134.222 363.634C133.959 363.809 133.692 363.979 133.429 364.149C133.4 364.169 133.376 364.183 133.347 364.198C133.24 364.256 133.128 364.305 133.011 364.329C132.943 364.344 132.875 364.354 132.807 364.354C132.788 364.354 132.768 364.358 132.749 364.373C132.695 364.417 132.632 364.446 132.569 364.47C132.53 364.485 132.486 364.494 132.442 364.499C132.394 364.509 132.34 364.519 132.287 364.529C132.224 364.543 132.16 364.558 132.097 364.572C132.034 364.592 131.966 364.597 131.898 364.597C131.791 364.597 131.684 364.601 131.572 364.601C131.421 364.601 131.276 364.592 131.125 364.577C130.989 364.563 130.853 364.538 130.716 364.509C130.634 364.49 130.556 364.47 130.478 364.441C130.357 364.397 130.24 364.349 130.118 364.3C129.885 364.198 129.652 364.086 129.433 363.955C129.37 363.916 129.306 363.877 129.243 363.833C129.18 363.785 129.117 363.736 129.059 363.678C129 363.615 128.937 363.561 128.864 363.508C128.811 363.469 128.757 363.43 128.704 363.391C128.577 363.303 128.465 363.206 128.354 363.099C128.213 362.963 128.081 362.817 127.955 362.666C127.819 362.506 127.692 362.336 127.566 362.166C127.391 361.927 127.235 361.679 127.099 361.417C127.109 361.412 127.099 361.402 127.099 361.393ZM126.584 357.377C126.584 357.372 126.589 357.367 126.589 357.357C126.647 357.143 126.715 356.934 126.803 356.725C126.924 356.429 127.08 356.152 127.274 355.899C127.347 355.802 127.425 355.704 127.508 355.612C127.707 355.379 127.926 355.165 128.169 354.98C128.431 354.781 128.699 354.586 128.976 354.406C129.248 354.226 129.53 354.061 129.822 353.915C129.963 353.847 130.104 353.784 130.25 353.73C130.454 353.657 130.663 353.604 130.877 353.57C130.969 353.555 131.057 353.546 131.149 353.541C131.266 353.536 131.387 353.536 131.509 353.541C131.572 353.546 131.63 353.551 131.694 353.555C131.762 353.565 131.825 353.57 131.893 353.58C131.961 353.589 132.029 353.599 132.097 353.609C132.16 353.619 132.228 353.628 132.292 353.638C132.36 353.648 132.428 353.657 132.496 353.667C132.559 353.677 132.617 353.682 132.681 353.682C132.754 353.682 132.822 353.692 132.895 353.696C132.958 353.701 133.026 353.711 133.084 353.735C133.288 353.813 133.488 353.891 133.687 353.974C133.799 354.022 133.906 354.066 134.013 354.124C134.115 354.173 134.207 354.231 134.3 354.299C134.338 354.328 134.377 354.358 134.416 354.387C134.786 354.664 135.146 354.946 135.5 355.233C135.554 355.276 135.607 355.325 135.651 355.379C135.666 355.393 135.68 355.408 135.69 355.427C135.782 355.539 135.88 355.646 135.977 355.758C136.079 355.874 136.176 355.991 136.269 356.113C136.273 356.118 136.278 356.122 136.283 356.127C136.317 356.127 136.351 356.127 136.385 356.122C136.414 356.118 136.439 356.118 136.468 356.113C136.483 356.113 136.492 356.113 136.507 356.108C136.541 356.103 136.575 356.103 136.609 356.098C136.628 356.098 136.648 356.098 136.662 356.093C136.711 356.088 136.76 356.088 136.808 356.084C136.847 356.084 136.891 356.079 136.93 356.079C136.959 356.079 136.983 356.074 137.012 356.074C137.047 356.074 137.085 356.074 137.119 356.069C137.149 356.064 137.178 356.064 137.207 356.064C137.222 356.064 137.236 356.064 137.251 356.059C137.26 356.059 137.265 356.05 137.265 356.04C137.256 356.015 137.251 355.996 137.241 355.972C137.183 355.826 137.115 355.685 137.051 355.544C136.983 355.403 136.92 355.262 136.857 355.116C136.799 354.985 136.74 354.853 136.677 354.727C136.565 354.499 136.444 354.27 136.308 354.056C136.239 353.944 136.171 353.833 136.103 353.721C136.064 353.657 136.026 353.599 135.982 353.546C135.894 353.434 135.797 353.332 135.675 353.254C135.656 353.244 135.637 353.23 135.622 353.215C135.437 353.089 135.253 352.972 135.053 352.87C134.839 352.758 134.62 352.671 134.387 352.607C134.139 352.539 133.891 352.476 133.638 352.418C133.424 352.369 133.211 352.316 132.997 352.267C132.788 352.218 132.574 352.17 132.36 352.145C132.287 352.136 132.219 352.131 132.146 352.131C131.956 352.126 131.767 352.136 131.577 352.145C131.523 352.15 131.47 352.15 131.421 352.155C131.329 352.165 131.232 352.175 131.139 352.184C131.062 352.194 130.989 352.199 130.911 352.214C130.823 352.223 130.736 352.238 130.644 352.252C130.517 352.272 130.391 352.306 130.269 352.35C130.24 352.359 130.216 352.369 130.186 352.379C130.123 352.403 130.055 352.413 129.987 352.413C129.963 352.413 129.939 352.413 129.914 352.413C129.87 352.413 129.827 352.413 129.788 352.418C129.695 352.423 129.608 352.452 129.53 352.5C129.52 352.51 129.506 352.515 129.491 352.525C129.433 352.559 129.375 352.588 129.306 352.598C129.282 352.602 129.258 352.607 129.234 352.612C129.127 352.641 129.025 352.68 128.927 352.734C128.864 352.768 128.801 352.807 128.738 352.846C128.388 353.064 128.042 353.288 127.692 353.507C127.566 353.589 127.454 353.687 127.362 353.803C127.323 353.857 127.279 353.91 127.23 353.954C127.153 354.032 127.075 354.105 126.992 354.173C126.939 354.217 126.89 354.265 126.842 354.319C126.764 354.406 126.686 354.499 126.613 354.596C126.399 354.878 126.224 355.184 126.083 355.505C125.996 355.704 125.913 355.904 125.835 356.103C125.753 356.312 125.67 356.526 125.582 356.735C125.49 356.949 125.422 357.168 125.373 357.391C125.359 357.435 125.354 357.474 125.344 357.513C125.344 357.527 125.339 357.537 125.339 357.552C125.339 357.562 125.349 357.566 125.359 357.566C125.364 357.566 125.368 357.566 125.373 357.566C125.456 357.552 125.543 357.532 125.626 357.523C125.694 357.513 125.762 357.503 125.83 357.493C125.869 357.489 125.908 357.484 125.947 357.479C125.976 357.474 126.005 357.469 126.034 357.464C126.073 357.459 126.107 357.455 126.146 357.45C126.21 357.44 126.268 357.435 126.331 357.425C126.399 357.416 126.467 357.406 126.535 357.396C126.555 357.391 126.569 357.387 126.584 357.377ZM132.063 350.551C132.053 350.551 132.044 350.556 132.034 350.556C132.019 350.556 132.01 350.556 131.995 350.556C131.883 350.561 131.776 350.565 131.664 350.57C131.592 350.575 131.519 350.58 131.446 350.585C131.397 350.59 131.344 350.595 131.295 350.599C131.246 350.604 131.198 350.609 131.149 350.614C131.062 350.624 130.969 350.633 130.882 350.648C130.78 350.658 130.682 350.672 130.58 350.687C130.512 350.697 130.444 350.706 130.376 350.716C130.308 350.726 130.245 350.736 130.177 350.745C130.104 350.755 130.026 350.765 129.953 350.774C129.623 350.813 129.297 350.872 128.976 350.964C128.747 351.037 128.509 351.124 128.286 351.231C128.135 351.304 127.989 351.377 127.833 351.44C127.765 351.47 127.697 351.499 127.624 351.523C127.43 351.591 127.26 351.693 127.109 351.829C126.851 352.058 126.579 352.267 126.302 352.466C126.015 352.675 125.743 352.894 125.475 353.128C125.305 353.278 125.145 353.439 124.994 353.614C124.814 353.833 124.649 354.066 124.508 354.314C124.313 354.64 124.163 354.98 124.036 355.34C123.963 355.539 123.9 355.748 123.847 355.952C123.754 356.278 123.677 356.604 123.608 356.934C123.57 357.124 123.531 357.314 123.497 357.503C123.477 357.615 123.458 357.722 123.438 357.834C123.438 357.844 123.433 357.853 123.429 357.868C123.429 357.878 123.424 357.882 123.414 357.882C123.395 357.887 123.375 357.892 123.36 357.892C123.278 357.902 123.2 357.916 123.117 357.931C122.938 357.96 122.758 357.999 122.583 358.048C122.471 358.077 122.364 358.101 122.252 358.126C122.179 358.14 122.106 358.155 122.033 358.164C121.985 358.169 121.941 358.179 121.897 358.184C121.858 358.189 121.824 358.208 121.79 358.228C121.771 358.237 121.756 358.257 121.746 358.276C121.737 358.305 121.727 358.335 121.717 358.359C121.707 358.388 121.707 358.417 121.722 358.446C121.727 358.451 121.727 358.461 121.732 358.466C121.746 358.505 121.751 358.544 121.737 358.587C121.732 358.597 121.732 358.607 121.727 358.617C121.707 358.665 121.707 358.719 121.717 358.772C121.722 358.792 121.727 358.806 121.722 358.826C121.717 358.884 121.732 358.937 121.737 358.991C121.746 359.054 121.756 359.117 121.756 359.185C121.756 359.234 121.756 359.283 121.756 359.331C121.756 359.38 121.756 359.433 121.761 359.482C121.766 359.526 121.766 359.574 121.766 359.618C121.766 359.667 121.751 359.715 121.717 359.749C121.673 359.798 121.635 359.851 121.596 359.9C121.586 359.91 121.581 359.92 121.571 359.929C121.562 359.949 121.552 359.968 121.552 359.992C121.552 360.017 121.552 360.046 121.552 360.07C121.552 360.095 121.552 360.124 121.542 360.148C121.532 360.192 121.532 360.231 121.532 360.274C121.532 360.304 121.537 360.333 121.542 360.362C121.547 360.381 121.547 360.401 121.547 360.415C121.547 360.474 121.547 360.527 121.542 360.586C121.537 360.649 121.532 360.717 121.528 360.78C121.523 360.838 121.523 360.897 121.528 360.95C121.532 360.97 121.532 360.994 121.532 361.018C121.532 361.043 121.532 361.062 121.523 361.081C121.518 361.125 121.518 361.15 121.518 361.174C121.523 361.218 121.513 361.261 121.503 361.305C121.494 361.344 121.494 361.383 121.503 361.422V361.427C121.513 361.48 121.513 361.48 121.498 361.529C121.494 361.539 121.494 361.548 121.489 361.563C121.489 361.577 121.484 361.582 121.469 361.582V361.626C121.484 361.631 121.494 361.641 121.494 361.655C121.498 361.679 121.503 361.704 121.503 361.728C121.508 361.748 121.518 361.762 121.532 361.772C121.547 361.782 121.562 361.786 121.576 361.791C121.639 361.816 121.707 361.83 121.771 361.83C121.819 361.83 121.873 361.825 121.921 361.82C121.96 361.816 121.999 361.811 122.038 361.806C122.101 361.796 122.164 361.791 122.228 361.777C122.276 361.767 122.33 361.757 122.383 361.762C122.393 361.762 122.403 361.762 122.412 361.762C122.422 361.762 122.437 361.767 122.442 361.772C122.466 361.796 122.49 361.82 122.51 361.855C122.519 361.869 122.524 361.884 122.529 361.903C122.539 361.932 122.539 361.957 122.544 361.986C122.549 362.015 122.553 362.049 122.553 362.078C122.558 362.093 122.568 362.107 122.583 362.107C122.612 362.112 122.641 362.112 122.67 362.098C122.724 362.073 122.782 362.064 122.835 362.049C122.923 362.034 123.006 362.015 123.093 362C123.181 361.986 123.268 361.966 123.356 361.952C123.467 361.932 123.579 361.908 123.691 361.889C123.711 361.884 123.73 361.884 123.745 361.884C123.749 361.889 123.749 361.889 123.754 361.893C123.847 362.112 123.954 362.321 124.056 362.535C124.109 362.642 124.163 362.754 124.211 362.866C124.226 362.9 124.245 362.929 124.27 362.963C124.474 363.26 124.707 363.537 124.95 363.799C125.257 364.13 125.577 364.451 125.908 364.757C126.083 364.922 126.263 365.078 126.453 365.233C126.803 365.52 127.172 365.783 127.561 366.011C127.858 366.186 128.164 366.352 128.475 366.493C128.772 366.629 129.078 366.746 129.389 366.838C129.54 366.882 129.686 366.921 129.836 366.955C130.036 367.003 130.235 367.047 130.439 367.086C130.575 367.115 130.712 367.139 130.848 367.159C130.96 367.173 131.071 367.193 131.183 367.207C131.256 367.217 131.334 367.227 131.407 367.237C131.494 367.246 131.587 367.256 131.674 367.266C131.737 367.271 131.801 367.275 131.864 367.28C131.937 367.285 132.005 367.29 132.078 367.295C132.087 367.295 132.102 367.295 132.107 367.305H132.836C132.846 367.295 132.86 367.295 132.875 367.295C132.924 367.29 132.967 367.285 133.016 367.285C133.172 367.271 133.327 367.246 133.483 367.212C133.531 367.203 133.585 367.188 133.634 367.173C133.677 367.164 133.721 367.154 133.765 367.154C133.809 367.154 133.852 367.159 133.891 367.173C133.925 367.188 133.959 367.188 133.998 367.183C134.1 367.168 134.202 367.154 134.309 367.139C134.373 367.13 134.431 367.125 134.494 367.115C134.659 367.096 134.825 367.062 134.985 367.013C135.398 366.891 135.802 366.746 136.196 366.575C136.594 366.405 136.969 366.186 137.309 365.914C137.499 365.768 137.679 365.613 137.854 365.447C138.029 365.282 138.189 365.102 138.34 364.913C138.408 364.82 138.476 364.728 138.534 364.631C138.588 364.548 138.641 364.465 138.7 364.383C138.738 364.329 138.777 364.271 138.811 364.213C138.85 364.149 138.884 364.081 138.909 364.013C138.923 363.965 138.938 363.916 138.943 363.867C138.943 363.853 138.947 363.833 138.947 363.819C138.947 363.799 138.957 363.785 138.972 363.77C138.977 363.76 138.986 363.755 138.996 363.746C139.2 363.527 139.341 363.269 139.414 362.978C139.458 362.798 139.502 362.613 139.541 362.433C139.594 362.171 139.652 361.908 139.706 361.645C139.759 361.388 139.813 361.13 139.862 360.872C139.891 360.731 139.915 360.586 139.939 360.445C139.954 360.362 139.964 360.279 139.973 360.197V360.187C139.978 360.172 139.983 360.163 139.998 360.163C140.012 360.163 140.027 360.163 140.041 360.163C140.114 360.163 140.182 360.163 140.255 360.163C140.304 360.163 140.348 360.163 140.396 360.163C140.411 360.163 140.421 360.163 140.435 360.163C140.474 360.158 140.503 360.143 140.518 360.104C140.532 360.075 140.542 360.046 140.547 360.017C140.552 359.988 140.562 359.954 140.581 359.929C140.61 359.885 140.644 359.856 140.698 359.851C140.722 359.847 140.742 359.847 140.766 359.842C140.81 359.837 140.848 359.832 140.892 359.827C140.936 359.822 140.98 359.817 141.023 359.808C141.077 359.798 141.135 359.793 141.189 359.783C141.208 359.779 141.228 359.769 141.233 359.744C141.237 359.735 141.237 359.725 141.242 359.715C141.247 359.701 141.252 359.686 141.257 359.676C141.267 359.657 141.281 359.642 141.301 359.638C141.32 359.633 141.344 359.628 141.369 359.628C141.388 359.628 141.408 359.628 141.422 359.628C141.446 359.628 141.461 359.613 141.471 359.594C141.481 359.574 141.485 359.555 141.485 359.535C141.485 359.521 141.485 359.506 141.485 359.492C141.485 359.453 141.5 359.424 141.534 359.399C141.568 359.38 141.587 359.346 141.597 359.312C141.607 359.283 141.617 359.253 141.626 359.229C141.631 359.205 141.631 359.185 141.617 359.166C141.612 359.161 141.607 359.151 141.602 359.142C141.587 359.112 141.573 359.083 141.573 359.054C141.573 359.03 141.568 359.01 141.563 358.986C141.558 358.957 141.544 358.937 141.524 358.923C141.519 358.918 141.51 358.913 141.5 358.908C141.471 358.894 141.437 358.884 141.408 358.869C141.398 358.865 141.383 358.865 141.369 358.865C141.354 358.865 141.344 358.86 141.33 358.855C141.325 358.85 141.32 358.85 141.315 358.845C141.31 358.84 141.31 358.83 141.315 358.826C141.32 358.821 141.325 358.821 141.33 358.816C141.378 358.806 141.422 358.801 141.466 358.816C141.495 358.826 141.519 358.83 141.549 358.84C141.568 358.845 141.587 358.845 141.602 358.835C141.631 358.821 141.656 358.801 141.685 358.787C141.704 358.772 141.719 358.758 141.733 358.733C141.743 358.714 141.743 358.694 141.738 358.675C141.733 358.665 141.733 358.655 141.728 358.646C141.724 358.626 141.724 358.607 141.738 358.592C141.758 358.568 141.762 358.539 141.758 358.51C141.753 358.495 141.753 358.485 141.748 358.471C141.743 358.446 141.743 358.427 141.748 358.403C141.777 358.31 141.806 358.218 141.845 358.13C141.855 358.106 141.869 358.082 141.884 358.057C141.903 358.028 141.903 357.994 141.889 357.96C141.879 357.936 141.865 357.912 141.85 357.887C141.821 357.848 141.787 357.814 141.753 357.78C141.728 357.756 141.699 357.741 141.66 357.741C141.617 357.741 141.587 357.722 141.563 357.683C141.553 357.668 141.544 357.654 141.534 357.634C141.519 357.61 141.519 357.586 141.539 357.562C141.544 357.552 141.553 357.547 141.558 357.537C141.563 357.527 141.573 357.523 141.578 357.513C141.587 357.503 141.592 357.489 141.592 357.474C141.592 357.469 141.592 357.459 141.592 357.45C141.592 357.411 141.607 357.377 141.636 357.352C141.651 357.338 141.67 357.323 141.685 357.304C141.714 357.275 141.733 357.246 141.753 357.211C141.762 357.187 141.767 357.163 141.772 357.134C141.777 357.1 141.772 357.066 141.767 357.032C141.762 356.998 141.767 356.964 141.782 356.934C141.797 356.9 141.816 356.866 141.831 356.832C141.869 356.754 141.908 356.682 141.947 356.604C141.957 356.579 141.972 356.555 141.972 356.531C141.972 356.516 141.976 356.507 141.986 356.497V356.361C141.976 356.356 141.972 356.346 141.972 356.336C141.967 356.268 141.928 356.22 141.884 356.176C141.874 356.166 141.86 356.161 141.845 356.161C141.792 356.161 141.738 356.161 141.69 356.161C141.675 356.161 141.66 356.161 141.646 356.161C141.631 356.161 141.617 356.156 141.607 356.142C141.587 356.122 141.573 356.103 141.563 356.079C141.553 356.054 141.544 356.035 141.534 356.011C141.524 355.981 141.505 355.947 141.485 355.923C141.481 355.918 141.471 355.909 141.466 355.899C141.446 355.87 141.417 355.86 141.383 355.855C141.354 355.855 141.325 355.85 141.296 355.85C141.247 355.85 141.194 355.85 141.145 355.86C141.135 355.86 141.121 355.86 141.111 355.865C141.082 355.865 141.053 355.865 141.023 355.874C141.019 355.874 141.014 355.874 141.014 355.874C140.926 355.879 140.844 355.884 140.756 355.889C140.727 355.889 140.693 355.894 140.664 355.894C140.635 355.894 140.605 355.899 140.576 355.899C140.528 355.899 140.484 355.899 140.435 355.899C140.406 355.899 140.372 355.904 140.343 355.904C140.275 355.904 140.207 355.904 140.139 355.909C140.129 355.909 140.119 355.909 140.109 355.909C140.071 355.904 140.037 355.889 140.007 355.86C139.998 355.85 139.988 355.84 139.978 355.826C139.959 355.802 139.944 355.802 139.93 355.802C139.896 355.802 139.862 355.811 139.823 355.821C139.74 355.836 139.662 355.855 139.58 355.87C139.575 355.87 139.57 355.87 139.565 355.87C139.555 355.87 139.545 355.865 139.541 355.855C139.536 355.845 139.536 355.836 139.531 355.826C139.502 355.729 139.477 355.627 139.453 355.529C139.4 355.33 139.341 355.131 139.273 354.936C139.123 354.518 138.928 354.119 138.68 353.75C138.617 353.653 138.549 353.56 138.476 353.468C138.393 353.361 138.315 353.249 138.243 353.132C138.194 353.059 138.15 352.987 138.106 352.914C138.024 352.782 137.931 352.656 137.824 352.549C137.79 352.515 137.756 352.486 137.722 352.452C137.489 352.238 137.231 352.048 136.964 351.878C136.492 351.577 135.992 351.334 135.466 351.144C135.257 351.066 135.043 351.003 134.83 350.945C134.659 350.896 134.484 350.847 134.309 350.804C134.154 350.765 133.993 350.736 133.838 350.711C133.76 350.701 133.687 350.692 133.609 350.682C133.551 350.677 133.493 350.672 133.429 350.663C133.376 350.658 133.322 350.653 133.269 350.648C133.196 350.643 133.118 350.638 133.045 350.633C132.972 350.629 132.904 350.624 132.831 350.619C132.783 350.614 132.739 350.609 132.69 350.609C132.608 350.604 132.53 350.59 132.452 350.575C132.408 350.57 132.369 350.565 132.326 350.561C132.316 350.561 132.306 350.561 132.301 350.551H132.063Z" fill="white"/>
</svg>
