<svg width="48" height="48" viewBox="0 0 48 48" fill="none" xmlns="http://www.w3.org/2000/svg">
<path d="M35.9066 5H12.0934C7.50682 5 3.77539 8.73143 3.77539 13.318C3.77539 17.9045 7.50682 21.6359 12.0934 21.6359H18.1499V28.3561L17.8542 28.108C16.3924 26.8814 14.105 26.9811 12.7556 28.3307C11.3414 29.7448 11.434 31.9923 12.9718 33.2826L18.1498 37.6275V41.815C18.1498 42.4694 18.6804 43 19.3349 43H33.5552C34.2097 43 34.7403 42.4694 34.7403 41.815V28.4987C34.7403 26.7088 33.4009 25.1921 31.6247 24.9709L25.26 24.1779V21.6358H35.9066C40.4931 21.6358 44.2245 17.9044 44.2245 13.3178C44.2245 8.73127 40.4931 5 35.9066 5ZM20.5199 40.6299V38.2599H32.3702V40.6299H20.5199ZM31.3317 27.3227C31.9238 27.3965 32.3703 27.9021 32.3703 28.4987V35.8898H19.7662L14.4952 31.467C14.0273 31.0744 13.999 30.439 14.4314 30.0064C14.9171 29.5208 15.8046 29.4821 16.3308 29.9236L18.5732 31.8052C19.3424 32.4505 20.52 31.9031 20.52 30.8974V15.7443C20.52 15.0909 21.0516 14.5593 21.705 14.5593C22.3584 14.5593 22.89 15.0909 22.89 15.7443V25.2245C22.89 25.8223 23.3354 26.3265 23.9286 26.4005L31.3317 27.3227ZM35.9066 19.2658H25.26V15.7443C25.26 13.784 23.6652 12.1892 21.7049 12.1892C19.7446 12.1892 18.1498 13.784 18.1498 15.7443V19.2658H12.0933C8.81367 19.2658 6.14545 16.5976 6.14545 13.318C6.14545 10.0384 8.81367 7.37006 12.0934 7.37006H35.9066C39.1862 7.37006 41.8544 10.0383 41.8544 13.318C41.8544 16.5977 39.1862 19.2658 35.9066 19.2658Z" fill="#FF5E48"/>
<path d="M35.0042 10.0874L31.102 13.9895L29.5698 12.4575C29.1071 11.9947 28.3568 11.9947 27.894 12.4575C27.4312 12.9202 27.4312 13.6705 27.894 14.1333L30.264 16.5034C30.7267 16.9662 31.4771 16.9663 31.9399 16.5034L36.68 11.7633C37.1428 11.3005 37.1428 10.5502 36.68 10.0874C36.2173 9.62452 35.467 9.62452 35.0042 10.0874Z" fill="#FF5E48"/>
</svg>
