<svg width="85" height="84" viewBox="0 0 85 84" fill="none" xmlns="http://www.w3.org/2000/svg">
<path d="M63.0418 8.96924H21.6059C13.6252 8.96924 7.13232 15.4621 7.13232 23.4428C7.13232 31.4236 13.6252 37.9164 21.6059 37.9164H32.1445V49.6098L31.63 49.1781C29.0864 47.0437 25.1062 47.2172 22.7582 49.5655C20.2975 52.0261 20.4586 55.9369 23.1344 58.182L32.1444 65.7424V73.0287C32.1444 74.1675 33.0676 75.0907 34.2064 75.0907H58.9504C60.0892 75.0907 61.0124 74.1675 61.0124 73.0287V49.8579C61.0124 46.7434 58.6818 44.1044 55.5911 43.7193L44.5164 42.3396V37.9162H63.0418C71.0226 37.9162 77.5153 31.4233 77.5153 23.4426C77.5153 15.4618 71.0226 8.96924 63.0418 8.96924ZM36.2684 70.9667V66.8427H56.8884V70.9667H36.2684ZM55.0814 47.8117C56.1116 47.9401 56.8885 48.8197 56.8885 49.8579V62.7187H34.957L25.7852 55.0228C24.9711 54.3397 24.9218 53.2341 25.6742 52.4814C26.5194 51.6364 28.0637 51.5691 28.9792 52.3372L32.8811 55.6113C34.2195 56.7341 36.2685 55.7816 36.2685 54.0317V27.6647C36.2685 26.5277 37.1935 25.6027 38.3305 25.6027C39.4675 25.6027 40.3925 26.5277 40.3925 27.6647V44.1607C40.3925 45.2009 41.1674 46.0782 42.1997 46.2069L55.0814 47.8117ZM63.0418 33.7923H44.5164V27.6647C44.5164 24.2537 41.7414 21.4787 38.3304 21.4787C34.9194 21.4787 32.1444 24.2537 32.1444 27.6647V33.7923H21.6058C15.8991 33.7923 11.2563 29.1495 11.2563 23.4428C11.2563 17.7362 15.8991 13.0932 21.6059 13.0932H63.0418C68.7485 13.0932 73.3913 17.736 73.3913 23.4428C73.3913 29.1496 68.7485 33.7923 63.0418 33.7923Z" fill="#49D6F4"/>
<path d="M61.4722 17.8213L54.6822 24.6112L52.0161 21.9453C51.211 21.1401 49.9053 21.1401 49.1001 21.9453C48.2948 22.7506 48.2948 24.0562 49.1001 24.8614L53.2241 28.9854C54.0292 29.7907 55.3349 29.7908 56.1401 28.9854L64.3881 20.7374C65.1934 19.9322 65.1934 18.6266 64.3881 17.8213C63.583 17.0159 62.2773 17.0159 61.4722 17.8213Z" fill="#49D6F4"/>
</svg>
