<svg width="36" height="36" viewBox="0 0 36 36" fill="none" xmlns="http://www.w3.org/2000/svg">
<rect width="36" height="36" rx="18" fill="#D4D4D4"/>
<path d="M14.2511 18C14.2511 15.929 15.9295 14.2497 18.0005 14.2497C20.0715 14.2497 21.7508 15.929 21.7508 18C21.7508 20.071 20.0715 21.7503 18.0005 21.7503C15.9295 21.7503 14.2511 20.071 14.2511 18ZM12.2237 18C12.2237 21.1905 14.81 23.7767 18.0005 23.7767C21.191 23.7767 23.7772 21.1905 23.7772 18C23.7772 14.8095 21.191 12.2233 18.0005 12.2233C14.81 12.2233 12.2237 14.8095 12.2237 18ZM22.6559 11.9942C22.6558 12.2612 22.7349 12.5223 22.8831 12.7443C23.0314 12.9664 23.2422 13.1395 23.4888 13.2418C23.7354 13.3441 24.0069 13.3709 24.2688 13.3189C24.5307 13.2669 24.7713 13.1385 24.9601 12.9497C25.149 12.761 25.2777 12.5205 25.3299 12.2587C25.3821 11.9968 25.3554 11.7253 25.2534 11.4786C25.1513 11.2319 24.9783 11.021 24.7564 10.8726C24.5344 10.7241 24.2735 10.6449 24.0065 10.6447H24.0059C23.648 10.6449 23.3048 10.7871 23.0517 11.0401C22.7986 11.2932 22.6562 11.6363 22.6559 11.9942ZM13.4555 27.1572C12.3587 27.1073 11.7625 26.9246 11.3663 26.7702C10.8411 26.5657 10.4663 26.3222 10.0723 25.9287C9.67828 25.5352 9.43438 25.1608 9.2308 24.6356C9.07636 24.2396 8.89366 23.6433 8.8438 22.5464C8.78926 21.3606 8.77837 21.0044 8.77837 18.0001C8.77837 14.9958 8.79016 14.6406 8.8438 13.4537C8.89375 12.3569 9.0778 11.7617 9.2308 11.3646C9.43528 10.8393 9.67882 10.4646 10.0723 10.0705C10.4658 9.67653 10.8402 9.43263 11.3663 9.22905C11.7623 9.07461 12.3587 8.89191 13.4555 8.84205C14.6413 8.78751 14.9975 8.77662 18.0005 8.77662C21.0034 8.77662 21.36 8.78841 22.5468 8.84205C23.6437 8.892 24.2388 9.07605 24.636 9.22905C25.1612 9.43263 25.536 9.67707 25.93 10.0705C26.324 10.464 26.567 10.8393 26.7715 11.3646C26.926 11.7606 27.1087 12.3569 27.1585 13.4537C27.2131 14.6406 27.224 14.9958 27.224 18.0001C27.224 21.0044 27.2131 21.3596 27.1585 22.5464C27.1086 23.6433 26.925 24.2394 26.7715 24.6356C26.567 25.1608 26.3235 25.5356 25.93 25.9287C25.5365 26.3218 25.1612 26.5657 24.636 26.7702C24.24 26.9247 23.6437 27.1074 22.5468 27.1572C21.361 27.2118 21.0048 27.2227 18.0005 27.2227C14.9962 27.2227 14.641 27.2118 13.4555 27.1572ZM13.3623 6.81813C12.1647 6.87267 11.3463 7.06257 10.6316 7.34067C9.89149 7.62786 9.26491 8.01315 8.63878 8.63829C8.01265 9.26343 7.62835 9.891 7.34116 10.6312C7.06306 11.3463 6.87316 12.1642 6.81862 13.3618C6.76318 14.5614 6.75049 14.9449 6.75049 18C6.75049 21.0551 6.76318 21.4386 6.81862 22.6381C6.87316 23.8359 7.06306 24.6537 7.34116 25.3688C7.62835 26.1085 8.01274 26.7368 8.63878 27.3617C9.26482 27.9866 9.89149 28.3713 10.6316 28.6593C11.3477 28.9374 12.1647 29.1273 13.3623 29.1819C14.5625 29.2364 14.9453 29.25 18.0005 29.25C21.0556 29.25 21.4391 29.2373 22.6386 29.1819C23.8364 29.1273 24.6542 28.9374 25.3693 28.6593C26.109 28.3713 26.7361 27.9868 27.3622 27.3617C27.9883 26.7366 28.3718 26.1085 28.6598 25.3688C28.9379 24.6537 29.1287 23.8358 29.1824 22.6381C29.2369 21.4377 29.2496 21.0551 29.2496 18C29.2496 14.9449 29.2369 14.5614 29.1824 13.3618C29.1278 12.1641 28.9379 11.3458 28.6598 10.6312C28.3718 9.89145 27.9873 9.26442 27.3622 8.63829C26.7371 8.01216 26.109 7.62786 25.3702 7.34067C24.6542 7.06257 23.8363 6.87177 22.6395 6.81813C21.44 6.76359 21.0565 6.75 18.0014 6.75C14.9462 6.75 14.5625 6.76269 13.3623 6.81813Z" fill="white"/>
</svg>
