<svg width="36" height="36" viewBox="0 0 36 36" fill="none" xmlns="http://www.w3.org/2000/svg">
<rect width="36" height="36" rx="18" fill="#D4D4D4"/>
<path d="M27.9937 26.4943C26.8124 26.4662 25.6593 26.4662 24.478 26.4943C24.2249 26.4943 24.1687 26.438 24.1687 26.1849C24.1687 24.1037 24.1687 21.9943 24.1687 19.913C24.1687 19.4349 24.1405 18.9568 23.9999 18.5068C23.578 17.0443 21.8905 16.5099 20.6812 17.4943C20.0343 18.0005 19.7812 18.7037 19.7812 19.5474C19.7812 21.5162 19.7812 23.4849 19.7812 25.4537C19.7812 25.7068 19.753 25.9599 19.7812 26.2412C19.8093 26.4662 19.6968 26.5224 19.4999 26.4943C18.2905 26.4943 17.1093 26.4943 15.8999 26.4943C15.6749 26.4943 15.6187 26.438 15.6187 26.213C15.6468 24.4412 15.6468 22.6693 15.6468 20.8693C15.6468 18.6755 15.6468 16.4818 15.6187 14.3162C15.6187 14.063 15.6749 14.0068 15.8999 14.0068C17.1093 14.0068 18.2905 14.0068 19.4999 14.0068C19.7249 14.0068 19.7812 14.063 19.7812 14.288C19.7812 14.738 19.7812 15.188 19.7812 15.7224C19.8655 15.638 19.8937 15.6099 19.9218 15.5818C21.0187 13.9787 22.5655 13.5287 24.3937 13.8099C26.503 14.1474 27.853 15.6099 28.1905 17.8599C28.2749 18.3943 28.303 18.9287 28.303 19.463C28.303 21.713 28.303 23.9349 28.303 26.1849C28.303 26.4099 28.2468 26.4943 27.9937 26.4943Z" fill="white"/>
<path d="M13.3688 20.2506C13.3688 22.2193 13.3688 24.1881 13.3688 26.1568C13.3688 26.41 13.3125 26.4943 13.0594 26.4943C11.8781 26.4662 10.6969 26.4943 9.51562 26.4943C9.29063 26.4943 9.23438 26.4381 9.23438 26.2131C9.23438 22.2475 9.23438 18.2537 9.23438 14.2881C9.23438 14.0912 9.29063 14.0068 9.51562 14.0068C10.725 14.0068 11.9344 14.0068 13.1438 14.0068C13.3969 14.0068 13.425 14.0912 13.425 14.3162C13.3688 16.285 13.3688 18.2537 13.3688 20.2506Z" fill="white"/>
<path d="M13.5656 10.744C13.2843 11.869 12.1312 12.5159 10.8093 12.2909C9.40308 12.0659 8.61558 10.6878 9.12183 9.33776C9.45933 8.49401 10.275 7.98776 11.3156 8.01588C12.8906 7.98776 13.9312 9.25338 13.5656 10.744Z" fill="white"/>
</svg>
