<svg width="48" height="49" viewBox="0 0 48 49" fill="none" xmlns="http://www.w3.org/2000/svg">
<g clip-path="url(#clip0_1127_11819)">
<path d="M40.4896 24.89C40.5196 24.66 40.4396 24.44 40.2596 24.27C40.0896 24.1 39.8396 24 39.5796 24H35.9196C35.5296 24 35.1796 24.22 35.0596 24.54L34.7196 25.41C33.8096 28.59 32.2396 30.5 30.0596 33.16L29.5896 33.74C29.2496 34.16 28.6896 34.41 28.0996 34.41H28.0796C28.9496 33.56 29.4896 32.44 29.4896 31.21C29.4896 28.56 27.0296 26.41 23.9896 26.41C20.9496 26.41 18.4896 28.56 18.4896 31.21C18.4896 32.44 19.0296 33.56 19.8996 34.41C19.3096 34.41 18.7596 34.16 18.4096 33.74L17.9396 33.16C15.7696 30.51 14.1996 28.59 13.2596 25.34L12.9396 24.54C12.8096 24.22 12.4596 24 12.0796 24H8.41961C8.15961 24 7.90961 24.1 7.73961 24.27C7.56961 24.44 7.47961 24.67 7.50961 24.89C7.96961 28.49 9.45961 31.96 11.8096 34.93L16.6596 41.05V48H18.4896V40.8C18.4896 40.64 18.4296 40.48 18.3296 40.34L13.3196 34.01C11.3296 31.5 10.0096 28.61 9.46961 25.59H11.4396L11.5196 25.78C12.5096 29.25 14.2496 31.38 16.4596 34.07L16.9296 34.65C17.6196 35.49 18.7296 35.99 19.9096 35.99H28.0996C29.2796 35.99 30.3896 35.49 31.0796 34.65L31.5496 34.08C33.7596 31.39 35.4996 29.26 36.4696 25.86L36.5796 25.6H38.5496C38.0096 28.61 36.6896 31.51 34.6996 34.02L29.6896 40.35C29.5796 40.48 29.5296 40.64 29.5296 40.81V48.01H31.3596V41.06L36.2096 34.94C38.5696 31.97 40.0496 28.49 40.5096 24.9L40.4896 24.89ZM23.9796 28C25.9996 28 27.6396 29.44 27.6396 31.2C27.6396 32.96 25.9996 34.4 23.9796 34.4C21.9596 34.4 20.3196 32.96 20.3196 31.2C20.3196 29.44 21.9596 28 23.9796 28Z" fill="#FF5E48"/>
<path d="M40.4896 24.89C40.5196 24.66 40.4396 24.44 40.2596 24.27C40.0896 24.1 39.8396 24 39.5796 24H35.9196C35.5296 24 35.1796 24.22 35.0596 24.54L34.7196 25.41C33.8096 28.59 32.2396 30.5 30.0596 33.16L29.5896 33.74C29.2496 34.16 28.6896 34.41 28.0996 34.41H28.0796C28.9496 33.56 29.4896 32.44 29.4896 31.21C29.4896 28.56 27.0296 26.41 23.9896 26.41C20.9496 26.41 18.4896 28.56 18.4896 31.21C18.4896 32.44 19.0296 33.56 19.8996 34.41C19.3096 34.41 18.7596 34.16 18.4096 33.74L17.9396 33.16C15.7696 30.51 14.1996 28.59 13.2596 25.34L12.9396 24.54C12.8096 24.22 12.4596 24 12.0796 24H8.41961C8.15961 24 7.90961 24.1 7.73961 24.27C7.56961 24.44 7.47961 24.67 7.50961 24.89C7.96961 28.49 9.45961 31.96 11.8096 34.93L16.6596 41.05V48H18.4896V40.8C18.4896 40.64 18.4296 40.48 18.3296 40.34L13.3196 34.01C11.3296 31.5 10.0096 28.61 9.46961 25.59H11.4396L11.5196 25.78C12.5096 29.25 14.2496 31.38 16.4596 34.07L16.9296 34.65C17.6196 35.49 18.7296 35.99 19.9096 35.99H28.0996C29.2796 35.99 30.3896 35.49 31.0796 34.65L31.5496 34.08C33.7596 31.39 35.4996 29.26 36.4696 25.86L36.5796 25.6H38.5496C38.0096 28.61 36.6896 31.51 34.6996 34.02L29.6896 40.35C29.5796 40.48 29.5296 40.64 29.5296 40.81V48.01H31.3596V41.06L36.2096 34.94C38.5696 31.97 40.0496 28.49 40.5096 24.9L40.4896 24.89ZM23.9796 28C25.9996 28 27.6396 29.44 27.6396 31.2C27.6396 32.96 25.9996 34.4 23.9796 34.4C21.9596 34.4 20.3196 32.96 20.3196 31.2C20.3196 29.44 21.9596 28 23.9796 28Z" stroke="#FF5E48"/>
<path d="M23.5302 20.6602C23.6802 20.7502 23.8402 20.8002 24.0102 20.8002C24.1802 20.8002 24.3402 20.7502 24.4902 20.6602C26.4002 19.4702 32.6102 15.2402 32.6102 10.7502C32.6102 8.5802 31.2602 6.9602 29.1002 6.5102C27.4402 6.1602 25.3502 6.6202 24.0102 8.0602C22.6702 6.6202 20.5802 6.1602 18.9202 6.5102C16.7502 6.9602 15.4102 8.5902 15.4102 10.7502C15.4102 15.2302 21.6302 19.4602 23.5302 20.6602ZM19.2902 8.0702C19.5202 8.0202 19.7702 8.0002 20.0302 8.0002C21.2502 8.0002 22.5802 8.5802 23.2302 9.8602C23.3702 10.1402 23.6702 10.3202 24.0102 10.3202C24.3502 10.3202 24.6502 10.1402 24.7902 9.8602C25.5702 8.3102 27.3702 7.7902 28.7302 8.0802C29.3802 8.2202 30.9002 8.7502 30.9002 10.7602C30.9002 14.1802 25.8902 17.8002 24.0202 19.0302C22.1502 17.8002 17.1402 14.1802 17.1402 10.7602C17.1402 8.7502 18.6602 8.2102 19.3102 8.0802L19.2902 8.0702Z" fill="#FF5E48"/>
<path d="M23.5302 20.6602C23.6802 20.7502 23.8402 20.8002 24.0102 20.8002C24.1802 20.8002 24.3402 20.7502 24.4902 20.6602C26.4002 19.4702 32.6102 15.2402 32.6102 10.7502C32.6102 8.5802 31.2602 6.9602 29.1002 6.5102C27.4402 6.1602 25.3502 6.6202 24.0102 8.0602C22.6702 6.6202 20.5802 6.1602 18.9202 6.5102C16.7502 6.9602 15.4102 8.5902 15.4102 10.7502C15.4102 15.2302 21.6302 19.4602 23.5302 20.6602ZM19.2902 8.0702C19.5202 8.0202 19.7702 8.0002 20.0302 8.0002C21.2502 8.0002 22.5802 8.5802 23.2302 9.8602C23.3702 10.1402 23.6702 10.3202 24.0102 10.3202C24.3502 10.3202 24.6502 10.1402 24.7902 9.8602C25.5702 8.3102 27.3702 7.7902 28.7302 8.0802C29.3802 8.2202 30.9002 8.7502 30.9002 10.7602C30.9002 14.1802 25.8902 17.8002 24.0202 19.0302C22.1502 17.8002 17.1402 14.1802 17.1402 10.7602C17.1402 8.7502 18.6602 8.2102 19.3102 8.0802L19.2902 8.0702Z" stroke="#FF5E48"/>
<path d="M35.1992 11.2002H38.6392V12.8002H35.1992V11.2002Z" fill="#FF5E48"/>
<path d="M9.38867 11.2002H12.8287V12.8002H9.38867V11.2002Z" fill="#FF5E48"/>
<path d="M23.1504 0H24.8704V3.2H23.1504V0Z" fill="#FF5E48"/>
<path d="M13.0605 3.77014L14.2805 2.64014L16.7105 4.90014L15.4905 6.03014L13.0605 3.77014Z" fill="#FF5E48"/>
<path d="M31.3105 4.90014L33.7405 2.64014L34.9605 3.77014L32.5305 6.03014L31.3105 4.90014Z" fill="#FF5E48"/>
</g>
<defs>
<clipPath id="clip0_1127_11819">
<rect width="34" height="48.5" fill="white" transform="translate(7)"/>
</clipPath>
</defs>
</svg>
