<svg width="226" height="67" viewBox="0 0 226 67" fill="none" xmlns="http://www.w3.org/2000/svg">
<g clip-path="url(#clip0_557_7792)">
<path d="M217.532 0H8.8474C4.23726 0 0.5 3.73726 0.5 8.3474V58.4318C0.5 63.0419 4.23726 66.7792 8.8474 66.7792H217.532C222.143 66.7792 225.88 63.0419 225.88 58.4318V8.3474C225.88 3.73726 222.143 0 217.532 0Z" fill="black"/>
<path d="M217.532 1.33558C219.392 1.33558 221.176 2.07433 222.49 3.3893C223.805 4.70427 224.544 6.48775 224.544 8.3474V58.4318C224.544 60.2914 223.805 62.0749 222.49 63.3899C221.176 64.7049 219.392 65.4436 217.532 65.4436H8.8474C6.98775 65.4436 5.20427 64.7049 3.8893 63.3899C2.57433 62.0749 1.83558 60.2914 1.83558 58.4318V8.3474C1.83558 6.48775 2.57433 4.70427 3.8893 3.3893C5.20427 2.07433 6.98775 1.33558 8.8474 1.33558H217.532ZM217.532 0H8.8474C6.63353 0 4.51034 0.879456 2.9449 2.4449C1.37946 4.01034 0.5 6.13353 0.5 8.3474V58.4318C0.5 60.6457 1.37946 62.7689 2.9449 64.3343C4.51034 65.8997 6.63353 66.7792 8.8474 66.7792H217.532C219.746 66.7792 221.869 65.8997 223.435 64.3343C225 62.7689 225.88 60.6457 225.88 58.4318V8.3474C225.88 6.13353 225 4.01034 223.435 2.4449C221.869 0.879456 219.746 0 217.532 0Z" fill="#A6A6A6"/>
<path d="M79.6667 17.0956C79.6941 17.7079 79.5973 18.3193 79.3821 18.8931C79.1669 19.467 78.8378 19.9913 78.4145 20.4346C77.9403 20.9242 77.3679 21.3082 76.735 21.5614C76.1021 21.8145 75.4228 21.9312 74.7417 21.9037C74.0566 21.919 73.3757 21.7935 72.7411 21.5351C72.1065 21.2766 71.5316 20.8907 71.0521 20.4012C70.0793 19.4061 69.5347 18.0698 69.5347 16.6782C69.5347 15.2867 70.0793 13.9504 71.0521 12.9553C71.7959 12.2286 72.7378 11.7378 73.7596 11.5447C74.7814 11.3517 75.8375 11.4649 76.7952 11.8701C77.3972 12.1176 77.9341 12.5003 78.3645 12.9887L77.4796 13.8735C77.1481 13.4741 76.728 13.1575 76.2527 12.9489C75.7775 12.7402 75.2601 12.6452 74.7417 12.6715C74.0873 12.676 73.444 12.8408 72.8679 13.1513C72.2919 13.4619 71.8007 13.9088 71.4373 14.453C71.0739 14.9973 70.8493 15.6222 70.7832 16.2733C70.717 16.9244 70.8114 17.5817 71.058 18.1879C71.3045 18.7941 71.6959 19.3306 72.1977 19.7507C72.6995 20.1707 73.2966 20.4614 73.9367 20.5974C74.5768 20.7334 75.2405 20.7106 75.8698 20.5308C76.499 20.3511 77.0747 20.02 77.5464 19.5664C78.0564 19.0073 78.3521 18.2858 78.3812 17.5297H74.7417V16.3277H79.5999C79.6379 16.582 79.6602 16.8385 79.6667 17.0956Z" fill="white" stroke="white" stroke-width="0.315866" stroke-miterlimit="10"/>
<path d="M87.3127 12.921H82.8051V16.093H86.912V17.295H82.8051V20.467H87.3127V21.7024H81.5029V11.6855H87.3127V12.921Z" fill="white" stroke="white" stroke-width="0.315866" stroke-miterlimit="10"/>
<path d="M92.789 21.7024H91.5035V12.921H88.6987V11.6855H95.6605V12.921H92.789V21.7024Z" fill="white" stroke="white" stroke-width="0.315866" stroke-miterlimit="10"/>
<path d="M100.569 21.7024V11.6855H101.854V21.7024H100.569Z" fill="white" stroke="white" stroke-width="0.315866" stroke-miterlimit="10"/>
<path d="M107.564 21.7024H106.278V12.921H103.474V11.6855H110.352V12.921H107.564V21.7024Z" fill="white" stroke="white" stroke-width="0.315866" stroke-miterlimit="10"/>
<path d="M123.39 20.4002C122.908 20.8828 122.335 21.2656 121.705 21.5268C121.075 21.788 120.4 21.9224 119.717 21.9224C119.035 21.9224 118.36 21.788 117.729 21.5268C117.099 21.2656 116.527 20.8828 116.044 20.4002C115.101 19.3969 114.575 18.0714 114.575 16.6939C114.575 15.3165 115.101 13.991 116.044 12.9877C116.516 12.4915 117.087 12.0999 117.72 11.8382C118.352 11.5765 119.033 11.4506 119.717 11.4685C120.401 11.4577 121.079 11.5869 121.711 11.8481C122.343 12.1094 122.914 12.4972 123.39 12.9877C123.87 13.476 124.248 14.0556 124.5 14.6921C124.752 15.3287 124.874 16.0094 124.859 16.6939C124.881 17.3794 124.762 18.062 124.509 18.6995C124.257 19.3371 123.876 19.9159 123.39 20.4002ZM116.996 19.5654C117.352 19.9259 117.775 20.212 118.243 20.4073C118.71 20.6027 119.211 20.7032 119.717 20.7032C120.224 20.7032 120.725 20.6027 121.192 20.4073C121.659 20.212 122.083 19.9259 122.439 19.5654C123.159 18.7827 123.559 17.7577 123.559 16.6939C123.559 15.6301 123.159 14.6052 122.439 13.8224C122.083 13.462 121.659 13.1759 121.192 12.9805C120.725 12.7852 120.224 12.6847 119.717 12.6847C119.211 12.6847 118.71 12.7852 118.243 12.9805C117.775 13.1759 117.352 13.462 116.996 13.8224C116.276 14.6052 115.876 15.6301 115.876 16.6939C115.876 17.7577 116.276 18.7827 116.996 19.5654Z" fill="white" stroke="white" stroke-width="0.315866" stroke-miterlimit="10"/>
<path d="M126.679 21.7024V11.6855H128.232L133.107 19.482V17.5454V11.6855H134.392V21.7024H133.057L127.965 13.5387V15.4586V21.7024H126.679Z" fill="white" stroke="white" stroke-width="0.315866" stroke-miterlimit="10"/>
<path d="M114.258 36.3111C112.852 36.3144 111.477 36.7347 110.31 37.519C109.142 38.3032 108.233 39.4161 107.698 40.7169C107.163 42.0177 107.025 43.448 107.303 44.8269C107.58 46.2059 108.261 47.4715 109.258 48.4638C110.255 49.4561 111.524 50.1304 112.904 50.4016C114.284 50.6728 115.714 50.5286 117.012 49.9873C118.31 49.4459 119.419 48.5318 120.197 47.3604C120.976 46.189 121.39 44.813 121.387 43.4064C121.4 42.468 121.225 41.5365 120.871 40.6673C120.517 39.7982 119.992 39.0091 119.327 38.347C118.662 37.685 117.87 37.1636 117 36.8138C116.129 36.464 115.196 36.2931 114.258 36.3111ZM114.258 47.7136C113.396 47.7739 112.536 47.5735 111.789 47.1383C111.042 46.7032 110.444 46.0534 110.071 45.2736C109.699 44.4938 109.569 43.6199 109.7 42.7656C109.831 41.9112 110.215 41.116 110.804 40.4832C111.393 39.8504 112.158 39.4093 113.001 39.2173C113.843 39.0253 114.724 39.0912 115.529 39.4065C116.334 39.7217 117.025 40.2718 117.513 40.9851C118.001 41.6985 118.263 42.5421 118.265 43.4064C118.292 43.954 118.209 44.5015 118.021 45.0165C117.833 45.5315 117.543 46.0036 117.17 46.4051C116.797 46.8065 116.346 47.1291 115.846 47.3539C115.346 47.5786 114.806 47.7009 114.258 47.7136ZM98.6986 36.3111C97.292 36.3144 95.9179 36.7347 94.7502 37.519C93.5825 38.3032 92.6735 39.4161 92.1383 40.7169C91.6031 42.0177 91.4656 43.448 91.7432 44.8269C92.0209 46.2059 92.7012 47.4715 93.6982 48.4638C94.6951 49.4561 95.964 50.1304 97.3442 50.4016C98.7244 50.6728 100.154 50.5286 101.452 49.9873C102.751 49.4459 103.859 48.5318 104.638 47.3604C105.417 46.189 105.831 44.813 105.827 43.4064C105.841 42.468 105.666 41.5365 105.312 40.6673C104.958 39.7982 104.433 39.0091 103.768 38.347C103.102 37.685 102.311 37.1636 101.44 36.8138C100.569 36.464 99.6369 36.2931 98.6986 36.3111ZM98.6986 47.7136C97.8364 47.7739 96.9761 47.5735 96.2294 47.1383C95.4826 46.7032 94.8841 46.0534 94.5115 45.2736C94.139 44.4938 94.0097 43.6199 94.1404 42.7656C94.271 41.9112 94.6557 41.116 95.2444 40.4832C95.833 39.8504 96.5984 39.4093 97.4411 39.2173C98.2837 39.0253 99.1647 39.0912 99.9694 39.4065C100.774 39.7217 101.465 40.2718 101.953 40.9851C102.441 41.6985 102.703 42.5421 102.705 43.4064C102.732 43.954 102.649 44.5015 102.461 45.0165C102.273 45.5315 101.984 46.0036 101.61 46.4051C101.237 46.8065 100.787 47.1291 100.287 47.3539C99.7867 47.5786 99.2467 47.7009 98.6986 47.7136ZM80.2007 38.4981V41.5032H87.4129C87.2998 42.9186 86.7114 44.2541 85.7434 45.2929C85.0199 46.03 84.1498 46.607 83.1893 46.9866C82.2288 47.3662 81.1993 47.54 80.1673 47.4966C78.042 47.4966 76.0038 46.6523 74.5009 45.1495C72.9981 43.6467 72.1538 41.6084 72.1538 39.4831C72.1538 37.3578 72.9981 35.3195 74.5009 33.8167C76.0038 32.3139 78.042 31.4696 80.1673 31.4696C82.2049 31.4393 84.1723 32.2131 85.6432 33.6232L87.7635 31.503C86.7684 30.5188 85.587 29.7432 84.2884 29.2214C82.9898 28.6997 81.6001 28.4424 80.2007 28.4645C78.7166 28.4068 77.236 28.6492 75.8478 29.1774C74.4595 29.7055 73.1922 30.5084 72.1217 31.5381C71.0512 32.5677 70.1996 33.8029 69.6179 35.1695C69.0362 36.5361 68.7363 38.0062 68.7363 39.4915C68.7363 40.9768 69.0362 42.4468 69.6179 43.8134C70.1996 45.1801 71.0512 46.4152 72.1217 47.4448C73.1922 48.4745 74.4595 49.2774 75.8478 49.8056C77.236 50.3337 78.7166 50.5761 80.2007 50.5184C81.6288 50.5754 83.0529 50.3297 84.3793 49.7974C85.7057 49.2651 86.9045 48.4583 87.897 47.4298C89.6502 45.5039 90.5843 42.971 90.5014 40.3679C90.5074 39.7414 90.4571 39.1156 90.3512 38.4981H80.2007ZM155.845 40.8354C155.409 39.5545 154.595 38.436 153.51 37.6281C152.425 36.8201 151.12 36.3609 149.768 36.3111C148.855 36.3093 147.951 36.4948 147.112 36.8562C146.274 37.2176 145.518 37.7472 144.892 38.4122C144.266 39.0772 143.783 39.8635 143.473 40.7225C143.163 41.5815 143.033 42.495 143.09 43.4064C143.076 44.9304 143.555 46.4181 144.456 47.6473C145.357 48.8765 146.631 49.7813 148.089 50.2265C149.546 50.6716 151.109 50.6333 152.543 50.1172C153.977 49.6011 155.206 48.635 156.045 47.3631L153.624 45.6936C153.264 46.2951 152.752 46.7917 152.14 47.1344C151.528 47.477 150.837 47.6537 150.135 47.6469C149.412 47.6767 148.696 47.487 148.082 47.1027C147.468 46.7183 146.985 46.1573 146.696 45.4932L156.195 41.57L155.845 40.8354ZM146.162 43.2061C146.128 42.6875 146.198 42.1674 146.368 41.6762C146.537 41.185 146.803 40.7326 147.15 40.3454C147.497 39.9583 147.917 39.6443 148.387 39.4216C148.856 39.199 149.366 39.0724 149.885 39.049C150.423 39.0162 150.958 39.1429 151.425 39.4131C151.891 39.6834 152.267 40.0852 152.506 40.5683L146.162 43.2061ZM138.449 50.0843H141.571V29.2158H138.449V50.0843ZM133.34 37.8971H133.223C132.757 37.366 132.181 36.9418 131.536 36.6537C130.891 36.3656 130.191 36.2202 129.484 36.2276C127.659 36.3161 125.939 37.1031 124.679 38.4256C123.419 39.7481 122.716 41.5047 122.716 43.3313C122.716 45.1578 123.419 46.9144 124.679 48.2369C125.939 49.5594 127.659 50.3464 129.484 50.4349C130.192 50.4491 130.894 50.3068 131.54 50.0182C132.187 49.7296 132.761 49.3018 133.223 48.7654H133.34V49.7838C133.34 52.5051 131.888 53.9575 129.551 53.9575C128.77 53.9403 128.012 53.6916 127.373 53.2427C126.734 52.7939 126.242 52.1652 125.961 51.4366L123.257 52.5551C123.757 53.811 124.626 54.8855 125.75 55.6367C126.874 56.3879 128.199 56.7804 129.551 56.7622C133.207 56.7622 136.228 54.6086 136.228 49.3664V36.7285H133.34V37.8971ZM129.751 47.7136C128.657 47.6455 127.63 47.1629 126.88 46.3641C126.129 45.5654 125.712 44.5107 125.712 43.4147C125.712 42.3188 126.129 41.264 126.88 40.4653C127.63 39.6666 128.657 39.184 129.751 39.1158C130.286 39.1389 130.81 39.2693 131.293 39.4992C131.776 39.7291 132.209 40.0539 132.564 40.4542C132.919 40.8545 133.19 41.3222 133.36 41.8293C133.531 42.3365 133.598 42.8728 133.557 43.4064C133.603 43.9418 133.539 44.4808 133.371 44.991C133.202 45.5011 132.931 45.9717 132.576 46.3744C132.22 46.777 131.786 47.1033 131.3 47.3335C130.815 47.5637 130.288 47.693 129.751 47.7136ZM170.47 29.2158H162.99V50.0843H166.112V42.171H170.47C171.359 42.2349 172.253 42.1148 173.094 41.8183C173.935 41.5217 174.706 41.055 175.359 40.4472C176.012 39.8395 176.533 39.1037 176.889 38.2858C177.245 37.4679 177.429 36.5854 177.429 35.6934C177.429 34.8013 177.245 33.9189 176.889 33.101C176.533 32.2831 176.012 31.5473 175.359 30.9396C174.706 30.3318 173.935 29.8651 173.094 29.5685C172.253 29.272 171.359 29.1519 170.47 29.2158ZM170.47 39.2327H166.112V32.1207H170.536C171.005 32.1207 171.47 32.2131 171.904 32.3927C172.337 32.5722 172.731 32.8354 173.063 33.1671C173.394 33.4989 173.657 33.8927 173.837 34.3262C174.017 34.7596 174.109 35.2242 174.109 35.6934C174.109 36.1626 174.017 36.6271 173.837 37.0606C173.657 37.4941 173.394 37.8879 173.063 38.2197C172.731 38.5514 172.337 38.8146 171.904 38.9941C171.47 39.1737 171.005 39.2661 170.536 39.2661L170.47 39.2327ZM189.735 36.2443C188.598 36.1742 187.466 36.4389 186.478 37.0056C185.49 37.5724 184.689 38.4163 184.176 39.433L186.931 40.585C187.209 40.0831 187.627 39.6726 188.133 39.403C188.64 39.1334 189.214 39.0163 189.785 39.0657C190.182 39.0195 190.583 39.0526 190.967 39.1631C191.35 39.2737 191.708 39.4595 192.018 39.7097C192.329 39.9599 192.587 40.2695 192.777 40.6204C192.967 40.9713 193.085 41.3565 193.124 41.7536V41.9539C192.12 41.4262 191.003 41.1512 189.869 41.1526C186.897 41.1526 183.859 42.8221 183.859 45.8605C183.888 46.5064 184.047 47.1397 184.326 47.7229C184.605 48.3061 184.998 48.8273 185.483 49.2556C185.967 49.6838 186.532 50.0104 187.145 50.2159C187.758 50.4213 188.406 50.5015 189.051 50.4516C189.834 50.4949 190.615 50.3291 191.313 49.9712C192.012 49.6133 192.602 49.0762 193.024 48.4148H193.124V50.0843H196.129V42.0541C196.129 38.3979 193.358 36.2777 189.802 36.2777L189.735 36.2443ZM189.351 47.6803C188.333 47.6803 186.914 47.1627 186.914 45.9106C186.914 44.2411 188.684 43.6735 190.253 43.6735C191.245 43.649 192.225 43.8912 193.091 44.3747C192.986 45.2813 192.556 46.1192 191.881 46.7332C191.206 47.3471 190.331 47.6955 189.418 47.7136L189.351 47.6803ZM207.081 36.7285L203.509 45.777H203.408L199.702 36.7285H196.363L201.923 49.3831L198.751 56.4116H202.006L210.554 36.7285H207.081ZM179.034 50.0843H182.139V29.2158H179.034V50.0843Z" fill="white"/>
<path d="M17.9295 12.5885C17.3794 13.239 17.0987 14.0752 17.1449 14.9258V51.8547C17.0881 52.7068 17.3701 53.5468 17.9295 54.192L18.0464 54.3255L38.7313 33.6407V33.1398L18.0464 12.4717L17.9295 12.5885Z" fill="url(#paint0_linear_557_7792)"/>
<path d="M45.5763 40.5349L38.7314 33.6399V33.1391L45.5763 26.2441L45.7266 26.3443L53.9237 30.9855C56.261 32.3044 56.261 34.4747 53.9237 35.8103L45.76 40.4514L45.5763 40.5349Z" fill="url(#paint1_linear_557_7792)"/>
<path d="M45.7761 40.4348L38.7309 33.3896L17.9292 54.1913C18.401 54.6112 19.0048 54.8528 19.636 54.8741C20.2672 54.8955 20.886 54.6952 21.385 54.3082L45.7761 40.4348Z" fill="url(#paint2_linear_557_7792)"/>
<path d="M45.7761 26.3432L21.385 12.4865C20.8892 12.094 20.2709 11.8889 19.6389 11.9072C19.0068 11.9256 18.4014 12.1661 17.9292 12.5867L38.7309 33.3884L45.7761 26.3432Z" fill="url(#paint3_linear_557_7792)"/>
<path opacity="0.2" d="M45.5758 40.2842L21.385 54.0574C20.9041 54.4203 20.318 54.6167 19.7155 54.6167C19.113 54.6167 18.527 54.4203 18.0461 54.0574L17.9292 54.1743L18.0461 54.3078C18.527 54.6708 19.113 54.8671 19.7155 54.8671C20.318 54.8671 20.9041 54.6708 21.385 54.3078L45.7761 40.4344L45.5758 40.2842Z" fill="black"/>
<path opacity="0.12" d="M17.9292 53.9583C17.393 53.2962 17.1302 52.454 17.1946 51.6044V51.8548C17.1378 52.7069 17.4198 53.5469 17.9793 54.1921L18.0962 54.0752L17.9292 53.9583Z" fill="black"/>
<path opacity="0.12" d="M53.9236 35.5599L45.5762 40.2845L45.7264 40.4348L53.9236 35.7936C54.4074 35.589 54.8272 35.2578 55.1386 34.8347C55.45 34.4116 55.6416 33.9124 55.6932 33.3896C55.5888 33.8647 55.3743 34.3086 55.0669 34.6855C54.7596 35.0625 54.3679 35.362 53.9236 35.5599Z" fill="black"/>
<path opacity="0.25" d="M21.385 12.7207L53.9232 31.2185C54.3675 31.4164 54.7592 31.7159 55.0665 32.0929C55.3739 32.4698 55.5885 32.9137 55.6928 33.3888C55.6412 32.866 55.4496 32.3668 55.1382 31.9437C54.8268 31.5206 54.407 31.1894 53.9232 30.9848L21.385 12.4869C19.0644 11.1514 17.1445 12.2532 17.1445 14.9244V15.1748C17.1946 12.5036 19.0644 11.4018 21.385 12.7207Z" fill="white"/>
</g>
<defs>
<linearGradient id="paint0_linear_557_7792" x1="36.8948" y1="14.5418" x2="8.88095" y2="42.5557" gradientUnits="userSpaceOnUse">
<stop stop-color="#00A0FF"/>
<stop offset="0.01" stop-color="#00A1FF"/>
<stop offset="0.26" stop-color="#00BEFF"/>
<stop offset="0.51" stop-color="#00D2FF"/>
<stop offset="0.76" stop-color="#00DFFF"/>
<stop offset="1" stop-color="#00E3FF"/>
</linearGradient>
<linearGradient id="paint1_linear_557_7792" x1="56.9789" y1="33.3895" x2="16.5941" y2="33.3895" gradientUnits="userSpaceOnUse">
<stop stop-color="#FFE000"/>
<stop offset="0.41" stop-color="#FFBD00"/>
<stop offset="0.78" stop-color="#FFA500"/>
<stop offset="1" stop-color="#FF9C00"/>
</linearGradient>
<linearGradient id="paint2_linear_557_7792" x1="41.953" y1="37.2294" x2="3.95564" y2="75.21" gradientUnits="userSpaceOnUse">
<stop stop-color="#FF3A44"/>
<stop offset="1" stop-color="#C31162"/>
</linearGradient>
<linearGradient id="paint3_linear_557_7792" x1="12.687" y1="0.29929" x2="29.6489" y2="17.2612" gradientUnits="userSpaceOnUse">
<stop stop-color="#32A071"/>
<stop offset="0.07" stop-color="#2DA771"/>
<stop offset="0.48" stop-color="#15CF74"/>
<stop offset="0.8" stop-color="#06E775"/>
<stop offset="1" stop-color="#00F076"/>
</linearGradient>
<clipPath id="clip0_557_7792">
<rect width="225.38" height="66.7792" fill="white" transform="translate(0.5)"/>
</clipPath>
</defs>
</svg>
