<svg width="48" height="48" viewBox="0 0 48 48" fill="none" xmlns="http://www.w3.org/2000/svg">
<path d="M39.6602 13.9062H35.1298C35.8302 12.9753 36.2461 11.8186 36.2461 10.5664C36.2461 7.49709 33.749 5 30.6797 5C28.8308 5 27.4675 5.6624 26.3892 7.08458C25.487 8.27446 24.8274 9.93577 24 12.0348C23.1726 9.9357 22.513 8.27446 21.6108 7.08458C20.5325 5.6624 19.1692 5 17.3203 5C14.251 5 11.7539 7.49709 11.7539 10.5664C11.7539 11.8186 12.1698 12.9753 12.8702 13.9062H8.33984C6.49825 13.9062 5 15.4045 5 17.2461V19.4727C5 20.924 5.93078 22.1615 7.22656 22.621V39.6602C7.22656 41.5017 8.72482 43 10.5664 43H37.4336C39.2752 43 40.7734 41.5017 40.7734 39.6602V22.621C42.0692 22.1615 43 20.924 43 19.4727V17.2461C43 15.4045 41.5017 13.9062 39.6602 13.9062ZM26.0435 12.9221C27.749 8.5953 28.3974 7.22656 30.6797 7.22656C32.5213 7.22656 34.0195 8.72482 34.0195 10.5664C34.0195 12.408 32.5213 13.9062 30.6797 13.9062H25.6541C25.7905 13.5637 25.9206 13.234 26.0435 12.9221ZM17.3203 7.22656C19.6026 7.22656 20.251 8.5953 21.9565 12.9221C22.0794 13.234 22.2095 13.5637 22.3459 13.9062H17.3203C15.4787 13.9062 13.9805 12.408 13.9805 10.5664C13.9805 8.72482 15.4787 7.22656 17.3203 7.22656ZM19.5469 40.7734H10.5664C9.95254 40.7734 9.45312 40.274 9.45312 39.6602V22.8125H19.5469V40.7734ZM19.5469 20.5859H8.33984C7.72598 20.5859 7.22656 20.0865 7.22656 19.4727V17.2461C7.22656 16.6322 7.72598 16.1328 8.33984 16.1328H19.5469V20.5859ZM26.2266 40.7734H21.7734V16.1328C22.0067 16.1328 24.947 16.1328 26.2266 16.1328V40.7734ZM38.5469 39.6602C38.5469 40.274 38.0475 40.7734 37.4336 40.7734H28.4531V22.8125H38.5469V39.6602ZM40.7734 19.4727C40.7734 20.0865 40.274 20.5859 39.6602 20.5859H28.4531V16.1328H39.6602C40.274 16.1328 40.7734 16.6322 40.7734 17.2461V19.4727Z" fill="#FF5E48"/>
</svg>
