<svg width="85" height="84" viewBox="0 0 85 84" fill="none" xmlns="http://www.w3.org/2000/svg">
<path d="M62.7157 39.9897H35.0617L59.2177 26.0432C60.1931 25.4801 60.5272 24.2329 59.964 23.2577L53.8465 12.6618C53.2838 11.6874 52.0384 11.3528 51.0633 11.9141L44.8197 15.5073C44.8382 14.0387 44.4676 12.5948 43.7238 11.3063C41.475 7.41137 36.4769 6.07177 32.5817 8.32071C29.966 9.83078 28.4046 12.6453 28.507 15.665L28.7236 22.1641C28.7236 22.1641 23.3181 18.7951 23.3174 18.7946C20.7531 17.1974 17.5367 17.1429 14.9218 18.6525C13.0348 19.7419 11.6852 21.5009 11.1213 23.6054C10.5575 25.7099 10.8468 27.9081 11.9363 29.7947C12.6526 31.0355 13.6598 32.0419 14.863 32.7475L8.54389 36.3841C8.07175 36.6557 7.72808 37.105 7.58928 37.6318C7.45048 38.1585 7.52824 38.7188 7.80503 39.188L14.0585 49.7838C14.6269 50.7471 15.8655 51.0727 16.8342 50.5133L19.893 48.7474V74.7916C19.893 75.9178 20.806 76.8308 21.9322 76.8308H62.7157C63.8419 76.8308 64.7549 75.9178 64.7549 74.7916V42.0288C64.7549 40.9027 63.8419 39.9897 62.7157 39.9897ZM40.2848 44.068H44.3631V57.4976L43.7658 56.9004C42.9695 56.104 41.6783 56.104 40.882 56.9004L40.2848 57.4976V44.068ZM34.6209 11.8527C36.5684 10.7284 39.0674 11.3981 40.1919 13.3455C41.2642 15.2029 40.7171 17.632 39.0195 18.8454L32.8125 22.4175L32.5831 15.5274C32.5318 14.016 33.3127 12.6079 34.6209 11.8527ZM17.9446 29.6559C16.8924 29.374 16.013 28.6991 15.4683 27.7557C14.9235 26.8122 14.7789 25.7133 15.0608 24.6609C15.3426 23.6087 16.0176 22.7293 16.9611 22.1845C18.2682 21.4299 19.8764 21.4571 21.1595 22.2554C21.1605 22.2559 21.1616 22.2566 21.1626 22.2573L26.8893 25.8264L20.468 29.5218C19.6666 29.8329 18.7903 29.8825 17.9446 29.6559ZM16.5441 45.9715L12.3652 38.8905C16.5504 36.4819 47.2923 18.7897 51.3329 16.4645L55.4127 23.5309L16.5441 45.9715ZM60.6765 72.7524H23.9713V46.3927L27.9979 44.068H36.2064V62.4206C36.2064 63.2454 36.7031 63.989 37.4653 64.3045C38.2271 64.6202 39.1045 64.4458 39.6875 63.8624L42.3239 61.2262L44.9604 63.8626C45.5446 64.4469 46.4221 64.6196 47.1827 64.3047C47.9447 63.989 48.4416 63.2454 48.4416 62.4207V44.0681H60.6767V72.7524H60.6765Z" fill="#F17753"/>
<path d="M75.0865 31.8332H73.0473V29.7941C73.0473 28.6679 72.1343 27.7549 71.0082 27.7549C69.882 27.7549 68.969 28.6679 68.969 29.7941V31.8332H66.9298C65.8036 31.8332 64.8906 32.7462 64.8906 33.8724C64.8906 34.9986 65.8036 35.9116 66.9298 35.9116H68.969V37.9508C68.969 39.0769 69.882 39.9899 71.0082 39.9899C72.1343 39.9899 73.0473 39.0769 73.0473 37.9508V35.9116H75.0865C76.2127 35.9116 77.1257 34.9986 77.1257 33.8724C77.1257 32.7462 76.2127 31.8332 75.0865 31.8332Z" fill="#F17753"/>
<path d="M66.7936 23.6765C67.9198 23.6765 68.8327 22.7635 68.8327 21.6373C68.8327 20.5111 67.9198 19.5981 66.7936 19.5981C65.6674 19.5981 64.7544 20.5111 64.7544 21.6373C64.7544 22.7635 65.6674 23.6765 66.7936 23.6765Z" fill="#F17753"/>
<path d="M58.6373 35.9118C59.7635 35.9118 60.6765 34.9989 60.6765 33.8727C60.6765 32.7465 59.7635 31.8335 58.6373 31.8335C57.5111 31.8335 56.5981 32.7465 56.5981 33.8727C56.5981 34.9989 57.5111 35.9118 58.6373 35.9118Z" fill="#F17753"/>
</svg>
