<svg width="84" height="85" viewBox="0 0 84 85" fill="none" xmlns="http://www.w3.org/2000/svg">
<g clip-path="url(#clip0_1127_11829)">
<path d="M70.9097 43.31C70.9597 42.92 70.8197 42.52 70.5097 42.23C70.2097 41.93 69.7797 41.77 69.3197 41.77H62.9497C62.2697 41.77 61.6697 42.14 61.4497 42.7L60.8497 44.21C59.2697 49.74 56.5297 53.07 52.7497 57.69L51.9297 58.69C51.3297 59.42 50.3597 59.86 49.3397 59.86H49.2997C50.8197 58.38 51.7497 56.43 51.7497 54.29C51.7497 49.68 47.4597 45.94 42.1897 45.94C36.9197 45.94 32.6297 49.69 32.6297 54.29C32.6297 56.43 33.5597 58.38 35.0797 59.86C34.0597 59.86 33.0897 59.42 32.4897 58.7L31.6597 57.69C27.8797 53.08 25.1497 49.74 23.5197 44.09L22.9597 42.7C22.7397 42.14 22.1297 41.77 21.4597 41.77H15.0897C14.6397 41.77 14.1997 41.94 13.8997 42.23C13.5997 42.53 13.4497 42.92 13.4997 43.31C14.2997 49.57 16.8797 55.61 20.9897 60.78L29.4297 71.43V83.52H32.6197V70.99C32.6197 70.71 32.5197 70.43 32.3397 70.2L23.6097 59.19C20.1497 54.82 17.8497 49.79 16.9097 44.54H20.3397L20.4797 44.88C22.2097 50.92 25.2397 54.62 29.0797 59.3L29.8997 60.31C31.0997 61.77 33.0397 62.64 35.0897 62.64H49.3397C51.3897 62.64 53.3297 61.77 54.5297 60.31L55.3497 59.31C59.1897 54.63 62.2197 50.93 63.9097 45L64.0897 44.54H67.5097C66.5697 49.79 64.2697 54.82 60.8097 59.19L52.0797 70.2C51.8997 70.43 51.7997 70.71 51.7997 70.99V83.52H54.9897V71.43L63.4297 60.78C67.5297 55.61 70.1197 49.56 70.9197 43.31H70.9097ZM42.1897 48.73C45.7097 48.73 48.5597 51.23 48.5597 54.3C48.5597 57.37 45.6997 59.87 42.1897 59.87C38.6797 59.87 35.8197 57.37 35.8197 54.3C35.8197 51.23 38.6797 48.73 42.1897 48.73Z" fill="#EB48B3"/>
<path d="M70.9097 43.31C70.9597 42.92 70.8197 42.52 70.5097 42.23C70.2097 41.93 69.7797 41.77 69.3197 41.77H62.9497C62.2697 41.77 61.6697 42.14 61.4497 42.7L60.8497 44.21C59.2697 49.74 56.5297 53.07 52.7497 57.69L51.9297 58.69C51.3297 59.42 50.3597 59.86 49.3397 59.86H49.2997C50.8197 58.38 51.7497 56.43 51.7497 54.29C51.7497 49.68 47.4597 45.94 42.1897 45.94C36.9197 45.94 32.6297 49.69 32.6297 54.29C32.6297 56.43 33.5597 58.38 35.0797 59.86C34.0597 59.86 33.0897 59.42 32.4897 58.7L31.6597 57.69C27.8797 53.08 25.1497 49.74 23.5197 44.09L22.9597 42.7C22.7397 42.14 22.1297 41.77 21.4597 41.77H15.0897C14.6397 41.77 14.1997 41.94 13.8997 42.23C13.5997 42.53 13.4497 42.92 13.4997 43.31C14.2997 49.57 16.8797 55.61 20.9897 60.78L29.4297 71.43V83.52H32.6197V70.99C32.6197 70.71 32.5197 70.43 32.3397 70.2L23.6097 59.19C20.1497 54.82 17.8497 49.79 16.9097 44.54H20.3397L20.4797 44.88C22.2097 50.92 25.2397 54.62 29.0797 59.3L29.8997 60.31C31.0997 61.77 33.0397 62.64 35.0897 62.64H49.3397C51.3897 62.64 53.3297 61.77 54.5297 60.31L55.3497 59.31C59.1897 54.63 62.2197 50.93 63.9097 45L64.0897 44.54H67.5097C66.5697 49.79 64.2697 54.82 60.8097 59.19L52.0797 70.2C51.8997 70.43 51.7997 70.71 51.7997 70.99V83.52H54.9897V71.43L63.4297 60.78C67.5297 55.61 70.1197 49.56 70.9197 43.31H70.9097ZM42.1897 48.73C45.7097 48.73 48.5597 51.23 48.5597 54.3C48.5597 57.37 45.6997 59.87 42.1897 59.87C38.6797 59.87 35.8197 57.37 35.8197 54.3C35.8197 51.23 38.6797 48.73 42.1897 48.73V48.73Z" stroke="#EB48B3"/>
<path d="M41.3993 35.9598C41.6493 36.1198 41.9393 36.1999 42.2393 36.1999C42.5393 36.1999 42.8193 36.1198 43.0793 35.9598C46.3993 33.8898 57.2193 26.5198 57.2193 18.7198C57.2193 14.9498 54.8793 12.1198 51.1093 11.3298C48.2193 10.7198 44.5893 11.5199 42.2493 14.0199C39.9093 11.5199 36.2793 10.7198 33.3893 11.3298C29.6193 12.1198 27.2793 14.9498 27.2793 18.7198C27.2793 26.5198 38.0993 33.8798 41.4193 35.9598H41.3993ZM34.0293 14.0498C34.4393 13.9599 34.8693 13.9198 35.3093 13.9198C37.4293 13.9198 39.7493 14.9298 40.8793 17.1498C41.1293 17.6398 41.6493 17.9499 42.2293 17.9499C42.8093 17.9499 43.3393 17.6398 43.5793 17.1498C44.9393 14.4598 48.0593 13.5498 50.4293 14.0498C51.5593 14.2898 54.1993 15.2198 54.1993 18.7198C54.1993 24.6698 45.4793 30.9699 42.2193 33.1098C38.9693 30.9699 30.2393 24.6698 30.2393 18.7198C30.2393 15.2098 32.8793 14.2898 34.0093 14.0498H34.0293Z" fill="#EB48B3"/>
<path d="M41.3993 35.9598C41.6493 36.1198 41.9393 36.1999 42.2393 36.1999C42.5393 36.1999 42.8193 36.1198 43.0793 35.9598C46.3993 33.8898 57.2193 26.5198 57.2193 18.7198C57.2193 14.9498 54.8793 12.1198 51.1093 11.3298C48.2193 10.7198 44.5893 11.5199 42.2493 14.0199C39.9093 11.5199 36.2793 10.7198 33.3893 11.3298C29.6193 12.1198 27.2793 14.9498 27.2793 18.7198C27.2793 26.5198 38.0993 33.8798 41.4193 35.9598H41.3993ZM34.0293 14.0498C34.4393 13.9598 34.8693 13.9198 35.3093 13.9198C37.4293 13.9198 39.7493 14.9298 40.8793 17.1498C41.1293 17.6398 41.6493 17.9499 42.2293 17.9499C42.8093 17.9499 43.3393 17.6398 43.5793 17.1498C44.9393 14.4598 48.0593 13.5498 50.4293 14.0498C51.5593 14.2898 54.1993 15.2198 54.1993 18.7198C54.1993 24.6698 45.4793 30.9698 42.2193 33.1098C38.9693 30.9698 30.2393 24.6698 30.2393 18.7198C30.2393 15.2098 32.8793 14.2898 34.0093 14.0498H34.0293Z" stroke="#EB48B3"/>
<path d="M61.6992 19.4902H67.6892V22.2702H61.6992V19.4902Z" fill="#EB48B3"/>
<path d="M16.7793 19.4902H22.7693V22.2702H16.7793V19.4902Z" fill="#EB48B3"/>
<path d="M40.7402 0H43.7302V5.57H40.7402V0Z" fill="#EB48B3"/>
<path d="M23.1699 6.55008L25.2899 4.58008L29.5199 8.52008L27.3999 10.4901L23.1699 6.55008Z" fill="#EB48B3"/>
<path d="M54.9297 8.52008L59.1597 4.58008L61.2797 6.55008L57.0497 10.4901L54.9297 8.52008Z" fill="#EB48B3"/>
</g>
<defs>
<clipPath id="clip0_1127_11829">
<rect width="58.42" height="84.02" fill="white" transform="translate(13)"/>
</clipPath>
</defs>
</svg>
