<svg width="48" height="48" viewBox="0 0 48 48" fill="none" xmlns="http://www.w3.org/2000/svg">
<path d="M35.7193 22.8273H19.8266L33.709 14.8122C34.2696 14.4886 34.4616 13.7719 34.1379 13.2114L30.6222 7.12197C30.2988 6.56195 29.5831 6.36968 29.0227 6.69227L25.4345 8.75726C25.4452 7.91325 25.2322 7.08345 24.8047 6.34296C23.5123 4.10452 20.6399 3.33466 18.4013 4.62712C16.8981 5.49496 16.0008 7.11244 16.0596 8.84789L16.1841 12.5829C16.1841 12.5829 13.0776 10.6468 13.0772 10.6465C11.6034 9.72854 9.75495 9.69721 8.25216 10.5648C7.16775 11.1909 6.3921 12.2017 6.06803 13.4112C5.74403 14.6207 5.91029 15.884 6.5364 16.9682C6.94806 17.6813 7.5269 18.2597 8.21841 18.6652L4.58681 20.7552C4.31547 20.9113 4.11796 21.1695 4.03819 21.4722C3.95843 21.7749 4.00312 22.0969 4.16218 22.3665L7.75605 28.456C8.0827 29.0096 8.79453 29.1967 9.35126 28.8752L11.1091 27.8603V42.8279C11.1091 43.4751 11.6338 43.9998 12.281 43.9998H35.7193C36.3665 43.9998 36.8912 43.4751 36.8912 42.8279V23.9992C36.8912 23.352 36.3665 22.8273 35.7193 22.8273ZM22.8283 25.1711H25.1721V32.8891L24.8288 32.5459C24.3712 32.0882 23.6292 32.0882 23.1715 32.5459L22.8283 32.8891V25.1711ZM19.5732 6.65695C20.6925 6.01084 22.1286 6.3957 22.7749 7.51487C23.3912 8.58233 23.0767 9.97831 22.1011 10.6757L18.534 12.7286L18.4021 8.76882C18.3727 7.9002 18.8214 7.09095 19.5732 6.65695ZM9.98941 16.8885C9.3847 16.7264 8.87929 16.3386 8.56624 15.7964C8.25318 15.2542 8.17005 14.6226 8.33209 14.0178C8.49405 13.4131 8.88195 12.9077 9.42416 12.5947C10.1754 12.161 11.0996 12.1766 11.837 12.6354C11.8376 12.6357 11.8382 12.6361 11.8388 12.6365L15.1299 14.6876L11.4396 16.8114C10.9791 16.9902 10.4754 17.0187 9.98941 16.8885ZM9.18454 26.265L6.7829 22.1956C9.18813 20.8113 26.8555 10.6436 29.1776 9.30735L31.5223 13.3684L9.18454 26.265ZM34.5474 41.656H13.453V26.5071L15.767 25.1711H20.4844V35.7183C20.4844 36.1923 20.7699 36.6197 21.2079 36.801C21.6457 36.9824 22.15 36.8822 22.4851 36.5469L24.0002 35.0319L25.5154 36.547C25.8511 36.8828 26.3554 36.9821 26.7925 36.8011C27.2305 36.6197 27.516 36.1923 27.516 35.7184V25.1712H34.5475V41.656H34.5474Z" fill="#FF5E48"/>
<path d="M42.8288 18.1397H41.6569V16.9678C41.6569 16.3206 41.1322 15.7959 40.485 15.7959C39.8378 15.7959 39.3131 16.3206 39.3131 16.9678V18.1397H38.1412C37.4939 18.1397 36.9692 18.6644 36.9692 19.3116C36.9692 19.9588 37.4939 20.4836 38.1412 20.4836H39.3131V21.6555C39.3131 22.3027 39.8378 22.8274 40.485 22.8274C41.1322 22.8274 41.6569 22.3027 41.6569 21.6555V20.4836H42.8288C43.476 20.4836 44.0007 19.9588 44.0007 19.3116C44.0007 18.6644 43.476 18.1397 42.8288 18.1397Z" fill="#FF5E48"/>
<path d="M38.063 13.4517C38.7103 13.4517 39.2349 12.9271 39.2349 12.2798C39.2349 11.6326 38.7103 11.1079 38.063 11.1079C37.4158 11.1079 36.8911 11.6326 36.8911 12.2798C36.8911 12.9271 37.4158 13.4517 38.063 13.4517Z" fill="#FF5E48"/>
<path d="M33.3755 20.4835C34.0228 20.4835 34.5474 19.9588 34.5474 19.3116C34.5474 18.6643 34.0228 18.1396 33.3755 18.1396C32.7283 18.1396 32.2036 18.6643 32.2036 19.3116C32.2036 19.9588 32.7283 20.4835 33.3755 20.4835Z" fill="#FF5E48"/>
</svg>
