<svg width="36" height="36" viewBox="0 0 36 36" fill="none" xmlns="http://www.w3.org/2000/svg">
<rect width="36" height="36" rx="18" fill="#D4D4D4"/>
<path d="M26.8219 14.1095C26.8219 14.3064 26.8219 14.5032 26.8219 14.672C26.8219 20.4939 22.3781 27.2157 14.2781 27.2157C11.775 27.2157 9.46875 26.4845 7.5 25.247C7.8375 25.2751 8.20312 25.3032 8.54062 25.3032C10.5937 25.3032 12.5062 24.6001 14.025 23.4189C12.0844 23.3907 10.4531 22.097 9.91875 20.3532C10.2 20.4095 10.4531 20.4376 10.7625 20.4376C11.1562 20.4376 11.55 20.3814 11.9156 20.2689C9.89062 19.8751 8.37187 18.1032 8.37187 15.9657C8.37187 15.9376 8.37187 15.9376 8.37187 15.9095C8.9625 16.247 9.6375 16.4439 10.3687 16.472C9.1875 15.6845 8.4 14.3345 8.4 12.7876C8.4 11.972 8.625 11.2126 8.99062 10.5657C11.1562 13.2376 14.4187 14.9814 18.075 15.1782C17.9906 14.8689 17.9625 14.5032 17.9625 14.1657C17.9625 11.7189 19.9312 9.75012 22.3781 9.75012C23.6437 9.75012 24.7969 10.2845 25.5844 11.1282C26.5969 10.9314 27.525 10.5657 28.3969 10.0595C28.0594 11.1001 27.3562 11.9439 26.4562 12.5064C27.3562 12.3939 28.2 12.1689 28.9875 11.8032C28.425 12.7032 27.6937 13.4907 26.8219 14.1095Z" fill="white"/>
</svg>
