<svg width="605" height="386" viewBox="0 0 605 386" fill="none" xmlns="http://www.w3.org/2000/svg">
<path d="M126.329 1H533.38C568.517 1 597 29.4835 597 64.6196V64.6196C597 99.7558 568.517 128.239 533.38 128.239H72.1902C36.7389 128.239 8 156.978 8 192.429V192.429C8 227.881 36.7389 256.62 72.1902 256.62H532.81C568.261 256.62 597 285.359 597 320.81V320.81C597 356.261 568.261 385 532.81 385H125.951" stroke="url(#paint0_linear_981_10983)" stroke-dasharray="9 8"/>
<path d="M7.12134 197.383C7.49994 198.08 8.50006 198.08 8.87866 197.383L14.1254 187.727C14.4875 187.061 14.0051 186.25 13.2467 186.25H2.75328C1.99493 186.25 1.51255 187.061 1.87463 187.727L7.12134 197.383Z" fill="#FF5E48"/>
<path d="M596.121 326.383C596.5 327.08 597.5 327.08 597.879 326.383L603.125 316.727C603.487 316.061 603.005 315.25 602.247 315.25H591.753C590.995 315.25 590.513 316.061 590.875 316.727L596.121 326.383Z" fill="#FF5E48"/>
<path d="M596.121 70.383C596.5 71.0797 597.5 71.0797 597.879 70.383L603.125 60.7275C603.487 60.0611 603.005 59.25 602.247 59.25H591.753C590.995 59.25 590.513 60.0611 590.875 60.7275L596.121 70.383Z" fill="#FF5E48"/>
<defs>
<linearGradient id="paint0_linear_981_10983" x1="302.5" y1="1" x2="302.5" y2="385" gradientUnits="userSpaceOnUse">
<stop stop-color="#FF7967"/>
<stop offset="1" stop-color="#CD2B15"/>
</linearGradient>
</defs>
</svg>
